# Blender 5.0.1
# www.blender.org
mtllib Floor.mtl
o Floor
v -5.000000 0.000000 5.000000
v 5.000000 0.000000 5.000000
v -5.000000 0.000000 -5.000000
v 5.000000 0.000000 -5.000000
v -5.000000 0.000000 -3.333333
v -5.000000 0.000000 -1.666667
v -5.000000 0.000000 0.000000
v -5.000000 0.000000 1.666667
v -5.000000 0.000000 3.333333
v -3.333333 0.000000 5.000000
v -1.666667 0.000000 5.000000
v 0.000000 0.000000 5.000000
v 1.666667 0.000000 5.000000
v 3.333333 0.000000 5.000000
v 5.000000 0.000000 3.333333
v 5.000000 0.000000 1.666667
v 5.000000 0.000000 0.000000
v 5.000000 0.000000 -1.666667
v 5.000000 0.000000 -3.333333
v 3.333333 0.000000 -5.000000
v 1.666667 0.000000 -5.000000
v 0.000000 0.000000 -5.000000
v -1.666667 0.000000 -5.000000
v -3.333333 0.000000 -5.000000
v -3.333333 0.000000 3.333333
v -3.333333 0.000000 1.666667
v -3.333333 0.002814 0.000000
v -3.333333 0.000000 -1.666667
v -3.333333 0.000000 -3.333333
v -1.666667 0.000000 3.333333
v -1.666667 0.192543 1.666667
v -1.666667 0.425242 0.000000
v -1.666667 0.192543 -1.666667
v -1.666667 0.000000 -3.333333
v 0.000000 0.002814 3.333333
v 0.000000 0.425242 1.666667
v 0.000000 0.808708 0.000000
v 0.000000 0.425242 -1.666667
v 0.000000 0.002814 -3.333333
v 1.666667 0.000000 3.333333
v 1.666667 0.192543 1.666667
v 1.666667 0.425242 0.000000
v 1.666667 0.192543 -1.666667
v 1.666667 0.000000 -3.333333
v 3.333333 0.000000 3.333333
v 3.333333 0.000000 1.666667
v 3.333333 0.002814 0.000000
v 3.333333 0.000000 -1.666667
v 3.333333 0.000000 -3.333333
vn -0.0000 1.0000 -0.0000
vn -0.0004 1.0000 -0.0004
vn -0.0008 1.0000 -0.0000
vn -0.0004 1.0000 0.0004
vn -0.0000 1.0000 0.0008
vn 0.0004 1.0000 0.0004
vn 0.0008 1.0000 -0.0000
vn 0.0004 1.0000 -0.0004
vn -0.0000 1.0000 -0.0008
vn -0.0144 0.9998 0.0144
vn -0.0600 0.9977 0.0320
vn -0.0914 0.9958 -0.0000
vn -0.0600 0.9977 -0.0320
vn -0.0144 0.9998 -0.0144
vn -0.0320 0.9977 0.0600
vn -0.1221 0.9850 0.1221
vn -0.1816 0.9834 -0.0000
vn -0.1221 0.9850 -0.1221
vn -0.0320 0.9977 -0.0600
vn -0.0000 0.9958 0.0914
vn -0.0000 0.9834 0.1816
vn -0.0000 0.9834 -0.1816
vn -0.0000 0.9958 -0.0914
vn 0.0320 0.9977 0.0600
vn 0.1221 0.9850 0.1221
vn 0.1816 0.9834 -0.0000
vn 0.1221 0.9850 -0.1221
vn 0.0320 0.9977 -0.0600
vn 0.0144 0.9998 0.0144
vn 0.0600 0.9977 0.0320
vn 0.0914 0.9958 -0.0000
vn 0.0600 0.9977 -0.0320
vn 0.0144 0.9998 -0.0144
vt 0.833333 0.833333
vt 1.000000 0.833333
vt 1.000000 1.000000
vt 0.833333 1.000000
vt 0.000000 0.833333
vt 0.166667 0.833333
vt 0.166667 1.000000
vt 0.000000 1.000000
vt 0.333333 0.833333
vt 0.333333 1.000000
vt 0.500000 0.833333
vt 0.500000 1.000000
vt 0.666667 0.833333
vt 0.666667 1.000000
vt 0.000000 0.000000
vt 0.166667 0.000000
vt 0.166667 0.166667
vt 0.000000 0.166667
vt 0.166667 0.333333
vt 0.000000 0.333333
vt 0.166667 0.500000
vt 0.000000 0.500000
vt 0.166667 0.666667
vt 0.000000 0.666667
vt 0.333333 0.000000
vt 0.333333 0.166667
vt 0.333333 0.333333
vt 0.333333 0.500000
vt 0.333333 0.666667
vt 0.500000 0.000000
vt 0.500000 0.166667
vt 0.500000 0.333333
vt 0.500000 0.500000
vt 0.500000 0.666667
vt 0.666667 0.000000
vt 0.666667 0.166667
vt 0.666667 0.333333
vt 0.666667 0.500000
vt 0.666667 0.666667
vt 0.833333 0.000000
vt 0.833333 0.166667
vt 0.833333 0.333333
vt 0.833333 0.500000
vt 0.833333 0.666667
vt 1.000000 0.000000
vt 1.000000 0.166667
vt 1.000000 0.333333
vt 1.000000 0.500000
vt 1.000000 0.666667
s 1
usemtl Floor
f 49/1/33 19/2/1 4/3/1 20/4/1
f 5/5/1 29/6/14 24/7/1 3/8/1
f 29/6/14 34/9/19 23/10/2 24/7/1
f 34/9/19 39/11/23 22/12/9 23/10/2
f 39/11/23 44/13/28 21/14/8 22/12/9
f 44/13/28 49/1/33 20/4/1 21/14/8
f 1/15/1 10/16/1 25/17/10 9/18/1
f 9/18/1 25/17/10 26/19/11 8/20/4
f 8/20/4 26/19/11 27/21/12 7/22/3
f 7/22/3 27/21/12 28/23/13 6/24/2
f 6/24/2 28/23/13 29/6/14 5/5/1
f 10/16/1 11/25/4 30/26/15 25/17/10
f 25/17/10 30/26/15 31/27/16 26/19/11
f 26/19/11 31/27/16 32/28/17 27/21/12
f 27/21/12 32/28/17 33/29/18 28/23/13
f 28/23/13 33/29/18 34/9/19 29/6/14
f 11/25/4 12/30/5 35/31/20 30/26/15
f 30/26/15 35/31/20 36/32/21 31/27/16
f 31/27/16 36/32/21 37/33/1 32/28/17
f 32/28/17 37/33/1 38/34/22 33/29/18
f 33/29/18 38/34/22 39/11/23 34/9/19
f 12/30/5 13/35/6 40/36/24 35/31/20
f 35/31/20 40/36/24 41/37/25 36/32/21
f 36/32/21 41/37/25 42/38/26 37/33/1
f 37/33/1 42/38/26 43/39/27 38/34/22
f 38/34/22 43/39/27 44/13/28 39/11/23
f 13/35/6 14/40/1 45/41/29 40/36/24
f 40/36/24 45/41/29 46/42/30 41/37/25
f 41/37/25 46/42/30 47/43/31 42/38/26
f 42/38/26 47/43/31 48/44/32 43/39/27
f 43/39/27 48/44/32 49/1/33 44/13/28
f 14/40/1 2/45/1 15/46/1 45/41/29
f 45/41/29 15/46/1 16/47/6 46/42/30
f 46/42/30 16/47/6 17/48/7 47/43/31
f 47/43/31 17/48/7 18/49/8 48/44/32
f 48/44/32 18/49/8 19/2/1 49/1/33
