# Blender 5.0.1
# www.blender.org
mtllib Arm_L.mtl
o Arm_L
v -0.193646 -0.012548 0.082360
v -0.193646 0.043325 0.082360
v -0.221783 0.043325 0.023272
v -0.221783 -0.012548 0.023272
v -0.137371 -0.012547 0.110498
v -0.137371 0.043325 0.110498
v -0.081498 -0.012547 0.110498
v -0.081498 0.043325 0.110498
v -0.025224 -0.012548 0.093615
v -0.025224 0.043325 0.093615
v -0.193646 0.093972 0.045782
v -0.193646 0.099600 0.023272
v -0.137371 0.110854 0.065478
v -0.137371 0.127737 0.023272
v -0.081498 0.110854 0.065478
v -0.081498 0.127737 0.023272
v -0.025224 0.093972 0.057037
v -0.025224 0.099600 0.023272
v -0.137371 -0.051940 0.102057
v -0.081498 -0.051940 0.102057
v -0.185205 -0.051939 0.076733
v -0.213342 -0.051940 0.023272
v -0.053361 -0.051940 0.098037
v -0.221783 -0.012548 -0.032601
v -0.221783 0.043325 -0.032601
v -0.193646 0.043325 -0.091689
v -0.193646 -0.012548 -0.091689
v -0.137371 0.043325 -0.119826
v -0.137371 -0.012548 -0.119826
v -0.081498 0.043325 -0.119826
v -0.081498 -0.012548 -0.119826
v -0.025224 0.043325 -0.102944
v -0.025224 -0.012548 -0.102944
v -0.193646 0.099600 -0.032601
v -0.193646 0.093972 -0.055110
v -0.137371 0.127737 -0.032601
v -0.137371 0.110854 -0.074807
v -0.081498 0.110854 -0.074807
v -0.081498 0.127737 -0.032601
v -0.025224 0.093972 -0.066365
v -0.025224 0.099600 -0.032601
v -0.081498 -0.051940 -0.111385
v -0.137371 -0.051940 -0.111385
v -0.185205 -0.051940 -0.086061
v -0.213342 -0.051940 -0.032601
v -0.053361 -0.051940 -0.107365
v 0.000100 -0.012548 0.068292
v 0.000100 0.043325 0.068292
v -0.025224 0.043325 0.093615
v -0.025224 -0.012548 0.093615
v 0.000100 0.071462 0.054223
v 0.000100 0.071462 0.023272
v -0.025224 0.099600 0.023272
v -0.025224 0.093972 0.057037
v -0.137371 -0.074450 0.104870
v -0.081498 -0.074450 0.104870
v -0.081498 -0.051940 0.102057
v -0.137371 -0.051940 0.102057
v -0.188018 -0.074450 0.079547
v -0.185205 -0.051939 0.076733
v -0.218969 -0.074450 0.023272
v -0.213342 -0.051940 0.023272
v -0.019596 -0.074450 0.085174
v -0.025224 -0.051939 0.082360
v -0.053361 -0.051940 0.098037
v -0.002714 -0.046312 0.059851
v -0.025224 -0.012548 -0.102944
v -0.025224 0.043325 -0.102944
v 0.000100 0.043325 -0.077620
v 0.000100 -0.012548 -0.077620
v -0.025224 0.093972 -0.066365
v -0.025224 0.099600 -0.032601
v 0.000100 0.071462 -0.032601
v 0.000100 0.071462 -0.063552
v -0.137371 -0.051940 -0.111385
v -0.081498 -0.051940 -0.111385
v -0.081498 -0.074450 -0.114199
v -0.137371 -0.074450 -0.114199
v -0.185205 -0.051940 -0.086061
v -0.188018 -0.074450 -0.088875
v -0.213342 -0.051940 -0.032601
v -0.218969 -0.074450 -0.032601
v -0.053361 -0.051940 -0.107365
v -0.025224 -0.051940 -0.091689
v -0.019596 -0.074450 -0.094503
v -0.002714 -0.046312 -0.069179
v -0.053361 -0.051940 0.098037
v -0.081498 -0.051940 0.102057
v -0.137371 -0.051940 0.102057
v -0.185205 -0.051939 0.076733
v -0.213342 -0.051940 0.023272
v -0.213342 -0.051940 -0.032601
v -0.185205 -0.051940 -0.086061
v -0.137371 -0.051940 -0.111385
v -0.081498 -0.051940 -0.111385
v -0.053361 -0.051940 -0.107365
v -0.133753 0.010888 0.015475
v -0.133753 -0.018204 -0.056161
v -0.165910 -0.041458 -0.028448
v -0.165910 -0.087966 0.026977
v -0.133753 -0.035619 0.070901
v -0.069439 0.010888 0.015475
v -0.069439 -0.018204 -0.056161
v -0.037283 -0.041458 -0.028448
v -0.069439 -0.035619 0.070901
v -0.133753 -0.122897 -0.144009
v -0.165910 -0.146151 -0.116296
v -0.069439 -0.122897 -0.144009
v -0.165910 -0.192658 -0.060870
v -0.037283 -0.087966 0.026977
v -0.037283 -0.146151 -0.116296
v -0.037283 -0.192658 -0.060870
v -0.133753 -0.111219 0.054690
v -0.069439 -0.111219 0.054690
v -0.133753 -0.215912 -0.033158
v -0.069439 -0.215912 -0.033158
v -0.133753 -0.198497 -0.160220
v -0.133753 -0.245004 -0.104794
v -0.069439 -0.198497 -0.160220
v -0.069439 -0.245004 -0.104794
v -0.024419 -0.107410 -0.284711
v -0.024419 -0.107410 -0.371534
v -0.178130 -0.107410 -0.371534
v -0.178130 -0.107410 -0.284710
v -0.203856 -0.129920 -0.284711
v -0.203856 -0.264417 -0.284711
v -0.178130 -0.286927 -0.284711
v -0.024419 -0.286927 -0.284711
v 0.001306 -0.264417 -0.284711
v 0.001306 -0.129920 -0.284711
v -0.203856 -0.129920 -0.371534
v -0.203856 -0.264417 -0.371534
v 0.001306 -0.129920 -0.371534
v 0.001306 -0.264417 -0.371534
v -0.178130 -0.129920 -0.388899
v -0.024419 -0.129920 -0.388899
v -0.024419 -0.264417 -0.388899
v -0.178130 -0.264417 -0.388899
v -0.157549 -0.120916 -0.215734
v -0.045000 -0.120916 -0.215734
v -0.039855 -0.116415 -0.284711
v -0.162695 -0.116415 -0.284711
v -0.193565 -0.143426 -0.284711
v -0.193565 -0.250911 -0.284711
v -0.188420 -0.246409 -0.215734
v -0.188420 -0.147929 -0.215734
v -0.014129 -0.147929 -0.215734
v -0.014129 -0.246409 -0.215734
v -0.008984 -0.250911 -0.284711
v -0.008984 -0.143426 -0.284711
v -0.050145 -0.134423 -0.146275
v -0.029565 -0.152430 -0.146275
v -0.172984 -0.152430 -0.146275
v -0.152404 -0.134423 -0.146275
v -0.029565 -0.241907 -0.146275
v -0.172984 -0.241907 -0.146275
v -0.060435 -0.152430 -0.132769
v -0.050145 -0.161434 -0.132769
v -0.152404 -0.161434 -0.132769
v -0.142114 -0.152430 -0.132769
v -0.152404 -0.232903 -0.132769
v -0.050145 -0.232903 -0.132769
v -0.178130 -0.286927 -0.371534
v -0.024419 -0.286927 -0.371534
v -0.162695 -0.277923 -0.284711
v -0.039855 -0.277923 -0.284711
v -0.045000 -0.273421 -0.215734
v -0.157549 -0.273421 -0.215734
v -0.050145 -0.259915 -0.146275
v -0.152404 -0.259915 -0.146275
v -0.060435 -0.241907 -0.132769
v -0.142114 -0.241907 -0.132769
vn -0.7113 -0.1090 0.6944
vn -0.6744 0.2275 0.7024
vn -0.9602 0.2006 0.1946
vn -0.9694 -0.1087 0.2202
vn -0.2276 -0.1051 0.9681
vn -0.2179 0.2764 0.9360
vn 0.1431 -0.1033 0.9843
vn 0.1413 0.2836 0.9485
vn 0.2677 -0.0482 0.9623
vn 0.2854 0.3008 0.9100
vn -0.6559 0.6172 0.4345
vn -0.6866 0.7182 0.1132
vn -0.2047 0.7642 0.6116
vn -0.2149 0.9615 0.1712
vn 0.1660 0.7837 0.5985
vn 0.2087 0.9645 0.1618
vn 0.3349 0.7557 0.5628
vn 0.4143 0.8999 0.1359
vn -0.2367 -0.2121 0.9481
vn 0.1175 -0.1671 0.9789
vn -0.6865 -0.2211 0.6927
vn -0.9479 -0.2196 0.2307
vn 0.1414 0.0101 0.9899
vn -0.9694 -0.1087 -0.2202
vn -0.9602 0.2006 -0.1946
vn -0.6744 0.2275 -0.7024
vn -0.7113 -0.1090 -0.6944
vn -0.2179 0.2764 -0.9360
vn -0.2276 -0.1051 -0.9681
vn 0.1413 0.2835 -0.9485
vn 0.1431 -0.1033 -0.9843
vn 0.2854 0.3008 -0.9100
vn 0.2677 -0.0482 -0.9623
vn -0.6866 0.7182 -0.1132
vn -0.6559 0.6172 -0.4345
vn -0.2149 0.9615 -0.1712
vn -0.2047 0.7642 -0.6116
vn 0.1660 0.7837 -0.5985
vn 0.2087 0.9645 -0.1618
vn 0.3349 0.7557 -0.5628
vn 0.4143 0.8999 -0.1360
vn 0.1175 -0.1671 -0.9789
vn -0.2367 -0.2121 -0.9481
vn -0.6865 -0.2211 -0.6927
vn -0.9479 -0.2196 -0.2307
vn 0.1414 0.0101 -0.9899
vn 0.7075 0.7041 0.0612
vn 0.7260 0.6871 0.0306
vn 0.7267 0.6863 0.0294
vn -0.2287 0.1348 0.9641
vn 0.1582 0.0842 0.9838
vn 0.1611 0.0835 0.9834
vn -0.2371 0.1351 0.9620
vn -0.6894 0.1724 0.7036
vn -0.6890 0.1724 0.7040
vn -0.9469 0.2244 0.2304
vn -0.9429 0.2224 0.2480
vn 0.4597 0.1273 0.8789
vn 0.5558 -0.0315 0.8307
vn 0.3610 -0.0337 0.9319
vn 0.7050 -0.0877 0.7038
vn 0.7093 -0.1092 0.6964
vn 0.6681 -0.1277 0.7330
vn 0.6681 -0.1277 -0.7330
vn 0.6701 0.1910 -0.7173
vn 0.6538 0.2478 -0.7150
vn 0.7093 -0.1092 -0.6964
vn -0.6890 0.1724 -0.7040
vn -0.2371 0.1351 -0.9620
vn -0.2287 0.1348 -0.9641
vn -0.6894 0.1724 -0.7036
vn -0.9429 0.2224 -0.2480
vn -0.9469 0.2244 -0.2304
vn 0.1582 0.0842 -0.9838
vn 0.1611 0.0835 -0.9834
vn 0.3610 -0.0337 -0.9319
vn 0.5558 -0.0315 -0.8307
vn 0.4597 0.1273 -0.8789
vn 0.7050 -0.0877 -0.7038
vn 0.7267 0.6863 -0.0294
vn 0.7260 0.6871 -0.0306
vn 0.6538 0.2478 0.7150
vn 0.6701 0.1910 0.7173
vn 0.5776 0.4414 0.6866
vn 0.7075 0.7041 -0.0612
vn 0.5776 0.4414 -0.6866
vn -0.8137 0.5812 -0.0000
vn 1.0000 -0.0000 -0.0000
vn -0.0000 -1.0000 -0.0000
vn -0.8881 0.4430 0.1222
vn -0.7393 0.5348 -0.4092
vn -0.9208 0.3680 -0.1293
vn -0.9208 -0.0634 0.3849
vn -0.8881 0.1973 0.4151
vn -0.0000 0.9265 -0.3763
vn -0.0000 0.8085 -0.5885
vn 0.9208 0.3680 -0.1293
vn 0.7393 0.5348 -0.4092
vn 0.8881 0.4430 0.1222
vn -0.0000 0.7660 0.6428
vn -0.7393 0.3101 -0.5977
vn -0.9208 0.0634 -0.3849
vn -0.0000 0.4392 -0.8984
vn -0.9208 -0.3680 0.1293
vn 0.8881 0.1973 0.4151
vn 0.9208 -0.0634 0.3849
vn 0.9208 0.0634 -0.3849
vn 0.7393 0.3101 -0.5977
vn 0.9208 -0.3680 0.1293
vn -0.7393 -0.3101 0.5977
vn -0.0000 -0.2097 0.9778
vn -0.0000 -0.4392 0.8984
vn 0.7393 -0.3101 0.5977
vn -0.7393 -0.5348 0.4092
vn -0.0000 -0.8085 0.5885
vn 0.7393 -0.5348 0.4092
vn -0.8881 -0.1973 -0.4151
vn -0.8881 -0.4430 -0.1222
vn -0.0000 0.2097 -0.9778
vn 0.8881 -0.1973 -0.4151
vn -0.0000 -0.7660 -0.6428
vn 0.8881 -0.4430 -0.1222
vn -0.0000 -0.9265 0.3763
vn -0.0000 1.0000 -0.0000
vn -0.0000 -0.0000 1.0000
vn -0.6585 0.7526 -0.0000
vn -1.0000 -0.0000 -0.0000
vn 0.6585 0.7526 -0.0000
vn -0.2682 0.2982 -0.9161
vn -0.5478 0.2034 -0.8115
vn -0.1913 0.5995 -0.7772
vn 0.1913 0.5995 -0.7772
vn 0.2682 0.2982 -0.9161
vn 0.5478 0.2034 -0.8115
vn 0.5478 -0.2034 -0.8115
vn 0.2682 -0.2982 -0.9161
vn -0.2682 -0.2982 -0.9161
vn -0.5478 -0.2034 -0.8115
vn -0.0000 0.9921 0.1253
vn -0.0000 0.9979 0.0651
vn -0.9972 -0.0000 0.0744
vn -0.9897 -0.0000 0.1431
vn 0.9897 -0.0000 0.1431
vn 0.9972 -0.0000 0.0744
vn -0.6553 0.7490 0.0978
vn -0.6518 0.7449 0.1427
vn -0.6516 0.7447 0.1439
vn 0.6553 0.7490 0.0978
vn 0.6516 0.7447 0.1439
vn 0.6518 0.7449 0.1427
vn 0.6463 0.7386 0.1915
vn -0.6463 0.7386 0.1915
vn -0.0000 0.9816 0.1909
vn 0.9762 -0.0000 0.2169
vn -0.9762 -0.0000 0.2169
vn 0.4697 0.2118 0.8570
vn 0.2052 0.5095 0.8357
vn 0.1086 0.3298 0.9378
vn 0.3015 0.1385 0.9434
vn -0.3015 0.1385 0.9434
vn -0.1086 0.3298 0.9378
vn -0.2052 0.5095 0.8357
vn -0.4697 0.2118 0.8570
vn -0.3015 -0.1385 0.9434
vn -0.4697 -0.2118 0.8570
vn 0.4697 -0.2118 0.8570
vn 0.3015 -0.1385 0.9434
vn -0.6585 -0.7526 -0.0000
vn 0.6585 -0.7526 -0.0000
vn -0.1913 -0.5995 -0.7772
vn 0.1913 -0.5995 -0.7772
vn -0.0000 -0.9979 0.0651
vn -0.0000 -0.9921 0.1253
vn -0.6516 -0.7447 0.1439
vn -0.6518 -0.7449 0.1427
vn -0.6553 -0.7490 0.0978
vn 0.6518 -0.7449 0.1427
vn 0.6516 -0.7447 0.1439
vn 0.6553 -0.7490 0.0978
vn 0.6463 -0.7386 0.1915
vn -0.6463 -0.7386 0.1915
vn -0.0000 -0.9816 0.1909
vn 0.1086 -0.3298 0.9378
vn 0.2052 -0.5095 0.8357
vn -0.2052 -0.5095 0.8357
vn -0.1086 -0.3298 0.9378
vt 0.122165 0.856850
vt 0.378708 1.000000
vt 0.000000 0.570552
vt 0.000000 0.286298
vt 0.073299 0.000000
vt 0.280978 0.856850
vt 0.378708 0.856850
vt 0.195462 0.570552
vt 0.378708 0.570552
vt 0.195462 0.286298
vt 0.378708 0.286298
vt 0.232112 0.000000
vt 0.378708 0.000000
vt 0.036648 0.570552
vt 0.036648 0.286298
vt 0.146598 0.813906
vt 0.378708 0.957054
vt 0.054102 0.143150
vt 0.621292 1.000000
vt 0.877835 0.856850
vt 1.000000 0.570552
vt 1.000000 0.286298
vt 0.926701 0.000000
vt 0.621292 0.856850
vt 0.719022 0.856850
vt 0.621292 0.570552
vt 0.804538 0.570552
vt 0.804538 0.286298
vt 0.621292 0.286298
vt 0.767888 0.000000
vt 0.621292 0.000000
vt 0.963352 0.286298
vt 0.963352 0.570552
vt 0.853402 0.813906
vt 0.621292 0.957054
vt 0.945898 0.143150
vt 0.231192 0.000000
vt 0.372476 0.000000
vt 0.372476 0.115596
vt 0.218349 0.115596
vt 0.000000 0.627524
vt 0.000000 0.372476
vt 0.012843 0.372476
vt 0.012843 0.627524
vt 0.115596 0.858716
vt 0.128441 0.845873
vt 0.372476 1.000000
vt 0.372476 0.974312
vt 0.089908 0.089908
vt 0.102753 0.115596
vt 0.031193 0.244037
vt 0.205504 0.012845
vt 0.166973 0.000000
vt 0.051377 0.115596
vt 0.948623 0.115596
vt 0.833027 0.000000
vt 0.871559 0.845873
vt 0.987157 0.627524
vt 1.000000 0.627524
vt 0.884404 0.858716
vt 0.627524 0.974312
vt 0.627524 1.000000
vt 1.000000 0.372476
vt 0.987157 0.372476
vt 0.968807 0.244037
vt 0.897247 0.115596
vt 0.910092 0.089908
vt 0.794496 0.012845
vt 0.627524 0.115596
vt 0.627524 0.000000
vt 0.768808 0.000000
vt 0.781651 0.115596
vt 0.018834 0.000000
vt 0.000000 0.175878
vt 0.000000 0.525127
vt 0.118646 0.824122
vt 0.369114 1.000000
vt 0.630886 1.000000
vt 0.881354 0.824122
vt 1.000000 0.525127
vt 1.000000 0.175878
vt 0.981166 0.000000
vt 0.750000 1.000000
vt 0.750000 0.750000
vt 1.000000 0.750000
vt 0.250000 1.000000
vt 0.250000 0.750000
vt 0.000000 0.750000
vt 0.750000 0.250000
vt 1.000000 0.250000
vt 0.250000 0.250000
vt 0.000000 0.250000
vt 0.750000 0.000000
vt 0.250000 0.000000
vt 0.593221 0.125392
vt 0.932204 0.125392
vt 0.932204 0.874608
vt 0.593221 0.874608
vt 0.593221 1.000000
vt 0.593221 0.000000
vt 0.932204 1.000000
vt 0.932204 0.000000
vt 1.000000 0.874608
vt 1.000000 0.125392
vt 0.323918 0.774293
vt 0.323918 0.225707
vt 0.593221 0.200626
vt 0.593221 0.799374
vt 0.593221 0.949842
vt 0.323918 0.924766
vt 0.323918 0.075234
vt 0.593221 0.050158
vt 0.052731 0.250784
vt 0.052731 0.150473
vt 0.052731 0.849527
vt 0.052731 0.749216
vt 0.000000 0.300941
vt 0.000000 0.250784
vt 0.000000 0.749216
vt 0.000000 0.699059
s 1
usemtl Robot_Blue
f 1/1/1 2/1/2 3/2/3 4/2/4
f 5/3/5 6/3/6 2/1/2 1/1/1
f 7/4/7 8/4/8 6/3/6 5/3/5
f 9/5/9 10/5/10 8/4/8 7/4/7
f 11/6/11 12/7/12 3/2/3
f 11/6/11 3/2/3 2/1/2
f 13/8/13 14/9/14 12/7/12 11/6/11
f 13/8/13 11/6/11 2/1/2 6/3/6
f 15/10/15 13/8/13 6/3/6 8/4/8
f 16/11/16 14/9/14 13/8/13 15/10/15
f 17/12/17 15/10/15 8/4/8 10/5/10
f 18/13/18 16/11/16 15/10/15 17/12/17
f 19/14/19 20/15/20 7/4/7 5/3/5
f 21/16/21 19/14/19 5/3/5 1/1/1
f 21/16/21 1/1/1 4/2/4 22/17/22
f 23/18/23 9/5/9 20/15/20
f 9/5/9 7/4/7 20/15/20
f 24/19/24 25/19/25 26/20/26 27/20/27
f 27/20/27 26/20/26 28/21/28 29/21/29
f 29/21/29 28/21/28 30/22/30 31/22/31
f 31/22/31 30/22/30 32/23/32 33/23/33
f 25/19/25 34/24/34 35/25/35
f 26/20/26 25/19/25 35/25/35
f 35/25/35 34/24/34 36/26/36 37/27/37
f 28/21/28 26/20/26 35/25/35 37/27/37
f 30/22/30 28/21/28 37/27/37 38/28/38
f 38/28/38 37/27/37 36/26/36 39/29/39
f 32/23/32 30/22/30 38/28/38 40/30/40
f 40/30/40 38/28/38 39/29/39 41/31/41
f 29/21/29 31/22/31 42/32/42 43/33/43
f 27/20/27 29/21/29 43/33/43 44/34/44
f 45/35/45 24/19/24 27/20/27 44/34/44
f 42/32/42 33/23/33 46/36/46
f 42/32/42 31/22/31 33/23/33
f 16/11/16 18/13/18 41/31/41 39/29/39
f 39/29/39 36/26/36 14/9/14 16/11/16
f 36/26/36 34/24/34 12/7/12 14/9/14
f 34/24/34 25/19/25 3/2/3 12/7/12
f 25/19/25 24/19/24 4/2/4 3/2/3
f 24/19/24 45/35/45 22/17/22 4/2/4
usemtl Robot_White
f 51/37/47 52/38/48 53/39/49 54/40/47
f 55/41/50 56/42/51 57/43/52 58/44/53
f 59/45/54 55/41/50 58/44/53 60/46/55
f 61/47/56 59/45/54 60/46/55 62/48/57
f 63/49/58 64/50/59 65/51/60 57/43/52 56/42/51
f 66/52/61 64/50/59 63/49/58
f 47/53/62 50/54/63 64/50/59 66/52/61
f 65/51/60 64/50/59 50/54/63
f 67/55/64 68/55/65 69/56/66 70/56/67
f 79/57/68 75/58/69 78/59/70 80/60/71
f 81/61/72 79/57/68 80/60/71 82/62/73
f 77/63/74 76/64/75 83/65/76 84/66/77 85/67/78
f 85/67/78 84/66/77 86/68/79
f 86/68/79 84/66/77 67/55/64 70/56/67
f 72/69/80 53/39/49 52/38/48 73/70/81
f 81/61/72 82/62/73 61/47/56 62/48/57
f 50/54/63 47/53/62 48/53/82 49/54/83
f 51/37/84 54/40/84 49/54/83 48/53/82
f 74/71/85 71/72/85 72/69/80 73/70/81
f 71/72/86 74/71/86 69/56/66 68/55/65
f 78/59/70 75/58/69 76/64/75 77/63/74
f 83/65/76 67/55/64 84/66/77
f 50/54/87 67/55/87 83/65/87 65/51/87
usemtl Robot_Black
f 50/54/88 67/55/88 68/55/88 71/72/88 72/69/88 53/39/88 54/40/88 49/54/88
f 87/73/89 88/74/89 89/75/89 90/76/89 91/77/89 92/78/89 93/79/89 94/80/89 95/81/89 96/82/89
usemtl Robot_White
f 97/83/90 98/84/91 99/85/92
f 97/83/90 99/85/92 100/85/93 101/83/94
f 102/86/95 103/87/96 98/84/96 97/83/95
f 104/88/97 103/87/98 102/86/99
f 102/86/100 97/83/100 101/83/100 105/86/100
f 106/89/101 107/90/102 99/85/92 98/84/91
f 106/89/103 98/84/96 103/87/96 108/91/103
f 109/90/104 100/85/93 99/85/92 107/90/102
f 105/86/105 110/88/106 104/88/97 102/86/99
f 103/87/98 104/88/97 111/92/107 108/91/108
f 111/92/107 104/88/97 110/88/106 112/92/109
f 100/85/93 113/84/110 101/83/94
f 101/83/111 113/84/112 114/87/112 105/86/111
f 105/86/105 114/87/113 110/88/106
f 113/84/110 100/85/93 109/90/104 115/89/114
f 116/91/115 114/87/112 113/84/112 115/89/115
f 116/91/116 112/92/109 110/88/106 114/87/113
f 107/90/102 106/89/101 117/93/117
f 118/93/118 109/90/104 107/90/102 117/93/117
f 117/93/119 106/89/103 108/91/103 119/94/119
f 119/94/120 108/91/108 111/92/107
f 120/94/121 118/93/121 117/93/121 119/94/121
f 119/94/120 111/92/107 112/92/109 120/94/122
f 118/93/118 115/89/114 109/90/104
f 120/94/123 116/91/115 115/89/115 118/93/123
f 112/92/109 116/91/116 120/94/122
f 121/95/124 122/96/124 123/97/124 124/98/124
f 121/95/125 124/98/125 125/99/125 126/99/125 127/98/125 128/95/125 129/100/125 130/100/125
f 124/98/126 123/97/126 131/101/126 125/99/126
f 131/101/127 132/101/127 126/99/127 125/99/127
f 133/102/128 122/96/128 121/95/128 130/100/128
f 133/102/88 130/100/88 129/100/88 134/102/88
f 135/103/129 131/101/130 123/97/131
f 135/103/129 123/97/131 122/96/132 136/104/133
f 136/104/133 122/96/132 133/102/134
f 136/104/133 133/102/134 134/102/135 137/104/136
f 135/103/129 138/103/137 132/101/138 131/101/130
f 138/103/137 135/103/129 136/104/133 137/104/136
f 139/105/139 140/106/139 141/107/140 142/108/140
f 143/109/141 144/109/141 145/110/142 146/110/142
f 147/111/143 148/111/143 149/112/144 150/112/144
f 142/108/145 143/109/145 146/110/146 139/105/147
f 150/112/148 141/107/148 140/106/149 147/111/150
f 151/113/151 152/114/151 147/111/150 140/106/149
f 139/105/147 146/110/146 153/115/152 154/116/152
f 140/106/139 139/105/139 154/116/153 151/113/153
f 155/114/154 148/111/143 147/111/143 152/114/154
f 153/115/155 146/110/142 145/110/142 156/115/155
f 152/114/156 151/113/157 157/117/158 158/118/159
f 159/119/160 160/120/161 154/116/162 153/115/163
f 151/113/157 154/116/162 160/120/161 157/117/158
f 161/119/164 159/119/160 153/115/163 156/115/165
f 155/114/166 152/114/156 158/118/159 162/118/167
f 127/98/89 163/97/89 164/96/89 128/95/89
f 126/99/168 132/101/168 163/97/168 127/98/168
f 129/100/169 128/95/169 164/96/169 134/102/169
f 163/97/170 132/101/138 138/103/137
f 137/104/136 164/96/171 163/97/170 138/103/137
f 134/102/135 164/96/171 137/104/136
f 165/108/172 166/107/172 167/106/173 168/105/173
f 168/105/174 145/110/175 144/109/176 165/108/176
f 148/111/177 167/106/178 166/107/179 149/112/179
f 167/106/178 148/111/177 155/114/180 169/113/180
f 170/116/181 156/115/181 145/110/175 168/105/174
f 169/113/182 170/116/182 168/105/173 167/106/173
f 162/118/167 171/117/183 169/113/184 155/114/166
f 156/115/165 170/116/185 172/120/186 161/119/164
f 171/117/183 172/120/186 170/116/185 169/113/184
f 158/118/159 157/117/158 160/120/161 159/119/160 161/119/164 172/120/186 171/117/183 162/118/167
