# Blender 5.0.1
# www.blender.org
mtllib Arm_R.mtl
o Arm_R
v 0.193199 -0.012548 0.082360
v 0.193199 0.043325 0.082360
v 0.221337 0.043325 0.023272
v 0.221337 -0.012548 0.023272
v 0.136925 -0.012548 0.110498
v 0.136925 0.043325 0.110498
v 0.081052 -0.012548 0.110498
v 0.081052 0.043325 0.110498
v 0.024777 -0.012548 0.093615
v 0.024777 0.043325 0.093615
v 0.193199 0.093972 0.045782
v 0.193199 0.099600 0.023272
v 0.136925 0.110854 0.065478
v 0.136925 0.127737 0.023272
v 0.081052 0.110854 0.065478
v 0.081052 0.127737 0.023272
v 0.024777 0.093972 0.057037
v 0.024777 0.099600 0.023272
v 0.136925 -0.051940 0.102057
v 0.081052 -0.051940 0.102057
v 0.184758 -0.051940 0.076733
v 0.212895 -0.051940 0.023272
v 0.052915 -0.051940 0.098037
v 0.221337 -0.012548 -0.032601
v 0.221337 0.043325 -0.032601
v 0.193199 0.043325 -0.091689
v 0.193199 -0.012547 -0.091689
v 0.136925 0.043325 -0.119826
v 0.136925 -0.012548 -0.119826
v 0.081052 0.043325 -0.119826
v 0.081052 -0.012548 -0.119826
v 0.024777 0.043325 -0.102944
v 0.024777 -0.012547 -0.102944
v 0.193199 0.099600 -0.032601
v 0.193199 0.093972 -0.055110
v 0.136925 0.127737 -0.032601
v 0.136925 0.110854 -0.074807
v 0.081052 0.110854 -0.074807
v 0.081052 0.127737 -0.032601
v 0.024777 0.093972 -0.066365
v 0.024777 0.099600 -0.032601
v 0.081052 -0.051939 -0.111385
v 0.136925 -0.051939 -0.111385
v 0.184758 -0.051940 -0.086061
v 0.212895 -0.051940 -0.032601
v 0.052915 -0.051940 -0.107365
v -0.000546 -0.012548 0.068292
v -0.000546 0.043325 0.068292
v 0.024777 0.043325 0.093615
v 0.024777 -0.012548 0.093615
v -0.000546 0.071462 0.054223
v -0.000546 0.071462 0.023272
v 0.024777 0.099600 0.023272
v 0.024777 0.093972 0.057037
v 0.136925 -0.074450 0.104870
v 0.081052 -0.074450 0.104870
v 0.081052 -0.051940 0.102057
v 0.136925 -0.051940 0.102057
v 0.187572 -0.074450 0.079547
v 0.184758 -0.051940 0.076733
v 0.218523 -0.074450 0.023272
v 0.212895 -0.051940 0.023272
v 0.019150 -0.074450 0.085174
v 0.024777 -0.051940 0.082360
v 0.052915 -0.051940 0.098037
v 0.002268 -0.046312 0.059851
v 0.024777 -0.012547 -0.102944
v 0.024777 0.043325 -0.102944
v -0.000546 0.043325 -0.077620
v -0.000546 -0.012548 -0.077620
v 0.024777 0.093972 -0.066365
v 0.024777 0.099600 -0.032601
v -0.000546 0.071462 -0.032601
v -0.000546 0.071462 -0.063552
v 0.136925 -0.051939 -0.111385
v 0.081052 -0.051939 -0.111385
v 0.081052 -0.074450 -0.114199
v 0.136925 -0.074450 -0.114199
v 0.184758 -0.051940 -0.086061
v 0.187572 -0.074450 -0.088875
v 0.212895 -0.051940 -0.032601
v 0.218523 -0.074450 -0.032601
v 0.052915 -0.051940 -0.107365
v 0.024777 -0.051940 -0.091689
v 0.019150 -0.074450 -0.094503
v 0.002268 -0.046312 -0.069179
v 0.052915 -0.051940 0.098037
v 0.081052 -0.051940 0.102057
v 0.136925 -0.051940 0.102057
v 0.184758 -0.051940 0.076733
v 0.212895 -0.051940 0.023272
v 0.212895 -0.051940 -0.032601
v 0.184758 -0.051940 -0.086061
v 0.136925 -0.051939 -0.111385
v 0.081052 -0.051939 -0.111385
v 0.052915 -0.051940 -0.107365
v 0.023973 -0.107410 -0.284711
v 0.023973 -0.107410 -0.371534
v 0.177683 -0.107410 -0.371534
v 0.177683 -0.107410 -0.284711
v 0.203409 -0.129920 -0.284711
v 0.203409 -0.264417 -0.284711
v 0.177683 -0.286927 -0.284711
v 0.023973 -0.286927 -0.284711
v -0.001753 -0.264417 -0.284711
v -0.001753 -0.129920 -0.284711
v 0.203409 -0.129920 -0.371534
v 0.203409 -0.264417 -0.371534
v -0.001753 -0.129920 -0.371534
v -0.001753 -0.264417 -0.371534
v 0.177683 -0.129920 -0.388899
v 0.023973 -0.129920 -0.388899
v 0.023973 -0.264417 -0.388899
v 0.177683 -0.264417 -0.388899
v 0.157103 -0.120916 -0.215734
v 0.044554 -0.120916 -0.215734
v 0.039408 -0.116415 -0.284711
v 0.162248 -0.116415 -0.284711
v 0.193119 -0.143426 -0.284711
v 0.193119 -0.250911 -0.284711
v 0.187974 -0.246409 -0.215734
v 0.187974 -0.147929 -0.215734
v 0.013683 -0.147929 -0.215734
v 0.013683 -0.246409 -0.215734
v 0.008538 -0.250911 -0.284711
v 0.008538 -0.143426 -0.284711
v 0.049699 -0.134423 -0.146275
v 0.029119 -0.152430 -0.146275
v 0.172538 -0.152430 -0.146275
v 0.151958 -0.134423 -0.146275
v 0.029119 -0.241907 -0.146275
v 0.172538 -0.241907 -0.146275
v 0.059989 -0.152430 -0.132769
v 0.049699 -0.161434 -0.132769
v 0.151958 -0.161434 -0.132769
v 0.141667 -0.152430 -0.132769
v 0.151958 -0.232903 -0.132769
v 0.049699 -0.232903 -0.132769
v 0.177683 -0.286927 -0.371534
v 0.023973 -0.286927 -0.371534
v 0.162248 -0.277923 -0.284711
v 0.039408 -0.277923 -0.284711
v 0.044554 -0.273421 -0.215734
v 0.157103 -0.273421 -0.215734
v 0.049699 -0.259915 -0.146275
v 0.151958 -0.259915 -0.146275
v 0.059989 -0.241907 -0.132769
v 0.141667 -0.241907 -0.132769
v 0.133307 0.010888 0.015475
v 0.133307 -0.018204 -0.056161
v 0.165463 -0.041458 -0.028448
v 0.165463 -0.087966 0.026977
v 0.133307 -0.035619 0.070901
v 0.068993 0.010888 0.015475
v 0.068993 -0.018204 -0.056161
v 0.036836 -0.041458 -0.028448
v 0.068993 -0.035619 0.070901
v 0.133307 -0.122897 -0.144009
v 0.165463 -0.146151 -0.116296
v 0.068993 -0.122897 -0.144009
v 0.165463 -0.192658 -0.060870
v 0.036836 -0.087966 0.026977
v 0.036836 -0.146151 -0.116296
v 0.036836 -0.192658 -0.060870
v 0.133307 -0.111219 0.054690
v 0.068993 -0.111219 0.054690
v 0.133307 -0.215912 -0.033158
v 0.068993 -0.215912 -0.033158
v 0.133307 -0.198497 -0.160220
v 0.133307 -0.245004 -0.104794
v 0.068993 -0.198497 -0.160220
v 0.068993 -0.245004 -0.104794
vn 0.9694 -0.1087 0.2202
vn 0.9602 0.2006 0.1946
vn 0.6744 0.2275 0.7024
vn 0.7113 -0.1090 0.6944
vn 0.2179 0.2764 0.9360
vn 0.2276 -0.1051 0.9681
vn -0.1413 0.2835 0.9485
vn -0.1431 -0.1033 0.9843
vn -0.2854 0.3008 0.9100
vn -0.2677 -0.0482 0.9623
vn 0.6866 0.7182 0.1132
vn 0.6559 0.6172 0.4345
vn 0.2149 0.9615 0.1712
vn 0.2047 0.7642 0.6116
vn -0.1660 0.7837 0.5985
vn -0.2087 0.9645 0.1618
vn -0.3349 0.7557 0.5628
vn -0.4143 0.8999 0.1360
vn -0.1175 -0.1671 0.9789
vn 0.2367 -0.2121 0.9481
vn 0.6865 -0.2211 0.6927
vn 0.9479 -0.2196 0.2307
vn -0.1414 0.0101 0.9899
vn 0.7113 -0.1090 -0.6944
vn 0.6744 0.2275 -0.7024
vn 0.9602 0.2006 -0.1946
vn 0.9694 -0.1087 -0.2202
vn 0.2276 -0.1051 -0.9681
vn 0.2179 0.2764 -0.9360
vn -0.1431 -0.1033 -0.9843
vn -0.1413 0.2836 -0.9485
vn -0.2677 -0.0482 -0.9623
vn -0.2854 0.3008 -0.9100
vn 0.6559 0.6172 -0.4345
vn 0.6866 0.7182 -0.1132
vn 0.2047 0.7642 -0.6116
vn 0.2149 0.9615 -0.1712
vn -0.1660 0.7837 -0.5985
vn -0.2087 0.9645 -0.1618
vn -0.3349 0.7557 -0.5628
vn -0.4143 0.8999 -0.1359
vn 0.2367 -0.2121 -0.9481
vn -0.1175 -0.1671 -0.9789
vn 0.6865 -0.2211 -0.6927
vn 0.9479 -0.2196 -0.2307
vn -0.1414 0.0101 -0.9899
vn -0.7075 0.7041 0.0612
vn -0.7267 0.6863 0.0294
vn -0.7260 0.6871 0.0306
vn 0.2371 0.1351 0.9620
vn -0.1611 0.0835 0.9834
vn -0.1582 0.0842 0.9838
vn 0.2287 0.1348 0.9641
vn 0.6890 0.1724 0.7040
vn 0.6894 0.1724 0.7036
vn 0.9429 0.2224 0.2480
vn 0.9469 0.2244 0.2304
vn -0.3610 -0.0337 0.9319
vn -0.5558 -0.0315 0.8307
vn -0.4597 0.1273 0.8789
vn -0.7050 -0.0877 0.7038
vn -0.6681 -0.1277 0.7330
vn -0.7093 -0.1092 0.6964
vn -0.7093 -0.1092 -0.6964
vn -0.6538 0.2478 -0.7150
vn -0.6701 0.1910 -0.7173
vn -0.6681 -0.1277 -0.7330
vn 0.6894 0.1724 -0.7036
vn 0.2287 0.1348 -0.9641
vn 0.2371 0.1351 -0.9620
vn 0.6890 0.1724 -0.7040
vn 0.9469 0.2244 -0.2304
vn 0.9429 0.2224 -0.2480
vn -0.4597 0.1273 -0.8789
vn -0.5558 -0.0315 -0.8307
vn -0.3610 -0.0337 -0.9319
vn -0.1611 0.0835 -0.9834
vn -0.1582 0.0842 -0.9838
vn -0.7050 -0.0877 -0.7038
vn -0.7260 0.6871 -0.0306
vn -0.7267 0.6863 -0.0294
vn -0.6701 0.1910 0.7173
vn -0.6538 0.2478 0.7150
vn -0.5776 0.4414 0.6866
vn -0.7075 0.7041 -0.0612
vn -0.5776 0.4414 -0.6866
vn 0.8137 0.5812 -0.0000
vn -1.0000 -0.0000 -0.0000
vn -0.0000 -1.0000 -0.0000
vn -0.0000 1.0000 -0.0000
vn -0.0000 -0.0000 1.0000
vn 0.6585 0.7526 -0.0000
vn 1.0000 -0.0000 -0.0000
vn -0.6585 0.7526 -0.0000
vn 0.1913 0.5995 -0.7772
vn 0.5478 0.2034 -0.8115
vn 0.2682 0.2982 -0.9161
vn -0.2682 0.2982 -0.9161
vn -0.1913 0.5995 -0.7772
vn -0.5478 0.2034 -0.8115
vn -0.2682 -0.2982 -0.9161
vn -0.5478 -0.2034 -0.8115
vn 0.5478 -0.2034 -0.8115
vn 0.2682 -0.2982 -0.9161
vn -0.0000 0.9979 0.0651
vn -0.0000 0.9921 0.1253
vn 0.9897 -0.0000 0.1431
vn 0.9972 -0.0000 0.0744
vn -0.9972 -0.0000 0.0744
vn -0.9897 -0.0000 0.1431
vn 0.6516 0.7447 0.1439
vn 0.6518 0.7449 0.1427
vn 0.6553 0.7490 0.0978
vn -0.6518 0.7449 0.1427
vn -0.6517 0.7447 0.1439
vn -0.6554 0.7490 0.0978
vn -0.6463 0.7386 0.1915
vn 0.6463 0.7386 0.1915
vn -0.0000 0.9816 0.1909
vn -0.9762 -0.0000 0.2169
vn 0.9762 -0.0000 0.2169
vn -0.3015 0.1385 0.9434
vn -0.1086 0.3298 0.9378
vn -0.2052 0.5095 0.8357
vn -0.4697 0.2118 0.8570
vn 0.4697 0.2118 0.8570
vn 0.2052 0.5095 0.8357
vn 0.1086 0.3298 0.9378
vn 0.3015 0.1385 0.9434
vn 0.4697 -0.2118 0.8570
vn 0.3015 -0.1385 0.9434
vn -0.3015 -0.1385 0.9434
vn -0.4697 -0.2118 0.8570
vn 0.6585 -0.7526 -0.0000
vn -0.6585 -0.7526 -0.0000
vn 0.1913 -0.5995 -0.7772
vn -0.1913 -0.5995 -0.7772
vn -0.0000 -0.9921 0.1253
vn -0.0000 -0.9979 0.0651
vn 0.6554 -0.7490 0.0978
vn 0.6518 -0.7449 0.1427
vn 0.6517 -0.7447 0.1439
vn -0.6554 -0.7490 0.0978
vn -0.6517 -0.7447 0.1439
vn -0.6518 -0.7449 0.1427
vn -0.6463 -0.7386 0.1915
vn 0.6463 -0.7386 0.1915
vn -0.0000 -0.9816 0.1909
vn -0.2052 -0.5095 0.8357
vn -0.1086 -0.3298 0.9378
vn 0.1086 -0.3298 0.9378
vn 0.2052 -0.5095 0.8357
vn 0.9208 0.3680 -0.1293
vn 0.7393 0.5348 -0.4092
vn 0.8881 0.4430 0.1222
vn 0.8881 0.1973 0.4151
vn 0.9208 -0.0634 0.3849
vn -0.0000 0.9265 -0.3763
vn -0.0000 0.8085 -0.5885
vn -0.8881 0.4430 0.1222
vn -0.7393 0.5348 -0.4092
vn -0.9208 0.3680 -0.1293
vn -0.0000 0.7660 0.6428
vn 0.9208 0.0634 -0.3849
vn 0.7393 0.3101 -0.5977
vn -0.0000 0.4392 -0.8984
vn 0.9208 -0.3680 0.1293
vn -0.9208 -0.0634 0.3849
vn -0.8881 0.1973 0.4151
vn -0.7393 0.3101 -0.5977
vn -0.9208 0.0634 -0.3849
vn -0.9208 -0.3680 0.1293
vn 0.7393 -0.3101 0.5977
vn -0.0000 -0.2097 0.9778
vn -0.0000 -0.4392 0.8984
vn -0.7393 -0.3101 0.5977
vn 0.7393 -0.5348 0.4092
vn -0.0000 -0.8085 0.5885
vn -0.7393 -0.5348 0.4092
vn 0.8881 -0.1973 -0.4151
vn 0.8881 -0.4430 -0.1222
vn -0.0000 0.2097 -0.9778
vn -0.8881 -0.1973 -0.4151
vn -0.0000 -0.7660 -0.6428
vn -0.8881 -0.4430 -0.1222
vn -0.0000 -0.9265 0.3763
vt 0.621292 1.000000
vt 0.877835 0.856850
vt 1.000000 0.570552
vt 1.000000 0.286298
vt 0.926701 0.000000
vt 0.621292 0.856850
vt 0.719022 0.856850
vt 0.621292 0.570552
vt 0.804538 0.570552
vt 0.804538 0.286298
vt 0.621292 0.286298
vt 0.767888 0.000000
vt 0.621292 0.000000
vt 0.963352 0.286298
vt 0.963352 0.570552
vt 0.853402 0.813906
vt 0.621292 0.957054
vt 0.945898 0.143150
vt 0.122165 0.856850
vt 0.378708 1.000000
vt 0.000000 0.570552
vt 0.000000 0.286298
vt 0.073299 0.000000
vt 0.280978 0.856850
vt 0.378708 0.856850
vt 0.195462 0.570552
vt 0.378708 0.570552
vt 0.195462 0.286298
vt 0.378708 0.286298
vt 0.232112 0.000000
vt 0.378708 0.000000
vt 0.036648 0.570552
vt 0.036648 0.286298
vt 0.146598 0.813906
vt 0.378708 0.957054
vt 0.054102 0.143150
vt 0.781651 0.115596
vt 0.627524 0.115596
vt 0.627524 0.000000
vt 0.768808 0.000000
vt 0.987157 0.627524
vt 0.987157 0.372476
vt 1.000000 0.372476
vt 1.000000 0.627524
vt 0.871559 0.845873
vt 0.884404 0.858716
vt 0.627524 0.974312
vt 0.627524 1.000000
vt 0.968807 0.244037
vt 0.897247 0.115596
vt 0.910092 0.089908
vt 0.794496 0.012845
vt 0.948623 0.115596
vt 0.833027 0.000000
vt 0.166973 0.000000
vt 0.051377 0.115596
vt 0.115596 0.858716
vt 0.000000 0.627524
vt 0.012843 0.627524
vt 0.128441 0.845873
vt 0.372476 1.000000
vt 0.372476 0.974312
vt 0.089908 0.089908
vt 0.102753 0.115596
vt 0.031193 0.244037
vt 0.012843 0.372476
vt 0.000000 0.372476
vt 0.205504 0.012845
vt 0.372476 0.000000
vt 0.372476 0.115596
vt 0.218349 0.115596
vt 0.231192 0.000000
vt 0.018834 0.000000
vt 0.000000 0.175878
vt 0.000000 0.525127
vt 0.118646 0.824122
vt 0.369114 1.000000
vt 0.630886 1.000000
vt 0.881354 0.824122
vt 1.000000 0.525127
vt 1.000000 0.175878
vt 0.981166 0.000000
vt 0.593221 0.874608
vt 0.932204 0.874608
vt 0.932204 0.125392
vt 0.593221 0.125392
vt 0.593221 0.000000
vt 0.593221 1.000000
vt 0.932204 1.000000
vt 0.932204 0.000000
vt 1.000000 0.874608
vt 1.000000 0.125392
vt 0.593221 0.799374
vt 0.593221 0.200626
vt 0.323918 0.225707
vt 0.323918 0.774293
vt 0.323918 0.924766
vt 0.593221 0.949842
vt 0.593221 0.050158
vt 0.323918 0.075234
vt 0.052731 0.150473
vt 0.052731 0.250784
vt 0.052731 0.749216
vt 0.052731 0.849527
vt 0.000000 0.250784
vt 0.000000 0.300941
vt 0.000000 0.699059
vt 0.000000 0.749216
vt 1.000000 0.750000
vt 0.750000 0.750000
vt 0.750000 1.000000
vt 0.250000 0.750000
vt 0.250000 1.000000
vt 0.000000 0.750000
vt 1.000000 0.250000
vt 0.750000 0.250000
vt 0.250000 0.250000
vt 0.000000 0.250000
vt 0.750000 0.000000
vt 0.250000 0.000000
s 1
usemtl Robot_Blue
f 4/1/1 3/1/2 2/2/3 1/2/4
f 1/2/4 2/2/3 6/3/5 5/3/6
f 5/3/6 6/3/5 8/4/7 7/4/8
f 7/4/8 8/4/7 10/5/9 9/5/10
f 3/1/2 12/6/11 11/7/12
f 2/2/3 3/1/2 11/7/12
f 11/7/12 12/6/11 14/8/13 13/9/14
f 6/3/5 2/2/3 11/7/12 13/9/14
f 8/4/7 6/3/5 13/9/14 15/10/15
f 15/10/15 13/9/14 14/8/13 16/11/16
f 10/5/9 8/4/7 15/10/15 17/12/17
f 17/12/17 15/10/15 16/11/16 18/13/18
f 5/3/6 7/4/8 20/14/19 19/15/20
f 1/2/4 5/3/6 19/15/20 21/16/21
f 22/17/22 4/1/1 1/2/4 21/16/21
f 20/14/19 9/5/10 23/18/23
f 20/14/19 7/4/8 9/5/10
f 27/19/24 26/19/25 25/20/26 24/20/27
f 29/21/28 28/21/29 26/19/25 27/19/24
f 31/22/30 30/22/31 28/21/29 29/21/28
f 33/23/32 32/23/33 30/22/31 31/22/30
f 35/24/34 34/25/35 25/20/26
f 35/24/34 25/20/26 26/19/25
f 37/26/36 36/27/37 34/25/35 35/24/34
f 37/26/36 35/24/34 26/19/25 28/21/29
f 38/28/38 37/26/36 28/21/29 30/22/31
f 39/29/39 36/27/37 37/26/36 38/28/38
f 40/30/40 38/28/38 30/22/31 32/23/33
f 41/31/41 39/29/39 38/28/38 40/30/40
f 43/32/42 42/33/43 31/22/30 29/21/28
f 44/34/44 43/32/42 29/21/28 27/19/24
f 44/34/44 27/19/24 24/20/27 45/35/45
f 46/36/46 33/23/32 42/33/43
f 33/23/32 31/22/30 42/33/43
f 39/29/39 41/31/41 18/13/18 16/11/16
f 16/11/16 14/8/13 36/27/37 39/29/39
f 14/8/13 12/6/11 34/25/35 36/27/37
f 12/6/11 3/1/2 25/20/26 34/25/35
f 3/1/2 4/1/1 24/20/27 25/20/26
f 4/1/1 22/17/22 45/35/45 24/20/27
usemtl Robot_White
f 54/37/47 53/38/48 52/39/49 51/40/47
f 58/41/50 57/42/51 56/43/52 55/44/53
f 60/45/54 58/41/50 55/44/53 59/46/55
f 62/47/56 60/45/54 59/46/55 61/48/57
f 56/43/52 57/42/51 65/49/58 64/50/59 63/51/60
f 63/51/60 64/50/59 66/52/61
f 66/52/61 64/50/59 50/53/62 47/54/63
f 50/53/62 64/50/59 65/49/58
f 70/55/64 69/55/65 68/56/66 67/56/67
f 80/57/68 78/58/69 75/59/70 79/60/71
f 82/61/72 80/57/68 79/60/71 81/62/73
f 85/63/74 84/64/75 83/65/76 76/66/77 77/67/78
f 86/68/79 84/64/75 85/63/74
f 70/55/64 67/56/67 84/64/75 86/68/79
f 73/69/80 52/39/49 53/38/48 72/70/81
f 62/47/56 61/48/57 82/61/72 81/62/73
f 47/54/63 50/53/62 49/53/82 48/54/83
f 54/37/84 51/40/84 48/54/83 49/53/82
f 71/71/85 74/72/85 73/69/80 72/70/81
f 74/72/86 71/71/86 68/56/66 69/55/65
f 75/59/70 78/58/69 77/67/78 76/66/77
f 67/56/67 83/65/76 84/64/75
f 67/56/87 50/53/87 65/49/87 83/65/87
f 151/109/153 150/110/154 149/111/155
f 153/111/156 152/109/157 151/109/153 149/111/155
f 149/111/158 150/110/159 155/112/159 154/113/158
f 154/113/160 155/112/161 156/114/162
f 157/113/163 153/111/163 149/111/163 154/113/163
f 150/110/154 151/109/153 159/115/164 158/116/165
f 160/117/166 155/112/159 150/110/159 158/116/166
f 159/115/164 151/109/153 152/109/157 161/115/167
f 154/113/160 156/114/162 162/114/168 157/113/169
f 160/117/170 163/118/171 156/114/162 155/112/161
f 164/118/172 162/114/168 156/114/162 163/118/171
f 153/111/156 165/110/173 152/109/157
f 157/113/174 166/112/175 165/110/175 153/111/174
f 162/114/168 166/112/176 157/113/169
f 167/116/177 161/115/167 152/109/157 165/110/173
f 167/116/178 165/110/175 166/112/175 168/117/178
f 166/112/176 162/114/168 164/118/172 168/117/179
f 169/119/180 158/116/165 159/115/164
f 169/119/180 159/115/164 161/115/167 170/119/181
f 171/120/182 160/117/166 158/116/166 169/119/182
f 163/118/171 160/117/170 171/120/183
f 171/120/184 169/119/184 170/119/184 172/120/184
f 172/120/185 164/118/172 163/118/171 171/120/183
f 161/115/167 167/116/177 170/119/181
f 170/119/186 167/116/178 168/117/178 172/120/186
f 172/120/185 168/117/179 164/118/172
usemtl Robot_Black
f 49/53/88 54/37/88 53/38/88 72/70/88 71/71/88 68/56/88 67/56/88 50/53/88
f 96/73/89 95/74/89 94/75/89 93/76/89 92/77/89 91/78/89 90/79/89 89/80/89 88/81/89 87/82/89
usemtl Robot_White
f 100/83/90 99/84/90 98/85/90 97/86/90
f 106/87/91 105/87/91 104/86/91 103/83/91 102/88/91 101/88/91 100/83/91 97/86/91
f 101/88/92 107/89/92 99/84/92 100/83/92
f 101/88/93 102/88/93 108/89/93 107/89/93
f 106/87/94 97/86/94 98/85/94 109/90/94
f 110/90/88 105/87/88 106/87/88 109/90/88
f 99/84/95 107/89/96 111/91/97
f 112/92/98 98/85/99 99/84/95 111/91/97
f 109/90/100 98/85/99 112/92/98
f 113/92/101 110/90/102 109/90/100 112/92/98
f 107/89/96 108/89/103 114/91/104 111/91/97
f 113/92/101 112/92/98 111/91/97 114/91/104
f 118/93/105 117/94/105 116/95/106 115/96/106
f 122/97/107 121/97/107 120/98/108 119/98/108
f 126/99/109 125/99/109 124/100/110 123/100/110
f 115/96/111 122/97/112 119/98/113 118/93/113
f 123/100/114 116/95/115 117/94/116 126/99/116
f 116/95/115 123/100/114 128/101/117 127/102/117
f 130/103/118 129/104/118 122/97/112 115/96/111
f 127/102/119 130/103/119 115/96/106 116/95/106
f 128/101/120 123/100/110 124/100/110 131/101/120
f 132/104/121 121/97/107 122/97/107 129/104/121
f 134/105/122 133/106/123 127/102/124 128/101/125
f 129/104/126 130/103/127 136/107/128 135/108/129
f 133/106/123 136/107/128 130/103/127 127/102/124
f 132/104/130 129/104/126 135/108/129 137/108/131
f 138/105/132 134/105/122 128/101/125 131/101/133
f 104/86/89 140/85/89 139/84/89 103/83/89
f 103/83/134 139/84/134 108/89/134 102/88/134
f 110/90/135 140/85/135 104/86/135 105/87/135
f 114/91/104 108/89/103 139/84/136
f 114/91/104 139/84/136 140/85/137 113/92/101
f 113/92/101 140/85/137 110/90/102
f 144/96/138 143/95/138 142/94/139 141/93/139
f 141/93/140 120/98/140 121/97/141 144/96/142
f 125/99/143 142/94/143 143/95/144 124/100/145
f 145/102/146 131/101/146 124/100/145 143/95/144
f 144/96/142 121/97/141 132/104/147 146/103/147
f 143/95/138 144/96/138 146/103/148 145/102/148
f 131/101/133 145/102/149 147/106/150 138/105/132
f 137/108/131 148/107/151 146/103/152 132/104/130
f 145/102/149 146/103/152 148/107/151 147/106/150
f 138/105/132 147/106/150 148/107/151 137/108/131 135/108/129 136/107/128 133/106/123 134/105/122
