# Blender 5.0.1
# www.blender.org
mtllib Body.mtl
o Body
v -0.080616 0.433276 -0.052699
v 0.080169 0.433276 -0.052699
v 0.048012 0.422021 -0.158816
v -0.048459 0.422021 -0.158816
v 0.064091 0.331981 -0.182935
v 0.044796 0.331981 -0.274582
v -0.045243 0.331981 -0.274582
v 0.035953 0.219433 -0.245641
v -0.036400 0.219433 -0.245641
v 0.055649 0.247570 -0.168464
v 0.058463 0.219433 -0.052699
v 0.031934 0.163157 -0.100934
v -0.032380 0.163157 -0.100934
v 0.188699 0.416394 -0.023758
v 0.160561 0.331981 -0.139522
v 0.203571 0.315100 -0.023758
v 0.172620 0.286962 -0.124087
v 0.179052 0.264452 -0.023758
v 0.188699 0.416394 0.019654
v 0.080169 0.433276 0.043772
v 0.203571 0.315100 0.019654
v 0.179052 0.264452 0.019654
v 0.058463 0.219433 0.043772
v 0.031934 0.163158 0.043772
v -0.032380 0.163158 0.043772
v -0.080616 0.433276 0.043772
v 0.039973 0.429337 0.116125
v 0.064091 0.410204 0.212596
v 0.160561 0.399511 0.164360
v -0.040419 0.429337 0.116125
v -0.028361 0.253197 0.178831
v 0.027914 0.253197 0.178831
v 0.052836 0.303844 0.236714
v 0.169405 0.331981 0.169184
v -0.064537 0.331981 -0.182935
v -0.056096 0.247570 -0.168464
v -0.058910 0.219433 -0.052699
v -0.161008 0.331981 -0.139522
v -0.189145 0.416394 -0.023758
v -0.173067 0.286962 -0.124087
v -0.204018 0.315100 -0.023758
v -0.179498 0.264452 -0.023758
v -0.189145 0.416394 0.019654
v -0.204018 0.315100 0.019654
v -0.179498 0.264452 0.019654
v -0.058910 0.219433 0.043772
v -0.161008 0.399511 0.164360
v -0.064537 0.410204 0.212596
v -0.053282 0.303844 0.236714
v -0.169851 0.331981 0.169184
v 0.039973 0.204158 0.101654
v -0.040419 0.204158 0.101654
v -0.032380 0.146275 0.085737
v 0.031934 0.146275 0.085737
v 0.084189 0.146275 0.040878
v 0.108306 0.204158 0.043289
v 0.084189 0.146275 -0.041122
v 0.108306 0.204158 -0.057040
v 0.033943 0.131804 -0.099487
v 0.048012 0.184864 -0.126017
v -0.034390 0.131804 -0.099487
v -0.048459 0.184864 -0.126017
v 0.031934 0.083569 -0.078263
v -0.032380 0.083569 -0.078263
v 0.072130 0.098040 -0.032922
v 0.072130 0.098040 0.037984
v 0.028718 0.098040 0.075125
v -0.029164 0.098040 0.075125
v 0.035953 0.049804 -0.094181
v -0.036400 0.049804 -0.094181
v 0.096248 0.049804 -0.038228
v 0.096248 0.049804 0.037984
v 0.046404 0.049804 0.080431
v -0.046851 0.049804 0.080431
v -0.108753 0.204158 0.043289
v -0.084635 0.146275 0.040878
v -0.108753 0.204158 -0.057040
v -0.084635 0.146275 -0.041122
v -0.072576 0.098040 -0.032922
v -0.072576 0.098040 0.037984
v -0.096694 0.049804 -0.038228
v -0.096694 0.049804 0.037984
v 0.007816 0.083569 -0.078263
v -0.008262 0.083569 -0.078263
v -0.008262 0.098040 -0.110099
v 0.007816 0.098040 -0.110099
v -0.012282 0.175216 -0.157852
v 0.011836 0.175216 -0.157852
v 0.015855 0.131804 -0.099487
v 0.019875 0.184864 -0.126017
v -0.016302 0.131804 -0.099487
v -0.020321 0.184864 -0.126017
v -0.048459 0.204158 -0.126017
v 0.048012 0.204158 -0.126017
v -0.012282 0.204158 -0.126017
v 0.011836 0.204158 -0.126017
v 0.031934 0.001569 -0.057040
v -0.032380 0.001569 -0.057040
v -0.077802 0.001569 -0.014593
v -0.077802 0.001569 0.027372
v -0.040419 0.001569 0.059207
v 0.039973 0.001569 0.059207
v 0.077355 0.001569 -0.014593
v 0.077355 0.001569 0.027372
v -0.040419 0.242746 -0.078263
v 0.039973 0.242746 -0.078263
v 0.076953 0.242746 -0.035817
v 0.076953 0.242746 0.032678
v 0.027110 0.242746 0.075125
v -0.027557 0.242746 0.075125
v -0.077400 0.242746 -0.035816
v -0.077400 0.242746 0.032678
v 0.172620 0.286962 -0.124087
v 0.055649 0.247570 -0.168464
v 0.064091 0.331981 -0.182935
v 0.160561 0.331981 -0.139522
v 0.169405 0.331981 0.169184
v 0.160561 0.399511 0.164360
v 0.064091 0.410204 0.212596
v 0.052836 0.303844 0.236714
v -0.161008 0.331981 -0.139522
v -0.064537 0.331981 -0.182935
v -0.056096 0.247570 -0.168464
v -0.173067 0.286962 -0.124087
v -0.053282 0.303844 0.236714
v -0.064537 0.410204 0.212596
v -0.161008 0.399511 0.164360
v -0.169851 0.331981 0.169184
vn -0.0000 0.9944 -0.1055
vn 0.9370 0.2362 -0.2572
vn -0.0000 0.7894 -0.6139
vn -0.0000 -0.2490 -0.9685
vn 0.9706 -0.1298 -0.2025
vn 0.9310 -0.3485 -0.1086
vn -0.0000 -0.9320 -0.3624
vn 0.2765 0.7425 -0.6102
vn 0.9349 0.1376 -0.3273
vn 0.3874 -0.8938 -0.2261
vn 0.8894 -0.4306 -0.1536
vn 0.1537 0.9881 -0.0000
vn 0.9894 0.1453 -0.0000
vn 0.9001 -0.4357 -0.0000
vn 0.3498 -0.9368 -0.0000
vn 0.9045 -0.4264 -0.0000
vn -0.0000 -1.0000 -0.0000
vn -0.0000 1.0000 -0.0000
vn 0.1820 0.9718 0.1497
vn -0.0000 0.9985 0.0544
vn -0.0000 0.3354 0.9421
vn -0.9496 0.1610 0.2688
vn 0.9684 0.1419 0.2051
vn 0.4048 -0.8290 0.3858
vn 0.8722 -0.4222 0.2470
vn 0.8637 -0.4072 0.2971
vn 0.6533 -0.6865 0.3194
vn -0.9370 0.2362 -0.2572
vn -0.9706 -0.1298 -0.2025
vn -0.9310 -0.3485 -0.1086
vn -0.2765 0.7425 -0.6102
vn -0.9349 0.1376 -0.3273
vn -0.3874 -0.8938 -0.2261
vn -0.8894 -0.4306 -0.1536
vn -0.1537 0.9881 -0.0000
vn -0.9894 0.1453 -0.0000
vn -0.9001 -0.4357 -0.0000
vn -0.3498 -0.9368 -0.0000
vn -0.9045 -0.4264 -0.0000
vn -0.1820 0.9718 0.1497
vn 0.9496 0.1610 0.2688
vn -0.9684 0.1419 0.2051
vn -0.4048 -0.8290 0.3858
vn -0.8722 -0.4222 0.2470
vn -0.8637 -0.4072 0.2971
vn -0.6533 -0.6865 0.3194
vn -0.0000 -0.8321 0.5547
vn -0.0000 -0.2652 0.9642
vn 0.6227 -0.2881 0.7275
vn 0.9231 -0.3846 -0.0000
vn 0.7304 -0.4485 -0.5151
vn -0.0000 -0.4472 -0.8944
vn -0.0000 -0.4027 -0.9153
vn 0.7601 -0.2885 -0.5823
vn 0.9701 -0.2425 -0.0000
vn 0.6370 -0.2049 0.7431
vn -0.0000 -0.2149 0.9766
vn -0.0000 0.4264 -0.9045
vn 0.6254 0.3896 -0.6761
vn 0.8944 0.4472 -0.0000
vn 0.6177 0.3075 0.7238
vn -0.0000 0.1093 0.9940
vn -0.6227 -0.2881 0.7275
vn -0.9231 -0.3846 -0.0000
vn -0.7304 -0.4485 -0.5151
vn -0.7601 -0.2885 -0.5823
vn -0.9701 -0.2425 -0.0000
vn -0.6370 -0.2049 0.7431
vn -0.6254 0.3896 -0.6761
vn -0.8944 0.4472 -0.0000
vn -0.6177 0.3075 0.7238
vn -0.0000 -0.9104 -0.4138
vn -0.0000 -0.5262 -0.8504
vn 0.9748 -0.2031 -0.0923
vn 0.9665 -0.1696 -0.1927
vn -0.9748 -0.2031 -0.0923
vn -0.9665 -0.1696 -0.1927
vn -0.7529 -0.0000 -0.6581
vn -0.0000 -0.0000 -1.0000
vn 0.7529 -0.0000 -0.6581
vn -0.8714 0.3631 -0.3301
vn 0.8714 0.3631 -0.3301
vn -0.0000 0.7399 -0.6727
vn -0.0000 -0.6101 -0.7923
vn -0.5783 -0.5288 -0.6213
vn -0.9311 -0.3647 -0.0000
vn -0.5975 -0.3884 0.7016
vn -0.0000 -0.4027 0.9153
vn 0.5783 -0.5288 -0.6213
vn 0.9311 -0.3647 -0.0000
vn 0.5975 -0.3884 0.7016
vn -0.0000 0.7778 -0.6285
vn 0.5401 0.6971 -0.4715
vn 0.7761 0.6306 -0.0000
vn 0.5222 0.5938 0.6122
vn -0.0000 0.5665 0.8240
vn -0.5401 0.6971 -0.4715
vn -0.7761 0.6306 -0.0000
vn -0.5222 0.5938 0.6122
vn 0.4037 -0.1952 -0.8938
vn 0.4640 0.1392 0.8748
vn -0.4037 -0.1952 -0.8938
vn -0.4640 0.1392 0.8748
vt 0.566038 0.697239
vt 0.566038 0.302761
vt 0.773584 0.381657
vt 0.773584 0.618343
vt 0.820755 0.342209
vt 1.000000 0.389547
vt 1.000000 0.610453
vt 0.943397 0.411243
vt 0.943397 0.588757
vt 0.792453 0.362920
vt 0.566038 0.356016
vt 0.660378 0.421104
vt 0.660378 0.578896
vt 0.509434 0.036489
vt 0.735849 0.105523
vt 0.509434 0.000000
vt 0.705661 0.075937
vt 0.509434 0.060157
vt 0.424529 0.036489
vt 0.377359 0.302761
vt 0.424529 0.000000
vt 0.424529 0.060157
vt 0.377359 0.356016
vt 0.377359 0.421104
vt 0.377359 0.578896
vt 0.377359 0.697239
vt 0.235849 0.401381
vt 0.047171 0.342209
vt 0.141510 0.105523
vt 0.235849 0.598619
vt 0.113208 0.569034
vt 0.113208 0.430966
vt 0.000000 0.369822
vt 0.132076 0.083826
vt 0.820755 0.657791
vt 0.792453 0.637080
vt 0.566038 0.643984
vt 0.735849 0.894477
vt 0.509434 0.963511
vt 0.705661 0.924063
vt 0.509434 1.000000
vt 0.509434 0.939843
vt 0.424529 0.963511
vt 0.424529 1.000000
vt 0.424529 0.939843
vt 0.377359 0.643984
vt 0.141510 0.894477
vt 0.047171 0.657791
vt 0.000000 0.630178
vt 0.132076 0.916174
vt 0.314815 0.000000
vt 0.685185 0.000000
vt 0.648149 0.061337
vt 0.351851 0.061337
vt 0.111110 0.234200
vt 0.000000 0.224908
vt 0.111110 0.550185
vt 0.000000 0.611524
vt 0.342593 0.775092
vt 0.277777 0.877323
vt 0.657407 0.775092
vt 0.722223 0.877323
vt 0.351851 0.693307
vt 0.648149 0.693307
vt 0.166667 0.518586
vt 0.166667 0.245353
vt 0.366668 0.102231
vt 0.633332 0.102231
vt 0.333333 0.754647
vt 0.666667 0.754647
vt 0.055554 0.539034
vt 0.055554 0.245353
vt 0.285185 0.081785
vt 0.714815 0.081785
vt 1.000000 0.224908
vt 0.888890 0.234200
vt 1.000000 0.611524
vt 0.888890 0.550185
vt 0.833333 0.518586
vt 0.833333 0.245353
vt 0.944446 0.539034
vt 0.944446 0.245353
vt 0.462964 0.693307
vt 0.537036 0.693307
vt 0.537036 0.815984
vt 0.462964 0.815984
vt 0.555556 1.000000
vt 0.444444 1.000000
vt 0.425926 0.775092
vt 0.407408 0.877323
vt 0.574074 0.775092
vt 0.592592 0.877323
vt 0.555556 0.877323
vt 0.444444 0.877323
vt 0.351851 0.611524
vt 0.648149 0.611524
vt 0.857407 0.447954
vt 0.857407 0.286245
vt 0.685185 0.163568
vt 0.314815 0.163568
vt 0.142593 0.447954
vt 0.142593 0.286245
vt 0.685185 0.693307
vt 0.314815 0.693307
vt 0.144445 0.529739
vt 0.144445 0.265799
vt 0.374073 0.102231
vt 0.625927 0.102231
vt 0.855555 0.529739
vt 0.855555 0.265799
vt 0.859770 0.000000
vt 0.965517 0.338373
vt 1.000000 0.313953
vt 0.896551 0.034884
vt 0.160920 0.009302
vt 0.172414 0.034884
vt 0.057472 0.313953
vt 0.000000 0.346511
vt 0.896551 0.965116
vt 1.000000 0.686047
vt 0.965517 0.661627
vt 0.859770 1.000000
vt 0.000000 0.653489
vt 0.057472 0.686047
vt 0.172414 0.965116
vt 0.160920 0.990698
s 0
usemtl Robot_Blue
f 1/1/1 2/2/1 3/3/1 4/4/1
f 3/3/2 2/2/2 5/5/2 6/6/2
f 6/6/3 7/7/3 4/4/3 3/3/3
f 7/7/4 6/6/4 8/8/4 9/9/4
f 8/8/5 6/6/5 5/5/5 10/10/5
f 11/11/6 12/12/6 8/8/6 10/10/6
f 9/9/7 8/8/7 12/12/7 13/13/7
f 14/14/8 15/15/8 5/5/8 2/2/8
f 16/16/9 17/17/9 15/15/9 14/14/9
f 11/11/10 10/10/10 17/17/10 18/18/10
f 17/17/11 16/16/11 18/18/11
f 19/19/12 14/14/12 2/2/12 20/20/12
f 21/21/13 16/16/13 14/14/13 19/19/13
f 22/22/14 18/18/14 16/16/14 21/21/14
f 23/23/15 11/11/15 18/18/15 22/22/15
f 24/24/16 12/12/16 11/11/16 23/23/16
f 25/25/17 13/13/17 12/12/17 24/24/17
f 20/20/18 2/2/18 1/1/18 26/26/18
f 27/27/19 28/28/19 29/29/19 19/19/19 20/20/19
f 20/20/20 26/26/20 30/30/20 27/27/20
f 27/27/21 30/30/21 31/31/21 32/32/21
f 33/33/22 28/28/22 27/27/22 32/32/22
f 34/34/23 21/21/23 19/19/23 29/29/23
f 22/22/24 34/34/24 33/33/24 23/23/24
f 22/22/25 21/21/25 34/34/25
f 32/32/26 24/24/26 23/23/26
f 33/33/27 32/32/27 23/23/27
f 7/7/28 35/35/28 1/1/28 4/4/28
f 36/36/29 35/35/29 7/7/29 9/9/29
f 36/36/30 9/9/30 13/13/30 37/37/30
f 1/1/31 35/35/31 38/38/31 39/39/31
f 39/39/32 38/38/32 40/40/32 41/41/32
f 42/42/33 40/40/33 36/36/33 37/37/33
f 42/42/34 41/41/34 40/40/34
f 26/26/35 1/1/35 39/39/35 43/43/35
f 43/43/36 39/39/36 41/41/36 44/44/36
f 44/44/37 41/41/37 42/42/37 45/45/37
f 45/45/38 42/42/38 37/37/38 46/46/38
f 46/46/39 37/37/39 13/13/39 25/25/39
f 26/26/40 43/43/40 47/47/40 48/48/40 30/30/40
f 31/31/41 30/30/41 48/48/41 49/49/41
f 47/47/42 43/43/42 44/44/42 50/50/42
f 46/46/43 49/49/43 50/50/43 45/45/43
f 50/50/44 44/44/44 45/45/44
f 46/46/45 25/25/45 31/31/45
f 46/46/46 31/31/46 49/49/46
f 25/25/47 24/24/47 32/32/47 31/31/47
usemtl Robot_White
f 51/51/48 52/52/48 53/53/48 54/54/48
f 55/55/49 56/56/49 51/51/49 54/54/49
f 57/57/50 58/58/50 56/56/50 55/55/50
f 59/59/51 60/60/51 58/58/51 57/57/51
f 59/59/52 61/61/52 62/62/52 60/60/52
f 61/61/53 59/59/53 63/63/53 64/64/53
f 63/63/54 59/59/54 57/57/54 65/65/54
f 65/65/55 57/57/55 55/55/55 66/66/55
f 66/66/56 55/55/56 54/54/56 67/67/56
f 67/67/57 54/54/57 53/53/57 68/68/57
f 64/64/58 63/63/58 69/69/58 70/70/58
f 69/69/59 63/63/59 65/65/59 71/71/59
f 71/71/60 65/65/60 66/66/60 72/72/60
f 72/72/61 66/66/61 67/67/61 73/73/61
f 73/73/62 67/67/62 68/68/62 74/74/62
f 53/53/63 52/52/63 75/75/63 76/76/63
f 76/76/64 75/75/64 77/77/64 78/78/64
f 78/78/65 77/77/65 62/62/65 61/61/65
f 79/79/66 78/78/66 61/61/66 64/64/66
f 80/80/67 76/76/67 78/78/67 79/79/67
f 68/68/68 53/53/68 76/76/68 80/80/68
f 81/81/69 79/79/69 64/64/69 70/70/69
f 82/82/70 80/80/70 79/79/70 81/81/70
f 74/74/71 68/68/71 80/80/71 82/82/71
f 83/83/72 84/84/72 85/85/72 86/86/72
f 87/87/73 88/88/73 86/86/73 85/85/73
f 83/83/74 86/86/74 89/89/74
f 89/89/75 86/86/75 88/88/75 90/90/75
f 91/91/76 85/85/76 84/84/76
f 92/92/77 87/87/77 85/85/77 91/91/77
f 93/62/78 62/62/78 77/77/78
f 93/62/79 94/60/79 60/60/79 62/62/79
f 60/60/80 94/60/80 58/58/80
f 95/93/81 87/87/81 92/92/81
f 90/90/82 88/88/82 96/94/82
f 95/93/83 96/94/83 88/88/83 87/87/83
f 70/70/84 69/69/84 97/95/84 98/96/84
f 99/97/85 81/81/85 70/70/85 98/96/85
f 100/98/86 82/82/86 81/81/86 99/97/86
f 101/99/87 74/74/87 82/82/87 100/98/87
f 102/100/88 73/73/88 74/74/88 101/99/88
f 97/95/89 69/69/89 71/71/89 103/101/89
f 103/101/90 71/71/90 72/72/90 104/102/90
f 104/102/91 72/72/91 73/73/91 102/100/91
f 98/96/17 97/95/17 103/101/17 104/102/17 102/100/17 101/99/17 100/98/17 99/97/17
f 105/103/92 106/104/92 94/60/92 93/62/92
f 107/105/93 58/58/93 94/60/93 106/104/93
f 108/106/94 56/56/94 58/58/94 107/105/94
f 109/107/95 51/51/95 56/56/95 108/106/95
f 109/107/96 110/108/96 52/52/96 51/51/96
f 105/103/97 93/62/97 77/77/97 111/109/97
f 111/109/98 77/77/98 75/75/98 112/110/98
f 112/110/99 75/75/99 52/52/99 110/108/99
f 105/103/18 111/109/18 112/110/18 110/108/18 109/107/18 108/106/18 107/105/18 106/104/18
usemtl Robot_Yellow
f 113/111/100 114/112/100 115/113/100 116/114/100
f 117/115/101 118/116/101 119/117/101 120/118/101
f 121/119/102 122/120/102 123/121/102 124/122/102
f 125/123/103 126/124/103 127/125/103 128/126/103
