# Blender 5.0.1
# www.blender.org
mtllib Floor.mtl
o Floor
v -5.000000 0.000000 5.000000
v 5.000000 0.000000 5.000000
v -5.000000 0.000000 -5.000000
v 5.000000 0.000000 -5.000000
v -5.000000 0.000000 -3.333333
v -5.000000 0.000000 -1.666667
v -5.000000 0.000000 0.000000
v -5.000000 0.000000 1.666667
v -5.000000 0.000000 3.333333
v -3.333333 0.000000 5.000000
v -1.666667 0.000000 5.000000
v 0.000000 0.000000 5.000000
v 1.666667 0.000000 5.000000
v 3.333333 0.000000 5.000000
v 5.000000 0.000000 3.333333
v 5.000000 0.000000 1.666667
v 5.000000 0.000000 0.000000
v 5.000000 0.000000 -1.666667
v 5.000000 0.000000 -3.333333
v 3.333333 0.000000 -5.000000
v 1.666667 0.000000 -5.000000
v 0.000000 0.000000 -5.000000
v -1.666667 0.000000 -5.000000
v -3.333333 0.000000 -5.000000
v -3.333333 0.000000 3.333333
v -3.333333 0.000000 1.666667
v -3.333333 0.002814 0.000000
v -3.333333 0.000000 -1.666667
v -3.333333 0.000000 -3.333333
v -1.666667 0.000000 3.333333
v -1.666667 0.192543 1.666667
v -1.666667 0.425242 0.000000
v -1.666667 0.192543 -1.666667
v -1.666667 0.000000 -3.333333
v 0.000000 0.002814 3.333333
v 0.000000 0.425242 1.666667
v 0.000000 0.808708 0.000000
v 0.000000 0.425242 -1.666667
v 0.000000 0.002814 -3.333333
v 1.666667 0.000000 3.333333
v 1.666667 0.192543 1.666667
v 1.666667 0.425242 0.000000
v 1.666667 0.192543 -1.666667
v 1.666667 0.000000 -3.333333
v 3.333333 0.000000 3.333333
v 3.333333 0.000000 1.666667
v 3.333333 0.002814 0.000000
v 3.333333 0.000000 -1.666667
v 3.333333 0.000000 -3.333333
vn -0.0000 1.0000 -0.0000
vn -0.0008 1.0000 -0.0008
vn 0.0008 1.0000 -0.0008
vn -0.0008 1.0000 0.0008
vn -0.0576 0.9967 0.0576
vn -0.1810 0.9810 0.0693
vn -0.1810 0.9810 -0.0693
vn -0.0576 0.9967 -0.0576
vn -0.0693 0.9810 0.1810
vn -0.1788 0.9675 0.1788
vn -0.1788 0.9675 -0.1788
vn -0.0693 0.9810 -0.1810
vn 0.0008 1.0000 0.0008
vn 0.0693 0.9810 0.1810
vn 0.1788 0.9675 0.1788
vn 0.1788 0.9675 -0.1788
vn 0.0693 0.9810 -0.1810
vn 0.0576 0.9967 0.0576
vn 0.1810 0.9810 0.0693
vn 0.1810 0.9810 -0.0693
vn 0.0576 0.9967 -0.0576
vt 0.833333 0.833333
vt 1.000000 0.833333
vt 1.000000 1.000000
vt 0.833333 1.000000
vt 0.000000 0.833333
vt 0.166667 0.833333
vt 0.166667 1.000000
vt 0.000000 1.000000
vt 0.333333 0.833333
vt 0.333333 1.000000
vt 0.500000 0.833333
vt 0.500000 1.000000
vt 0.666667 0.833333
vt 0.666667 1.000000
vt 0.000000 0.000000
vt 0.166667 0.000000
vt 0.166667 0.166667
vt 0.000000 0.166667
vt 0.166667 0.333333
vt 0.000000 0.333333
vt 0.166667 0.500000
vt 0.000000 0.500000
vt 0.166667 0.666667
vt 0.000000 0.666667
vt 0.333333 0.000000
vt 0.333333 0.166667
vt 0.333333 0.333333
vt 0.333333 0.500000
vt 0.333333 0.666667
vt 0.500000 0.000000
vt 0.500000 0.166667
vt 0.500000 0.333333
vt 0.500000 0.500000
vt 0.500000 0.666667
vt 0.666667 0.000000
vt 0.666667 0.166667
vt 0.666667 0.333333
vt 0.666667 0.500000
vt 0.666667 0.666667
vt 0.833333 0.000000
vt 0.833333 0.166667
vt 0.833333 0.333333
vt 0.833333 0.500000
vt 0.833333 0.666667
vt 1.000000 0.000000
vt 1.000000 0.166667
vt 1.000000 0.333333
vt 1.000000 0.500000
vt 1.000000 0.666667
s 0
usemtl Floor
f 49/1/1 19/2/1 4/3/1 20/4/1
f 5/5/1 29/6/1 24/7/1 3/8/1
f 29/6/1 34/9/1 23/10/1 24/7/1
f 34/9/2 39/11/2 22/12/2 23/10/2
f 39/11/3 44/13/3 21/14/3 22/12/3
f 44/13/1 49/1/1 20/4/1 21/14/1
f 1/15/1 10/16/1 25/17/1 9/18/1
f 9/18/1 25/17/1 26/19/1 8/20/1
f 8/20/4 26/19/4 27/21/4 7/22/4
f 7/22/2 27/21/2 28/23/2 6/24/2
f 6/24/1 28/23/1 29/6/1 5/5/1
f 10/16/1 11/25/1 30/26/1 25/17/1
f 25/17/5 30/26/5 31/27/5 26/19/5
f 26/19/6 31/27/6 32/28/6 27/21/6
f 27/21/7 32/28/7 33/29/7 28/23/7
f 28/23/8 33/29/8 34/9/8 29/6/8
f 11/25/4 12/30/4 35/31/4 30/26/4
f 30/26/9 35/31/9 36/32/9 31/27/9
f 31/27/10 36/32/10 37/33/10 32/28/10
f 32/28/11 37/33/11 38/34/11 33/29/11
f 33/29/12 38/34/12 39/11/12 34/9/12
f 12/30/13 13/35/13 40/36/13 35/31/13
f 35/31/14 40/36/14 41/37/14 36/32/14
f 36/32/15 41/37/15 42/38/15 37/33/15
f 37/33/16 42/38/16 43/39/16 38/34/16
f 38/34/17 43/39/17 44/13/17 39/11/17
f 13/35/1 14/40/1 45/41/1 40/36/1
f 40/36/18 45/41/18 46/42/18 41/37/18
f 41/37/19 46/42/19 47/43/19 42/38/19
f 42/38/20 47/43/20 48/44/20 43/39/20
f 43/39/21 48/44/21 49/1/21 44/13/21
f 14/40/1 2/45/1 15/46/1 45/41/1
f 45/41/1 15/46/1 16/47/1 46/42/1
f 46/42/13 16/47/13 17/48/13 47/43/13
f 47/43/3 17/48/3 18/49/3 48/44/3
f 48/44/1 18/49/1 19/2/1 49/1/1
