# Blender 5.0.1
# www.blender.org
mtllib Head.mtl
o Head
v -0.046931 0.133511 -0.108652
v -0.000223 0.133511 -0.122158
v -0.000223 0.094119 -0.115405
v -0.042429 0.095807 -0.103828
v -0.086323 0.103686 -0.058004
v -0.090263 0.133512 -0.061381
v -0.093639 0.113815 -0.001087
v -0.098141 0.133511 0.012419
v 0.042545 0.095807 -0.103828
v 0.047048 0.133511 -0.108652
v 0.090379 0.133512 -0.061381
v 0.086440 0.103686 -0.058004
v 0.098258 0.133511 0.012419
v 0.093755 0.113815 -0.001087
v -0.042429 0.095807 -0.103828
v -0.000223 0.094119 -0.115405
v -0.000223 0.070484 -0.091769
v -0.033425 0.072172 -0.083087
v -0.059874 0.078362 -0.056558
v -0.086323 0.103686 -0.058004
v -0.062688 0.082302 -0.029546
v -0.093639 0.113815 -0.001087
v -0.000223 0.035031 -0.078263
v -0.022170 0.038970 -0.073440
v -0.042429 0.046848 -0.054628
v -0.044680 0.050788 -0.039675
v -0.031174 0.007456 -0.046428
v -0.030612 0.007456 -0.054628
v 0.033541 0.072172 -0.083087
v 0.042545 0.095807 -0.103828
v 0.086440 0.103686 -0.058004
v 0.059991 0.078362 -0.056558
v 0.093755 0.113815 -0.001087
v 0.062804 0.082302 -0.029546
v 0.022287 0.038970 -0.073440
v 0.042545 0.046848 -0.054628
v 0.044797 0.050788 -0.039675
v 0.030728 0.007456 -0.054628
v 0.031291 0.007456 -0.046428
v -0.019356 0.015335 -0.068134
v -0.000223 0.019274 -0.074405
v 0.019473 0.015335 -0.068134
v 0.035230 0.184159 -0.125534
v 0.043108 0.133511 -0.142417
v -0.000223 0.133511 -0.152546
v -0.000223 0.188097 -0.132287
v 0.074622 0.176280 -0.095146
v 0.086440 0.133511 -0.105275
v 0.093192 0.172341 -0.041122
v 0.106135 0.133512 -0.044499
v 0.038044 0.219611 -0.081640
v -0.000223 0.227490 -0.085016
v 0.072934 0.203855 -0.064757
v 0.087002 0.192037 -0.034369
v 0.098258 0.172341 0.036055
v 0.089254 0.192037 0.030266
v 0.032978 0.239307 -0.034369
v -0.000223 0.247186 -0.034369
v 0.063367 0.223550 -0.024240
v 0.076311 0.211733 -0.001087
v 0.077435 0.211733 0.024478
v 0.029040 0.243247 0.014831
v -0.000223 0.250000 0.012901
v 0.061679 0.226364 0.020137
v -0.042992 0.133511 -0.142417
v -0.035113 0.184159 -0.125534
v -0.086323 0.133511 -0.105275
v -0.074506 0.176280 -0.095146
v -0.106020 0.133512 -0.044499
v -0.093076 0.172341 -0.041122
v -0.037927 0.219611 -0.081640
v -0.072817 0.203855 -0.064757
v -0.086886 0.192037 -0.034369
v -0.089700 0.192037 0.030266
v -0.098141 0.172341 0.036055
v -0.032863 0.239307 -0.034369
v -0.063251 0.223550 -0.024240
v -0.076194 0.211733 -0.001087
v -0.077319 0.211733 0.024478
v -0.028923 0.243247 0.014831
v -0.062126 0.226364 0.020137
v -0.108270 0.133511 0.012419
v 0.108387 0.133511 0.012419
v 0.102197 0.152645 0.069819
v 0.107261 0.133512 0.069819
v 0.107261 0.109876 0.069819
v 0.107824 0.098058 0.039431
v 0.102197 0.082302 0.025925
v 0.102197 0.113815 -0.001087
v 0.086440 0.050788 -0.001087
v 0.086440 0.082302 -0.029546
v 0.054926 0.015335 -0.047875
v 0.062804 0.046848 -0.054628
v -0.107145 0.133512 0.069819
v -0.102080 0.152645 0.069819
v -0.107708 0.098058 0.039431
v -0.107145 0.109876 0.069819
v -0.102080 0.113815 -0.001087
v -0.102080 0.082302 0.025925
v -0.086323 0.082302 -0.029546
v -0.086323 0.050788 -0.001087
v -0.062688 0.046848 -0.054628
v -0.054810 0.015335 -0.047875
v -0.065502 0.046848 0.005666
v -0.082384 0.074423 0.027372
v -0.090263 0.090180 0.039913
v 0.065618 0.046848 0.005666
v 0.082501 0.074423 0.027372
v 0.090379 0.090180 0.039913
v 0.077998 0.186972 0.031713
v 0.050987 0.219611 0.021584
v -0.000223 0.235369 0.015796
v -0.050870 0.219611 0.021584
v -0.077882 0.186972 0.031713
v -0.084073 0.158835 0.078984
v -0.039053 0.176280 0.106960
v -0.000223 0.180219 0.118054
v -0.035113 0.133512 0.117090
v -0.090263 0.133512 0.078984
v -0.000223 0.133512 0.127219
v -0.090263 0.105936 0.078984
v -0.058749 0.094119 0.100690
v -0.019356 0.094119 0.111784
v 0.039169 0.176280 0.106960
v 0.084188 0.158835 0.078984
v 0.090379 0.133512 0.078984
v 0.035230 0.133512 0.117090
v 0.058865 0.094119 0.100690
v 0.090379 0.105936 0.078984
v 0.019473 0.094119 0.111784
v -0.019356 0.015335 -0.068134
v -0.000223 0.019274 -0.074405
v 0.019473 0.015335 -0.068134
v 0.030728 0.007456 -0.054628
v -0.030612 0.007456 -0.054628
v 0.108387 0.133511 0.012419
v -0.108270 0.133511 0.012419
v -0.106020 0.133512 -0.044499
v -0.086323 0.133511 -0.105275
v -0.042992 0.133511 -0.142417
v -0.000223 0.133511 -0.152546
v 0.043108 0.133511 -0.142417
v 0.086440 0.133511 -0.105275
v 0.106135 0.133512 -0.044499
v 0.098258 0.133511 0.012419
v 0.102197 0.113815 -0.001087
v 0.093755 0.113815 -0.001087
v 0.086440 0.082302 -0.029546
v 0.062804 0.082302 -0.029546
v 0.062804 0.046848 -0.054628
v 0.042545 0.046848 -0.054628
v -0.093639 0.113815 -0.001087
v -0.102080 0.113815 -0.001087
v -0.098141 0.133511 0.012419
v -0.062688 0.082302 -0.029546
v -0.086323 0.082302 -0.029546
v -0.042429 0.046848 -0.054628
v -0.062688 0.046848 -0.054628
v -0.090263 0.105936 0.078984
v -0.107145 0.109876 0.069819
v -0.107708 0.098058 0.039431
v -0.090263 0.090180 0.039913
v -0.090263 0.133512 0.078984
v -0.107145 0.133512 0.069819
v -0.102080 0.152645 0.069819
v -0.084073 0.158835 0.078984
v -0.098141 0.172341 0.036055
v -0.077882 0.186972 0.031713
v 0.090379 0.090180 0.039913
v 0.107824 0.098058 0.039431
v 0.107261 0.109876 0.069819
v 0.090379 0.105936 0.078984
v 0.107261 0.133512 0.069819
v 0.090379 0.133512 0.078984
v 0.084188 0.158835 0.078984
v 0.102197 0.152645 0.069819
v 0.077998 0.186972 0.031713
v 0.098258 0.172341 0.036055
v 0.058865 0.094119 0.100690
v 0.019473 0.094119 0.111784
v -0.019356 0.094119 0.111784
v -0.058749 0.094119 0.100690
v -0.082384 0.074423 0.027372
v 0.082501 0.074423 0.027372
v -0.065502 0.046848 0.005666
v 0.065618 0.046848 0.005666
v -0.031174 0.007456 -0.046428
v 0.031291 0.007456 -0.046428
v 0.042545 0.046848 -0.054628
v 0.062804 0.046848 -0.054628
v 0.054926 0.015335 -0.047875
v 0.031291 0.007456 -0.046428
v -0.031174 0.007456 -0.046428
v -0.054810 0.015335 -0.047875
v -0.062688 0.046848 -0.054628
v -0.042429 0.046848 -0.054628
vn -0.5104 -0.1711 -0.8428
vn -0.0015 -0.1644 -0.9864
vn -0.0016 -0.1644 -0.9864
vn -0.4954 -0.1706 -0.8518
vn -0.8894 -0.1682 -0.4250
vn -0.8886 -0.1683 -0.4267
vn -0.9838 -0.1466 -0.1030
vn 0.4938 -0.1706 -0.8527
vn 0.5089 -0.1711 -0.8436
vn 0.8886 -0.1683 -0.4267
vn 0.8894 -0.1682 -0.4250
vn 0.9838 -0.1466 -0.1030
vn -0.4010 -0.6887 -0.6041
vn -0.0013 -0.7064 -0.7078
vn -0.0020 -0.5544 -0.8322
vn -0.4750 -0.5593 -0.6794
vn -0.7451 -0.6085 -0.2731
vn -0.6814 -0.7138 -0.1619
vn -0.7582 -0.6517 0.0209
vn -0.6944 -0.7187 0.0367
vn -0.0029 -0.2984 -0.9544
vn -0.4785 -0.3145 -0.8199
vn -0.8517 -0.3800 -0.3608
vn -0.9066 -0.4207 -0.0325
vn -0.9556 -0.2870 -0.0673
vn -0.8820 -0.2699 -0.3863
vn 0.4733 -0.5597 -0.6803
vn 0.3996 -0.6890 -0.6046
vn 0.6814 -0.7138 -0.1619
vn 0.7451 -0.6085 -0.2731
vn 0.6944 -0.7187 0.0367
vn 0.7582 -0.6517 0.0209
vn 0.4757 -0.3146 -0.8214
vn 0.8517 -0.3800 -0.3608
vn 0.9066 -0.4207 -0.0325
vn 0.8820 -0.2699 -0.3863
vn 0.9556 -0.2870 -0.0673
vn -0.5292 -0.2342 -0.8155
vn -0.0037 -0.2441 -0.9698
vn 0.5263 -0.2344 -0.8173
vn 0.3881 0.5268 -0.7562
vn 0.4117 0.3466 -0.8428
vn -0.0014 0.3474 -0.9377
vn -0.0015 0.5632 -0.8263
vn 0.7319 0.4488 -0.5127
vn 0.7705 0.3407 -0.5388
vn 0.9099 0.3504 -0.2221
vn 0.9016 0.3215 -0.2895
vn 0.3828 0.7910 -0.4773
vn -0.0016 0.8602 -0.5100
vn 0.7146 0.6147 -0.3338
vn 0.8723 0.4707 -0.1320
vn 0.9315 0.3605 -0.0481
vn 0.9051 0.4232 -0.0418
vn 0.3585 0.9117 -0.2006
vn -0.0019 0.9774 -0.2115
vn 0.6195 0.7744 -0.1285
vn 0.7806 0.6235 -0.0437
vn 0.7958 0.6049 -0.0289
vn 0.3532 0.9343 -0.0473
vn -0.0021 0.9982 -0.0602
vn 0.5935 0.8043 -0.0294
vn -0.4131 0.3464 -0.8422
vn -0.3898 0.5266 -0.7555
vn -0.7705 0.3407 -0.5388
vn -0.7319 0.4488 -0.5127
vn -0.9016 0.3215 -0.2895
vn -0.9108 0.3473 -0.2231
vn -0.3843 0.7904 -0.4770
vn -0.7146 0.6147 -0.3338
vn -0.8734 0.4684 -0.1337
vn -0.9058 0.4212 -0.0462
vn -0.9357 0.3488 -0.0520
vn -0.3597 0.9112 -0.2010
vn -0.6195 0.7742 -0.1299
vn -0.7805 0.6234 -0.0479
vn -0.7942 0.6067 -0.0339
vn -0.3536 0.9341 -0.0488
vn -0.5990 0.8000 -0.0336
vn 0.9970 -0.0011 -0.0773
vn 0.9693 0.2447 0.0230
vn 0.9922 0.1231 0.0213
vn 0.9998 -0.0007 0.0193
vn 0.9937 -0.0779 -0.0809
vn 0.9513 -0.2019 -0.2331
vn 0.9516 -0.2011 -0.2323
vn 0.9106 -0.2711 -0.3119
vn 0.9084 -0.2741 -0.3157
vn 0.8771 -0.3131 -0.3642
vn -0.9922 0.1231 0.0213
vn -0.9693 0.2447 0.0230
vn -0.9970 -0.0011 -0.0773
vn -0.9937 -0.0779 -0.0809
vn -0.9998 -0.0007 0.0193
vn -0.9516 -0.2011 -0.2323
vn -0.9513 -0.2019 -0.2331
vn -0.9084 -0.2741 -0.3157
vn -0.9106 -0.2711 -0.3119
vn -0.8771 -0.3131 -0.3642
vn -0.3232 -0.7691 0.5514
vn -0.3055 -0.8460 0.4369
vn -0.3192 -0.7906 0.5226
vn -0.3294 -0.6958 0.6382
vn -0.3263 -0.6886 0.6475
vn -0.3232 -0.6813 0.6568
vn 0.3192 -0.7906 0.5226
vn 0.3055 -0.8460 0.4369
vn 0.3232 -0.7691 0.5514
vn 0.3263 -0.6886 0.6475
vn 0.3294 -0.6958 0.6382
vn 0.3232 -0.6813 0.6568
vn -0.0161 0.2757 0.9611
vn -0.0209 0.2600 0.9654
vn -0.0238 0.2505 0.9678
vn -0.0290 0.2338 0.9719
vn -0.0000 0.2340 0.9722
vn 0.0001 0.2340 0.9722
vn 0.0239 0.2505 0.9678
vn 0.0207 0.2605 0.9652
vn 0.0158 0.2760 0.9610
vn 0.0291 0.2340 0.9718
vn -0.6055 0.6825 0.4094
vn -0.5303 0.7572 0.3813
vn -0.3487 0.8232 0.4480
vn -0.3871 0.7999 0.4586
vn -0.0010 0.8797 0.4756
vn -0.0011 0.8797 0.4756
vn -0.3882 0.0006 0.9216
vn -0.4244 0.1676 0.8898
vn -0.5621 0.1398 0.8152
vn -0.5667 0.0651 0.8213
vn -0.0017 -0.0390 0.9992
vn -0.0020 0.1986 0.9801
vn -0.5681 -0.0010 0.8230
vn -0.4746 -0.0809 0.8765
vn -0.1742 -0.2825 0.9433
vn 0.3472 0.8237 0.4482
vn 0.5304 0.7572 0.3813
vn 0.6055 0.6825 0.4094
vn 0.3858 0.8004 0.4588
vn 0.5667 0.0651 0.8213
vn 0.5621 0.1399 0.8151
vn 0.4225 0.1679 0.8907
vn 0.3865 0.0009 0.9223
vn 0.4740 -0.0808 0.8768
vn 0.5681 -0.0010 0.8230
vn 0.1738 -0.2817 0.9436
vn -0.0000 -0.8611 -0.5084
vn -0.0000 -0.8468 -0.5319
vn -0.0000 -0.8612 -0.5083
vn -0.0000 -0.8638 -0.5039
vn -0.0000 1.0000 -0.0000
vn -0.0000 0.5655 -0.8247
vn -0.0000 0.6088 -0.7933
vn -0.0000 0.6300 -0.7766
vn -0.0000 0.6370 -0.7709
vn -0.0000 0.6087 -0.7934
vn -0.0000 0.5775 -0.8164
vn -0.0000 -0.5655 0.8247
vn -0.0000 0.6702 -0.7422
vn -0.4741 -0.8169 0.3286
vn -0.3904 -0.8546 0.3424
vn -0.2770 -0.9290 0.2453
vn -0.4787 0.0643 0.8756
vn -0.4786 0.0561 0.8762
vn -0.4771 -0.0000 0.8788
vn -0.4784 0.1211 0.8697
vn -0.4762 0.7820 0.4021
vn 0.2770 -0.9290 0.2453
vn 0.3904 -0.8546 0.3424
vn 0.4741 -0.8169 0.3286
vn 0.4771 -0.0000 0.8788
vn 0.4786 0.0561 0.8762
vn 0.4787 0.0643 0.8756
vn 0.4784 0.1211 0.8697
vn 0.4762 0.7820 0.4021
vn 0.1082 -0.9877 0.1128
vn -0.0000 -1.0000 -0.0000
vn -0.1082 -0.9877 0.1128
vn -0.0000 -0.6227 0.7824
vn -0.0000 -0.6212 0.7837
vn -0.0000 -0.6868 0.7269
vn -0.0000 -0.7976 0.6031
vn 0.0050 -0.2076 -0.9782
vn -0.0050 -0.2076 -0.9782
vn 0.9522 0.3010 -0.0520
vn -0.9522 0.3010 -0.0519
vt 0.739256 0.899641
vt 0.501433 1.000000
vt 0.501433 0.949820
vt 0.716331 0.863799
vt 0.939826 0.523295
vt 0.959885 0.548387
vt 0.977075 0.100359
vt 1.000000 0.000000
vt 0.283669 0.863799
vt 0.260744 0.899641
vt 0.040115 0.548387
vt 0.060174 0.523295
vt 0.000000 0.000000
vt 0.022925 0.100359
vt 0.825862 0.364269
vt 0.867241 0.357308
vt 0.782759 0.259860
vt 0.751724 0.266821
vt 0.656898 0.292342
vt 0.662069 0.396752
vt 0.560345 0.308585
vt 0.458622 0.438514
vt 0.734483 0.113688
vt 0.717242 0.129931
vt 0.650001 0.162411
vt 0.596551 0.178654
vt 0.620690 0.000000
vt 0.650001 0.000000
vt 0.698277 0.032483
vt 0.720691 0.048723
vt 0.903450 0.728538
vt 0.963794 0.519722
vt 1.000000 0.519722
vt 0.927588 0.744778
vt 0.794829 0.696056
vt 0.831035 0.519722
vt 0.601724 0.679813
vt 0.613794 0.519722
vt 0.746553 0.874710
vt 0.758621 0.907192
vt 0.686207 0.809744
vt 0.577586 0.761021
vt 0.325861 0.679813
vt 0.346553 0.761021
vt 0.577586 0.955915
vt 0.577586 0.988398
vt 0.541380 0.890950
vt 0.458622 0.842227
vt 0.367243 0.842227
vt 0.401724 0.972158
vt 0.408622 1.000000
vt 0.382759 0.902552
vt 0.410346 0.519722
vt 0.205173 0.598607
vt 0.205173 0.519722
vt 0.205173 0.422274
vt 0.313793 0.373548
vt 0.362070 0.308585
vt 0.458622 0.178654
vt 0.625862 0.032483
vt 0.434484 0.162411
vt 0.356897 0.276102
vt 0.312069 0.341068
vt 0.341380 0.740138
vt 0.377586 0.874710
vt 0.398276 0.939675
vt 0.172413 0.624129
vt 0.072414 0.696056
vt 0.032760 0.712296
vt 0.036206 0.519722
vt 0.172413 0.519722
vt 0.000000 0.519722
vt 0.172413 0.406031
vt 0.094828 0.357308
vt 0.055173 0.357308
vt 0.680658 0.589609
vt 0.704380 0.501299
vt 0.680658 0.410391
vt 0.629562 0.358441
vt 0.629562 0.641559
vt 0.375913 0.000000
vt 0.591242 0.010391
vt 0.821169 0.101299
vt 0.961680 0.301299
vt 1.000000 0.501299
vt 0.961680 0.698701
vt 0.821169 0.898701
vt 0.591242 0.989613
vt 0.375913 1.000000
vt 0.375913 0.046751
vt 0.427008 0.028571
vt 0.427008 0.067533
vt 0.534671 0.101299
vt 0.534671 0.210391
vt 0.629562 0.210391
vt 0.629562 0.303896
vt 0.427008 0.932467
vt 0.375913 0.953249
vt 0.427008 0.971429
vt 0.534671 0.789609
vt 0.534671 0.898701
vt 0.629562 0.696104
vt 0.629562 0.789609
vt 0.124086 0.916885
vt 0.158759 0.994805
vt 0.273722 0.997402
vt 0.271897 0.916885
vt 0.158759 0.971429
vt 0.124086 0.888314
vt 0.286495 0.953249
vt 0.302920 0.859740
vt 0.271897 0.083115
vt 0.273722 0.002598
vt 0.158759 0.005195
vt 0.124086 0.083115
vt 0.124086 0.111689
vt 0.158759 0.028571
vt 0.302920 0.140260
vt 0.286495 0.046751
vt 0.041970 0.228571
vt 0.000000 0.410391
vt 0.000000 0.589609
vt 0.041970 0.771429
vt 0.319342 0.880521
vt 0.319342 0.119479
vt 0.401460 0.802598
vt 0.401460 0.197402
vt 0.598540 0.644157
vt 0.598540 0.355843
vt 0.161434 1.000000
vt 0.000000 1.000000
vt 0.062781 0.200004
vt 0.251118 0.000000
vt 0.748882 0.000000
vt 0.937225 0.200004
vt 1.000000 1.000000
vt 0.838566 1.000000
s 1
usemtl Robot_Eye
f 1/1/1 2/2/2 3/3/3 4/4/4
f 5/5/5 6/6/6 1/1/1 4/4/4
f 7/7/7 8/8/7 6/6/6 5/5/5
f 9/9/8 3/3/3 2/2/2 10/10/9
f 9/9/8 10/10/9 11/11/10 12/12/11
f 12/12/11 11/11/10 13/13/12 14/14/12
usemtl Robot_White
f 15/15/13 16/16/14 17/17/15 18/18/16
f 19/19/17 20/20/18 15/15/13 18/18/16
f 21/21/19 22/22/20 20/20/18 19/19/17
f 18/18/16 17/17/15 23/23/21 24/24/22
f 25/25/23 19/19/17 18/18/16 24/24/22
f 26/26/24 21/21/19 19/19/17 25/25/23
f 27/27/25 26/26/24 25/25/23 28/28/26
f 29/18/27 17/17/15 16/16/14 30/15/28
f 29/18/27 30/15/28 31/20/29 32/19/30
f 32/19/30 31/20/29 33/22/31 34/21/32
f 35/24/33 23/23/21 17/17/15 29/18/27
f 35/24/33 29/18/27 32/19/30 36/25/34
f 36/25/34 32/19/30 34/21/32 37/26/35
f 38/28/36 36/25/34 37/26/35 39/27/37
f 40/29/38 28/28/26 25/25/23 24/24/22
f 41/30/39 40/29/38 24/24/22 23/23/21
f 42/29/40 35/24/33 36/25/34 38/28/36
f 41/30/39 23/23/21 35/24/33 42/29/40
f 43/31/41 44/32/42 45/33/43 46/34/44
f 47/35/45 48/36/46 44/32/42 43/31/41
f 49/37/47 50/38/48 48/36/46 47/35/45
f 51/39/49 43/31/41 46/34/44 52/40/50
f 53/41/51 47/35/45 43/31/41 51/39/49
f 54/42/52 49/37/47 47/35/45 53/41/51
f 55/43/53 49/37/47 54/42/52 56/44/54
f 57/45/55 51/39/49 52/40/50 58/46/56
f 59/47/57 53/41/51 51/39/49 57/45/55
f 60/48/58 54/42/52 53/41/51 59/47/57
f 56/44/54 54/42/52 60/48/58 61/49/59
f 62/50/60 57/45/55 58/46/56 63/51/61
f 61/49/59 60/48/58 59/47/57 64/52/62
f 64/52/62 59/47/57 57/45/55 62/50/60
f 46/34/44 45/33/43 65/32/63 66/31/64
f 66/31/64 65/32/63 67/36/65 68/35/66
f 68/35/66 67/36/65 69/38/67 70/37/68
f 52/40/50 46/34/44 66/31/64 71/39/69
f 71/39/69 66/31/64 68/35/66 72/41/70
f 72/41/70 68/35/66 70/37/68 73/42/71
f 74/44/72 73/42/71 70/37/68 75/43/73
f 58/46/56 52/40/50 71/39/69 76/45/74
f 76/45/74 71/39/69 72/41/70 77/47/75
f 77/47/75 72/41/70 73/42/71 78/48/76
f 79/49/77 78/48/76 73/42/71 74/44/72
f 63/51/61 58/46/56 76/45/74 80/50/78
f 81/52/79 77/47/75 78/48/76 79/49/77
f 80/50/78 76/45/74 77/47/75 81/52/79
f 83/53/80 55/43/81 84/54/81 85/55/82
f 83/53/80 85/55/82 86/56/83 87/57/84
f 88/58/85 89/22/86 83/53/80 87/57/84
f 90/59/87 91/21/88 89/22/86 88/58/85
f 92/60/89 93/25/89 91/21/88 90/59/87
f 94/55/90 95/54/91 75/43/91 82/53/92
f 96/57/93 97/56/94 94/55/90 82/53/92
f 96/57/93 82/53/92 98/22/95 99/58/96
f 99/58/96 98/22/95 100/21/97 101/59/98
f 101/59/98 100/21/97 102/25/99 103/60/99
f 101/59/100 103/60/101 27/27/101 104/61/102
f 105/62/103 99/58/104 101/59/100 104/61/102
f 106/63/105 96/57/105 99/58/104 105/62/103
f 107/61/106 39/27/107 92/60/107 90/59/108
f 107/61/106 90/59/108 88/58/109 108/62/110
f 108/62/110 88/58/109 87/57/111 109/63/111
f 110/64/112 55/43/112 56/44/112 61/49/112 64/52/113 111/65/114
f 111/65/114 64/52/113 62/50/115 63/51/116 112/66/117
f 113/65/118 81/52/119 79/49/120 74/44/120 75/43/120 114/64/120
f 112/66/117 63/51/116 80/50/121 81/52/119 113/65/118
f 114/64/122 115/67/123 116/68/124
f 116/68/124 113/65/125 114/64/122
f 117/69/126 112/66/127 113/65/125 116/68/124
f 118/70/128 116/68/129 115/67/130 119/71/131
f 120/72/132 117/69/133 116/68/129 118/70/128
f 118/70/128 119/71/131 121/73/134 122/74/135
f 123/75/136 120/72/132 118/70/128 122/74/135
f 124/68/137 125/67/138 110/64/139
f 110/64/139 111/65/140 124/68/137
f 124/68/137 111/65/140 112/66/127 117/69/126
f 126/71/141 125/67/142 124/68/143 127/70/144
f 127/70/144 124/68/143 117/69/133 120/72/132
f 128/74/145 129/73/146 126/71/141 127/70/144
f 128/74/145 127/70/144 120/72/132 130/75/147
f 120/72/132 123/75/136 130/75/147
f 131/76/148 132/77/149 133/78/150
f 134/79/151 135/80/151 131/76/148 133/78/150
f 136/81/152 144/82/152 143/83/152 142/84/152 141/85/152 140/86/152 139/87/152 138/88/152 137/89/152
f 145/90/153 136/81/153 146/91/154 147/92/155
f 147/92/155 146/91/154 148/93/156 149/94/157
f 149/94/157 148/93/156 150/95/158 151/96/158
f 152/97/159 154/98/159 137/89/159 153/99/159
f 155/100/157 156/101/156 153/99/160 152/97/160
f 157/102/158 158/103/158 156/101/156 155/100/157
f 159/104/161 160/105/162 161/106/162 162/107/163
f 163/104/164 164/105/165 160/105/166 159/104/166
f 165/108/167 164/105/165 163/104/164 166/109/167
f 167/110/168 165/108/168 166/109/168 168/111/168
f 169/112/169 170/113/170 171/114/170 172/115/171
f 172/115/172 171/114/172 173/114/173 174/115/174
f 175/116/175 174/115/174 173/114/173 176/117/175
f 177/118/176 175/116/176 176/117/176 178/119/176
f 179/120/177 180/121/178 181/122/178 182/123/179
f 179/120/177 169/112/169 172/115/171
f 162/107/163 182/123/179 159/104/161
f 162/107/163 169/112/169 179/120/177 182/123/179
f 162/107/180 183/124/181 184/125/181 169/112/180
f 184/125/181 183/124/181 185/126/182 186/127/182
f 185/126/182 187/128/183 188/129/183 186/127/182
f 178/13/186 136/81/186 144/82/186 49/13/186
f 70/13/187 138/88/187 137/89/187 167/13/187
usemtl Robot_Black
f 189/130/184 190/131/184 191/132/184 192/133/184
f 193/134/185 194/135/185 195/136/185 196/137/185
l 69 82
l 50 83
