# Blender 5.0.1
# www.blender.org
mtllib Leg.mtl
o Leg
v -0.181106 0.296040 0.108087
v -0.181106 0.296040 -0.036620
v -0.181106 0.091039 -0.373463
v -0.181106 0.030745 -0.337287
v -0.181106 0.030745 0.228675
v -0.181106 0.151334 0.276910
v 0.180660 0.151334 0.276910
v 0.180660 0.030745 0.228675
v 0.180660 0.030745 -0.337287
v 0.180660 0.091039 -0.373464
v 0.180660 0.296040 -0.036621
v 0.180660 0.296040 0.108086
v 0.168601 0.296040 0.108086
v 0.168601 0.296040 -0.030189
v 0.060071 0.343471 -0.078425
v 0.060071 0.343471 0.102459
v -0.072576 0.343471 0.102459
v -0.072576 0.343471 -0.078424
v -0.181106 0.296040 -0.030188
v -0.072576 0.091039 -0.373463
v 0.060071 0.091039 -0.373463
v 0.050424 0.320157 0.090400
v 0.050424 0.320157 -0.029385
v -0.058909 0.320157 -0.029384
v -0.058909 0.320157 0.090400
v 0.313307 0.099079 -0.144346
v 0.313307 0.099079 -0.042248
v 0.216836 0.099079 -0.042248
v 0.216836 0.099079 -0.204641
v 0.216836 0.129628 -0.204641
v 0.216836 0.129628 -0.042248
v 0.313307 0.129628 -0.042248
v 0.313307 0.129628 -0.144346
v -0.217282 0.099079 -0.204640
v -0.217282 0.099079 -0.042247
v -0.313753 0.099079 -0.042247
v -0.313753 0.099079 -0.144345
v -0.313753 0.129628 -0.144345
v -0.313753 0.129628 -0.042247
v -0.217282 0.129628 -0.042247
v -0.217282 0.129628 -0.204640
v 0.120365 0.030745 -0.325228
v 0.120365 0.018686 -0.325228
v 0.120365 0.018686 -0.385522
v 0.120365 0.030745 -0.397581
v 0.120365 0.066922 -0.361405
v 0.084189 0.066922 -0.361405
v 0.084189 0.030745 -0.397581
v 0.084189 0.018686 -0.385522
v 0.084189 0.018686 -0.325228
v 0.084189 0.030745 -0.325228
v -0.120811 0.066922 -0.361405
v -0.120811 0.030745 -0.397581
v -0.120811 0.018686 -0.385522
v -0.120811 0.018686 -0.325228
v -0.120811 0.030745 -0.325228
v -0.084635 0.030745 -0.325228
v -0.084635 0.018686 -0.325228
v -0.084635 0.018686 -0.385522
v -0.084635 0.030745 -0.397581
v -0.084635 0.066922 -0.361405
v 0.120365 0.018686 0.180440
v 0.120365 0.018686 -0.264935
v 0.120365 0.030745 -0.289052
v 0.120365 0.030745 0.204557
v 0.084189 0.030745 0.204557
v 0.084189 0.030745 -0.289051
v 0.084189 0.018686 -0.264934
v 0.084189 0.018686 0.180440
v -0.120811 0.030745 0.204557
v -0.120811 0.030745 -0.289051
v -0.120811 0.018686 -0.264934
v -0.120811 0.018686 0.180440
v -0.084635 0.018686 0.180440
v -0.084635 0.018686 -0.264934
v -0.084635 0.030745 -0.289051
v -0.084635 0.030745 0.204557
v -0.144929 0.185098 0.243146
v -0.084635 0.185098 0.243146
v -0.096694 0.219667 0.239930
v -0.132870 0.219667 0.239930
v -0.084635 0.283981 0.120145
v -0.096694 0.330608 0.157930
v -0.132870 0.330608 0.157930
v -0.144929 0.283981 0.120145
v 0.132424 0.219667 0.239929
v 0.096248 0.219667 0.239929
v 0.084189 0.185098 0.243145
v 0.144483 0.185098 0.243145
v 0.096248 0.330608 0.157929
v 0.084189 0.283981 0.120144
v 0.132424 0.330608 0.157929
v 0.144483 0.283981 0.120144
v 0.307680 0.079784 -0.090483
v 0.307680 0.079784 0.096027
v 0.216836 0.072549 0.138635
v 0.216836 0.072549 -0.132287
v 0.216836 0.156157 -0.132287
v 0.216836 0.156157 0.138635
v 0.307680 0.147314 0.096027
v 0.307680 0.147314 -0.090483
v -0.217282 0.072549 -0.132286
v -0.217282 0.072549 0.138636
v -0.307322 0.079784 0.096028
v -0.307322 0.079784 -0.090482
v -0.307322 0.147314 -0.090482
v -0.307322 0.147314 0.096028
v -0.217282 0.156157 0.138636
v -0.217282 0.156157 -0.132286
v -0.319380 0.253432 -0.024561
v -0.319380 0.226098 -0.015718
v -0.319380 0.206804 0.003577
v -0.319380 0.199569 0.030106
v -0.319380 0.206804 0.057439
v -0.319380 0.226098 0.076734
v -0.319380 0.253432 0.083969
v -0.319380 0.279961 0.076734
v -0.319380 0.299255 0.057439
v -0.319380 0.308099 0.030106
v -0.319380 0.299255 0.003577
v -0.319380 0.279961 -0.015718
v -0.319380 0.101490 -0.260110
v -0.319380 0.123196 -0.281816
v -0.319380 0.132039 -0.312365
v -0.319380 0.123196 -0.341306
v -0.319380 0.101490 -0.363012
v -0.319380 0.072549 -0.371052
v -0.319380 0.042804 -0.363012
v -0.319380 0.021098 -0.341306
v -0.319380 0.013863 -0.312365
v -0.319380 0.021098 -0.281816
v -0.319380 0.042804 -0.260110
v -0.319380 0.072549 -0.252875
v -0.319380 0.072549 0.162753
v -0.319380 0.038784 0.172400
v -0.319380 0.014667 0.196518
v -0.319380 0.006627 0.228675
v -0.319380 0.014667 0.262440
v -0.319380 0.038784 0.286557
v -0.319380 0.072549 0.295401
v -0.319380 0.105510 0.286557
v -0.319380 0.129628 0.262440
v -0.319380 0.139275 0.228675
v -0.319380 0.129628 0.196518
v -0.319380 0.105510 0.172400
v 0.319738 0.279961 -0.015719
v 0.319738 0.299255 0.003576
v 0.319738 0.308099 0.030105
v 0.319738 0.299255 0.057438
v 0.319738 0.279961 0.076733
v 0.319738 0.253432 0.083968
v 0.319738 0.226098 0.076733
v 0.319738 0.206804 0.057438
v 0.319738 0.199569 0.030105
v 0.319738 0.206804 0.003576
v 0.319738 0.226098 -0.015719
v 0.319738 0.253432 -0.024562
v 0.319738 0.072549 -0.252875
v 0.319738 0.042804 -0.260111
v 0.319738 0.021098 -0.281817
v 0.319738 0.013863 -0.312366
v 0.319738 0.021098 -0.341307
v 0.319738 0.042804 -0.363013
v 0.319738 0.072549 -0.371053
v 0.319738 0.101490 -0.363013
v 0.319738 0.123196 -0.341307
v 0.319738 0.132039 -0.312366
v 0.319738 0.123196 -0.281817
v 0.319738 0.101490 -0.260111
v 0.319738 0.105510 0.172399
v 0.319738 0.129628 0.196517
v 0.319738 0.139275 0.228674
v 0.319738 0.129628 0.262439
v 0.319738 0.105510 0.286557
v 0.319738 0.072549 0.295400
v 0.319738 0.038784 0.286556
v 0.319738 0.014667 0.262439
v 0.319738 0.006627 0.228674
v 0.319738 0.014667 0.196517
v 0.319738 0.038784 0.172399
v 0.319738 0.072549 0.162752
v -0.132870 0.330608 0.157930
v -0.096694 0.330608 0.157930
v -0.084635 0.283981 0.120145
v -0.144929 0.283981 0.120145
v 0.144483 0.283981 0.120144
v 0.084189 0.283981 0.120144
v 0.096248 0.330608 0.157929
v 0.132424 0.330608 0.157929
v 0.325366 0.089432 -0.301110
v 0.325366 0.082196 -0.293875
v 0.325366 0.072549 -0.290660
v 0.325366 0.060490 -0.293876
v 0.325366 0.053255 -0.301111
v 0.325366 0.050843 -0.312366
v 0.325366 0.053255 -0.322817
v 0.325366 0.060490 -0.330053
v 0.325366 0.072549 -0.334072
v 0.325366 0.082196 -0.330053
v 0.325366 0.089432 -0.322817
v 0.325366 0.094255 -0.312366
v 0.325366 0.269510 0.040556
v 0.325366 0.262275 0.047791
v 0.325366 0.253432 0.050203
v 0.325366 0.242981 0.047791
v 0.325366 0.235746 0.040556
v 0.325366 0.233334 0.030105
v 0.325366 0.235746 0.021262
v 0.325366 0.242981 0.014027
v 0.325366 0.253432 0.010811
v 0.325366 0.262275 0.014027
v 0.325366 0.269510 0.021262
v 0.325366 0.272726 0.030105
v 0.325366 0.091039 0.242341
v 0.325366 0.082196 0.250380
v 0.325366 0.072549 0.254400
v 0.325366 0.059686 0.250380
v 0.325366 0.050843 0.242341
v 0.325366 0.047628 0.228675
v 0.325366 0.050843 0.219027
v 0.325366 0.059686 0.210988
v 0.325366 0.072549 0.206164
v 0.325366 0.082196 0.210988
v 0.325366 0.091039 0.219027
v 0.325366 0.095863 0.228675
v -0.325812 0.094255 -0.312365
v -0.325812 0.089432 -0.322816
v -0.325812 0.082196 -0.330052
v -0.325812 0.072549 -0.334071
v -0.325812 0.060490 -0.330052
v -0.325812 0.053255 -0.322816
v -0.325812 0.050843 -0.312365
v -0.325812 0.053255 -0.301110
v -0.325812 0.060490 -0.293875
v -0.325812 0.072549 -0.290659
v -0.325812 0.082196 -0.293875
v -0.325812 0.089432 -0.301110
v -0.325812 0.272726 0.030106
v -0.325812 0.269510 0.021263
v -0.325812 0.262275 0.014028
v -0.325812 0.253432 0.010812
v -0.325812 0.242981 0.014028
v -0.325812 0.235746 0.021263
v -0.325812 0.233334 0.030106
v -0.325812 0.235746 0.040557
v -0.325812 0.242981 0.047792
v -0.325812 0.253432 0.050204
v -0.325812 0.262275 0.047792
v -0.325812 0.269510 0.040557
v -0.325812 0.095863 0.228675
v -0.325812 0.091039 0.219028
v -0.325812 0.082196 0.210989
v -0.325812 0.072549 0.206165
v -0.325812 0.059686 0.210989
v -0.325812 0.050843 0.219028
v -0.325812 0.047628 0.228675
v -0.325812 0.050843 0.242342
v -0.325812 0.059686 0.250381
v -0.325812 0.072549 0.254401
v -0.325812 0.082196 0.250381
v -0.325812 0.091039 0.242342
v 0.204777 0.259863 0.023674
v 0.204777 0.139275 -0.204641
v 0.180660 0.139275 -0.204641
v 0.180660 0.259863 0.023674
v 0.180660 0.054863 0.156321
v 0.180660 0.054863 -0.132287
v 0.204777 0.054863 -0.132287
v 0.204777 0.054863 0.156321
v 0.204777 0.163392 0.192497
v 0.204777 0.259863 0.083968
v 0.180660 0.259863 0.083968
v 0.180660 0.163392 0.192497
v 0.216836 0.030745 0.216616
v 0.216836 0.018686 -0.301110
v 0.216836 0.103098 -0.361406
v 0.216836 0.320157 0.011615
v 0.216836 0.320157 0.059850
v 0.216836 0.151334 0.264852
v 0.204777 0.103098 -0.361406
v 0.204777 0.320157 0.011615
v 0.204777 0.320157 0.059850
v 0.204777 0.030745 0.216616
v 0.204777 0.018686 -0.301110
v 0.204777 0.151334 0.264852
v -0.181106 0.259863 0.023675
v -0.181106 0.139275 -0.204640
v -0.205223 0.139275 -0.204640
v -0.205223 0.259863 0.023675
v -0.205223 0.054863 0.156322
v -0.205223 0.054863 -0.132286
v -0.181106 0.054863 -0.132286
v -0.181106 0.054863 0.156322
v -0.181106 0.163392 0.192498
v -0.181106 0.259863 0.083969
v -0.205223 0.259863 0.083969
v -0.205223 0.163392 0.192498
v -0.217282 0.151334 0.264852
v -0.217282 0.320157 0.059851
v -0.217282 0.320157 0.011616
v -0.217282 0.103098 -0.361405
v -0.217282 0.018686 -0.301110
v -0.217282 0.030745 0.216616
v -0.205223 0.320157 0.011616
v -0.205223 0.103098 -0.361405
v -0.205223 0.320157 0.059851
v -0.205223 0.018686 -0.301110
v -0.205223 0.030745 0.216616
v -0.205223 0.151334 0.264852
v -0.323400 0.071745 0.170793
v -0.323400 0.042804 0.179636
v -0.323400 0.021098 0.199734
v -0.323400 0.013863 0.228675
v -0.323400 0.021098 0.257616
v -0.323400 0.041196 0.279322
v -0.323400 0.071745 0.286557
v -0.323400 0.099079 0.279322
v -0.323400 0.120785 0.259224
v -0.323400 0.129628 0.228675
v -0.323400 0.120785 0.201342
v -0.323400 0.100686 0.179636
v -0.323400 0.252628 -0.017325
v -0.323400 0.228510 -0.010090
v -0.323400 0.211628 0.006792
v -0.323400 0.205196 0.030106
v -0.323400 0.211628 0.054224
v -0.323400 0.228510 0.071106
v -0.323400 0.252628 0.076734
v -0.323400 0.275138 0.071106
v -0.323400 0.292020 0.054224
v -0.323400 0.299255 0.030106
v -0.323400 0.292020 0.006792
v -0.323400 0.275138 -0.010090
v -0.323400 0.098275 -0.266542
v -0.323400 0.117569 -0.286640
v -0.323400 0.124804 -0.313169
v -0.323400 0.117569 -0.339699
v -0.323400 0.096667 -0.358993
v -0.323400 0.071745 -0.366228
v -0.323400 0.043608 -0.358993
v -0.323400 0.024314 -0.338895
v -0.323400 0.018686 -0.313169
v -0.323400 0.024314 -0.285836
v -0.323400 0.045216 -0.266542
v -0.323400 0.071745 -0.260110
v 0.322954 0.100686 0.179635
v 0.322954 0.120785 0.201341
v 0.322954 0.129628 0.228674
v 0.322954 0.120785 0.259223
v 0.322954 0.099079 0.279321
v 0.322954 0.071745 0.286556
v 0.322954 0.041196 0.279321
v 0.322954 0.021098 0.257616
v 0.322954 0.013863 0.228674
v 0.322954 0.021098 0.199733
v 0.322954 0.042804 0.179635
v 0.322954 0.071745 0.170792
v 0.322954 0.275138 -0.010091
v 0.322954 0.292020 0.006791
v 0.322954 0.299255 0.030105
v 0.322954 0.292020 0.054223
v 0.322954 0.275138 0.071105
v 0.322954 0.252628 0.076733
v 0.322954 0.228510 0.071105
v 0.322954 0.211628 0.054223
v 0.322954 0.205196 0.030105
v 0.322954 0.211628 0.006791
v 0.322954 0.228510 -0.010091
v 0.322954 0.252628 -0.017326
v 0.322954 0.071745 -0.260111
v 0.322954 0.045216 -0.266543
v 0.322954 0.024314 -0.285837
v 0.322954 0.018686 -0.313170
v 0.322954 0.024314 -0.338896
v 0.322954 0.043608 -0.358994
v 0.322954 0.071745 -0.366229
v 0.322954 0.096667 -0.358994
v 0.322954 0.117569 -0.339700
v 0.322954 0.124804 -0.313170
v 0.322954 0.117569 -0.286641
v 0.322954 0.098275 -0.266543
v 0.308483 0.115157 -0.313170
v 0.308483 0.069333 -0.358994
v -0.308929 0.069333 -0.358993
v -0.308929 0.115157 -0.313169
v -0.308929 0.023510 -0.313169
v 0.308483 0.023510 -0.313170
v 0.308483 0.069333 -0.267347
v -0.308929 0.069333 -0.267346
v 0.308483 0.115157 0.228675
v 0.308483 0.069333 0.182850
v -0.308929 0.069333 0.182851
v -0.308929 0.115157 0.228675
v -0.308929 0.023510 0.228675
v 0.308483 0.023510 0.228675
v 0.308483 0.069333 0.274498
v -0.308929 0.069333 0.274499
v 0.308483 0.298452 0.028497
v 0.308483 0.252628 -0.017326
v -0.308929 0.252628 -0.017325
v -0.308929 0.298452 0.028498
v -0.308929 0.206804 0.028498
v 0.308483 0.206804 0.028497
v 0.308483 0.252628 0.074321
v -0.308929 0.252628 0.074322
v 0.039973 0.301667 -0.156404
v 0.039973 0.115961 -0.366228
v -0.050870 0.115961 -0.366228
v -0.050870 0.301667 -0.156404
v -0.072576 0.091039 -0.373463
v -0.072576 0.343471 -0.078424
v 0.060071 0.091039 -0.373463
v 0.060071 0.343471 -0.078425
v 0.337425 0.001000 0.235105
v 0.337425 0.001000 0.276909
v 0.216836 0.001000 0.276910
v 0.216836 0.001000 0.235106
v 0.337425 0.001000 0.192497
v 0.216836 0.001000 0.192497
v 0.337425 0.001000 0.150693
v 0.216836 0.001000 0.150694
v 0.337425 0.001000 0.108086
v 0.216836 0.001000 0.108087
v 0.337425 0.001000 0.066282
v 0.216836 0.001000 0.066282
v 0.337425 0.001000 0.023674
v 0.216836 0.001000 0.023674
v 0.337425 0.001000 -0.018130
v 0.216836 0.001000 -0.018130
v 0.337425 0.001000 -0.060738
v 0.216836 0.001000 -0.060737
v 0.337425 0.001000 -0.102542
v 0.216836 0.001000 -0.102542
v 0.337425 0.001000 -0.144346
v 0.216836 0.001000 -0.144346
v 0.337425 0.001000 -0.186954
v 0.216836 0.001000 -0.186954
v 0.337425 0.001000 -0.228758
v 0.216836 0.001000 -0.228758
v 0.337425 0.001000 -0.271366
v 0.216836 0.001000 -0.271365
v 0.337425 0.001000 -0.313170
v 0.216836 0.001000 -0.313170
v 0.337425 0.017078 -0.350955
v 0.216836 0.017078 -0.350955
v 0.337425 0.050843 -0.375072
v 0.216836 0.050843 -0.375071
v 0.337425 0.093451 -0.372660
v 0.216836 0.093451 -0.372660
v 0.337425 0.128020 -0.348543
v 0.216836 0.128020 -0.348543
v 0.337425 0.146510 -0.309954
v 0.216836 0.146510 -0.309954
v 0.337425 0.166608 -0.273778
v 0.216836 0.166608 -0.273778
v 0.337425 0.188314 -0.237601
v 0.216836 0.188314 -0.237601
v 0.337425 0.209216 -0.199817
v 0.216836 0.209216 -0.199817
v 0.337425 0.228510 -0.162837
v 0.216836 0.228510 -0.162837
v 0.337425 0.250216 -0.127464
v 0.216836 0.250216 -0.127464
v 0.337425 0.269510 -0.090483
v 0.216836 0.269510 -0.090483
v 0.337425 0.289608 -0.053503
v 0.216836 0.289608 -0.053503
v 0.337425 0.308099 -0.013307
v 0.216836 0.308099 -0.013307
v 0.337425 0.316138 0.028497
v 0.216836 0.316138 0.028497
v 0.337425 0.310510 0.071909
v 0.216836 0.310510 0.071909
v 0.337425 0.296040 0.109693
v 0.216836 0.296040 0.109693
v 0.337425 0.265491 0.145870
v 0.216836 0.265491 0.145870
v 0.337425 0.238961 0.177223
v 0.216836 0.238961 0.177223
v 0.337425 0.214040 0.210988
v 0.216836 0.214040 0.210988
v 0.337425 0.187510 0.243145
v 0.216836 0.187510 0.243145
v 0.337425 0.156961 0.274498
v 0.216836 0.156961 0.274498
v 0.337425 0.119981 0.295400
v 0.216836 0.119981 0.295400
v 0.337425 0.077373 0.301831
v 0.216836 0.077373 0.301832
v 0.337425 0.033961 0.297811
v 0.216836 0.033961 0.297812
v 0.337425 0.301667 0.030105
v 0.337425 0.296040 -0.012503
v 0.337425 0.296040 0.071909
v 0.337425 0.282373 0.105674
v 0.337425 0.119981 0.285753
v 0.337425 0.154549 0.264851
v 0.337425 0.009843 0.267262
v 0.337425 0.041196 0.288164
v 0.337425 0.081392 0.292988
v 0.337425 0.095863 -0.358994
v 0.337425 0.057275 -0.360602
v 0.337425 0.025922 -0.337288
v 0.337425 0.120785 -0.337288
v 0.337425 0.009843 -0.301111
v -0.217282 0.001000 0.235106
v -0.217282 0.001000 0.276910
v -0.337871 0.001000 0.276910
v -0.337871 0.001000 0.235106
v -0.217282 0.001000 0.192498
v -0.337871 0.001000 0.192498
v -0.217282 0.001000 0.150694
v -0.337871 0.001000 0.150694
v -0.217282 0.001000 0.108087
v -0.337871 0.001000 0.108087
v -0.217282 0.001000 0.066283
v -0.337871 0.001000 0.066283
v -0.217282 0.001000 0.023675
v -0.337871 0.001000 0.023675
v -0.217282 0.001000 -0.018129
v -0.337871 0.001000 -0.018129
v -0.217282 0.001000 -0.060737
v -0.337871 0.001000 -0.060737
v -0.217282 0.001000 -0.102541
v -0.337871 0.001000 -0.102541
v -0.217282 0.001000 -0.144345
v -0.337871 0.001000 -0.144345
v -0.217282 0.001000 -0.186953
v -0.337871 0.001000 -0.186953
v -0.217282 0.001000 -0.228757
v -0.337871 0.001000 -0.228757
v -0.217282 0.001000 -0.271365
v -0.337871 0.001000 -0.271365
v -0.217282 0.001000 -0.313169
v -0.337871 0.001000 -0.313169
v -0.217282 0.017078 -0.350954
v -0.337871 0.017078 -0.350954
v -0.217282 0.050843 -0.375071
v -0.337871 0.050843 -0.375071
v -0.217282 0.093451 -0.372659
v -0.337871 0.093451 -0.372659
v -0.217282 0.128020 -0.348542
v -0.337871 0.128020 -0.348542
v -0.217282 0.146510 -0.309953
v -0.337871 0.146510 -0.309953
v -0.217282 0.166608 -0.273777
v -0.337871 0.166608 -0.273777
v -0.217282 0.188314 -0.237600
v -0.337871 0.188314 -0.237600
v -0.217282 0.209216 -0.199816
v -0.337871 0.209216 -0.199816
v -0.217282 0.228510 -0.162836
v -0.337871 0.228510 -0.162836
v -0.217282 0.250216 -0.127463
v -0.337871 0.250216 -0.127463
v -0.217282 0.269510 -0.090482
v -0.337871 0.269510 -0.090482
v -0.217282 0.289608 -0.053502
v -0.337871 0.289608 -0.053502
v -0.217282 0.308099 -0.013306
v -0.337871 0.308099 -0.013306
v -0.217282 0.316138 0.028498
v -0.337871 0.316138 0.028498
v -0.217282 0.310510 0.071910
v -0.337871 0.310510 0.071910
v -0.217282 0.296040 0.109694
v -0.337871 0.296040 0.109694
v -0.217282 0.265491 0.145871
v -0.337871 0.265491 0.145871
v -0.217282 0.238961 0.177224
v -0.337871 0.238961 0.177224
v -0.217282 0.214040 0.210989
v -0.337871 0.214040 0.210989
v -0.217282 0.187510 0.243146
v -0.337871 0.187510 0.243146
v -0.217282 0.156961 0.274499
v -0.337871 0.156961 0.274499
v -0.217282 0.119981 0.295401
v -0.337871 0.119981 0.295401
v -0.217282 0.077373 0.301832
v -0.337871 0.077373 0.301832
v -0.217282 0.033961 0.297812
v -0.337871 0.033961 0.297812
v -0.337871 0.296040 -0.012502
v -0.337871 0.301667 0.030106
v -0.337871 0.296040 0.071910
v -0.337871 0.282373 0.105675
v -0.337871 0.154549 0.264852
v -0.337871 0.119981 0.285754
v -0.337871 0.041196 0.288165
v -0.337871 0.009843 0.267263
v -0.337871 0.081392 0.292989
v -0.337871 0.057275 -0.360601
v -0.337871 0.095863 -0.358993
v -0.337871 0.025922 -0.337287
v -0.337871 0.120785 -0.337287
v -0.337871 0.009843 -0.301110
vn -1.0000 -0.0000 -0.0000
vn 1.0000 -0.0000 -0.0000
vn -0.0000 0.8542 -0.5199
vn -0.0000 1.0000 -0.0000
vn -0.0000 -1.0000 -0.0000
vn -0.0000 0.7593 0.6508
vn -0.0000 -0.3714 0.9285
vn -0.0000 -0.5145 -0.8575
vn 0.4005 0.9163 -0.0000
vn -0.4005 0.9163 -0.0000
vn -0.0000 0.1178 0.9930
vn -0.5276 0.6455 -0.5523
vn 0.5276 0.6455 -0.5523
vn 0.8627 0.5057 -0.0000
vn -0.9240 0.3823 -0.0000
vn -0.0000 0.4594 -0.8882
vn -0.0000 0.9031 0.4294
vn 0.5300 -0.0000 -0.8480
vn -0.0000 -0.0000 1.0000
vn -0.5300 -0.0000 -0.8480
vn -0.0000 -0.7071 -0.7071
vn -0.0000 0.7071 -0.7071
vn -0.0000 -0.8944 0.4472
vn -0.0000 -0.8944 -0.4472
vn -0.0000 0.0926 0.9957
vn 0.9589 0.1984 0.2030
vn -0.0000 0.5944 0.8042
vn -0.9589 0.1984 0.2030
vn 0.0794 -0.9968 -0.0000
vn 0.0969 0.9953 -0.0000
vn 0.4246 -0.0000 0.9054
vn -0.0801 -0.9968 -0.0000
vn -0.0977 0.9952 -0.0000
vn -0.4277 -0.0000 0.9039
vn -0.0000 0.6296 -0.7769
vn -0.0000 -0.6296 0.7769
vn -0.0000 -0.8842 0.4670
vn -0.0000 0.7474 0.6644
vn -0.0000 0.8643 -0.5029
vn -0.0000 -0.9997 0.0233
vn -0.0000 0.7719 0.6357
vn -0.0000 -0.5812 -0.8137
vn -0.0000 0.7071 0.7071
vn -0.0000 -0.7071 0.7071
vn -0.0000 0.7488 -0.6628
vn -0.6123 0.5971 -0.5182
vn -0.0000 0.2788 -0.9604
vn 0.6416 0.5793 -0.5028
vn -0.0000 0.8813 -0.4725
vn -0.0000 0.0565 -0.9984
vn -0.0000 0.5722 -0.8201
vn -0.0000 0.9018 -0.4321
vn -0.0000 0.8742 -0.4856
vn -0.0000 0.8575 -0.5145
vn -0.0000 0.8750 -0.4841
vn -0.0000 0.8523 -0.5230
vn -0.0000 0.9085 -0.4179
vn -0.0000 0.9820 -0.1888
vn -0.0000 0.9339 0.3576
vn -0.0000 0.7640 0.6452
vn -0.0000 0.7634 0.6459
vn -0.0000 0.8046 0.5938
vn -0.0000 0.7714 0.6364
vn -0.0000 0.4921 0.8706
vn -0.0000 -0.0922 0.9957
vn -0.0000 0.8866 -0.4626
vn -0.0000 0.9917 0.1286
vn -0.0000 0.7162 0.6979
vn -0.0000 0.1492 0.9888
vn -0.0000 -0.5355 0.8445
vn -0.0000 -0.9202 -0.3915
vn -0.0000 0.8786 -0.4775
vt 0.259579 0.788462
vt 0.482077 0.788462
vt 1.000000 0.788462
vt 0.944377 0.788462
vt 0.074165 0.788462
vt 0.000000 0.788462
vt 0.000000 0.211538
vt 0.074165 0.211538
vt 0.944377 0.211538
vt 1.000000 0.211538
vt 0.482077 0.211538
vt 0.259579 0.211538
vt 0.259579 0.230769
vt 0.472187 0.230769
vt 0.546354 0.403847
vt 0.268232 0.403847
vt 0.268232 0.615385
vt 0.546354 0.615385
vt 0.472187 0.788462
vt 1.000000 0.615385
vt 1.000000 0.403847
vt 0.286774 0.419231
vt 0.470951 0.419231
vt 0.470951 0.593589
vt 0.286774 0.593589
vt 0.647713 0.000000
vt 0.490729 0.000000
vt 0.490729 0.153847
vt 0.740421 0.153847
vt 0.740421 0.846153
vt 0.490729 0.846153
vt 0.490729 1.000000
vt 0.647713 1.000000
vt 0.895592 0.311950
vt 0.982598 0.311950
vt 1.000000 0.311950
vt 0.947797 0.311950
vt 0.947797 0.368553
vt 1.000000 0.368553
vt 0.982598 0.368553
vt 0.895592 0.368553
vt 0.947797 0.689308
vt 1.000000 0.689308
vt 0.982598 0.689308
vt 0.895592 0.689308
vt 0.895592 0.632705
vt 0.982598 0.632705
vt 1.000000 0.632705
vt 0.947797 0.632705
vt 0.165893 0.311950
vt 0.808585 0.311950
vt 0.843387 0.311950
vt 0.131091 0.311950
vt 0.131091 0.368553
vt 0.843387 0.368553
vt 0.808585 0.368553
vt 0.165893 0.368553
vt 0.131091 0.689308
vt 0.843387 0.689308
vt 0.808585 0.689308
vt 0.165893 0.689308
vt 0.165893 0.632705
vt 0.808585 0.632705
vt 0.843387 0.632705
vt 0.131091 0.632705
vt 0.075406 0.727044
vt 0.075406 0.632705
vt 0.080047 0.651573
vt 0.080047 0.708176
vt 0.252901 0.632705
vt 0.198376 0.651573
vt 0.198376 0.708176
vt 0.252901 0.727044
vt 0.080047 0.293082
vt 0.080047 0.349685
vt 0.075406 0.368553
vt 0.075406 0.274214
vt 0.198376 0.349685
vt 0.252901 0.368553
vt 0.198376 0.293082
vt 0.252901 0.274214
vt 0.556844 0.018867
vt 0.287703 0.018867
vt 0.226218 0.161006
vt 0.617169 0.161006
vt 0.617169 0.840252
vt 0.226218 0.840252
vt 0.287703 0.981133
vt 0.556844 0.981133
vt 0.461718 1.000000
vt 0.448957 1.000000
vt 0.421113 1.000000
vt 0.382831 1.000000
vt 0.343388 1.000000
vt 0.315545 1.000000
vt 0.305105 1.000000
vt 0.801624 1.000000
vt 0.832947 1.000000
vt 0.877030 1.000000
vt 0.918793 1.000000
vt 0.950116 1.000000
vt 0.961718 1.000000
vt 0.791184 1.000000
vt 0.191416 1.000000
vt 0.177495 1.000000
vt 0.142692 1.000000
vt 0.096288 1.000000
vt 0.047564 1.000000
vt 0.012762 1.000000
vt 0.000000 1.000000
vt 0.448957 0.000000
vt 0.421113 0.000000
vt 0.382831 0.000000
vt 0.343388 0.000000
vt 0.315545 0.000000
vt 0.305105 0.000000
vt 0.461718 0.000000
vt 0.791184 0.000000
vt 0.801624 0.000000
vt 0.832947 0.000000
vt 0.877030 0.000000
vt 0.918793 0.000000
vt 0.950116 0.000000
vt 0.961718 0.000000
vt 0.177495 0.000000
vt 0.142692 0.000000
vt 0.096288 0.000000
vt 0.047564 0.000000
vt 0.012762 0.000000
vt 0.000000 0.000000
vt 0.191416 0.000000
vt 0.703703 0.163935
vt 0.648148 0.163935
vt 0.629630 0.228143
vt 0.722222 0.228143
vt 0.277778 0.228143
vt 0.296297 0.163935
vt 0.351852 0.163935
vt 0.370370 0.228143
vt 0.000000 0.943989
vt 0.000000 0.931694
vt 0.000000 0.926229
vt 0.000000 0.963115
vt 0.000000 0.980874
vt 0.000000 0.993170
vt 0.000000 0.363389
vt 0.000000 0.351094
vt 0.000000 0.346995
vt 0.000000 0.381148
vt 0.000000 0.396175
vt 0.000000 0.408470
vt 0.000000 0.413935
vt 0.000000 0.020492
vt 0.000000 0.006831
vt 0.000000 0.043717
vt 0.000000 0.060110
vt 0.000000 0.073771
vt 0.000000 0.081968
vt 1.000000 0.963115
vt 1.000000 0.980874
vt 1.000000 0.993170
vt 1.000000 1.000000
vt 1.000000 0.943989
vt 1.000000 0.931694
vt 1.000000 0.926229
vt 1.000000 0.381148
vt 1.000000 0.396175
vt 1.000000 0.408470
vt 1.000000 0.413935
vt 1.000000 0.363389
vt 1.000000 0.351094
vt 1.000000 0.346995
vt 1.000000 0.043717
vt 1.000000 0.060110
vt 1.000000 0.073771
vt 1.000000 0.081968
vt 1.000000 0.020492
vt 1.000000 0.006831
vt 1.000000 0.000000
vt 0.402708 0.182836
vt 0.402708 0.220149
vt 0.752464 0.220149
vt 0.752464 0.182836
vt 0.199507 0.220149
vt 0.641625 0.220149
vt 0.641625 0.182836
vt 0.199507 0.182836
vt 0.144089 0.182836
vt 0.310344 0.182836
vt 0.310344 0.220149
vt 0.144089 0.220149
vt 0.107142 0.164179
vt 0.900246 0.164179
vt 0.992612 0.164179
vt 0.421182 0.164179
vt 0.347290 0.164179
vt 0.033250 0.164179
vt 0.992612 0.182836
vt 0.421182 0.182836
vt 0.347290 0.182836
vt 0.107142 0.182836
vt 0.900246 0.182836
vt 0.033250 0.182836
vt 0.402708 0.779851
vt 0.402708 0.817164
vt 0.752464 0.817164
vt 0.752464 0.779851
vt 0.199507 0.817164
vt 0.641625 0.817164
vt 0.641625 0.779851
vt 0.199507 0.779851
vt 0.144089 0.779851
vt 0.310344 0.779851
vt 0.310344 0.817164
vt 0.144089 0.817164
vt 0.033250 0.835821
vt 0.347290 0.835821
vt 0.421182 0.835821
vt 0.992612 0.835821
vt 0.900246 0.835821
vt 0.107142 0.835821
vt 0.421182 0.817164
vt 0.992612 0.817164
vt 0.347290 0.817164
vt 0.900246 0.817164
vt 0.107142 0.817164
vt 0.033250 0.817164
vt 0.177339 1.000000
vt 0.163792 1.000000
vt 0.133004 1.000000
vt 0.088669 1.000000
vt 0.044335 1.000000
vt 0.011083 1.000000
vt 0.041871 1.000000
vt 0.130541 1.000000
vt 0.465516 1.000000
vt 0.454433 1.000000
vt 0.428571 1.000000
vt 0.392857 1.000000
vt 0.355910 1.000000
vt 0.330049 1.000000
vt 0.321427 1.000000
vt 0.847291 1.000000
vt 0.878079 1.000000
vt 0.918719 1.000000
vt 0.959360 1.000000
vt 0.988917 1.000000
vt 0.958129 1.000000
vt 0.876848 1.000000
vt 0.837438 1.000000
vt 0.163792 0.000000
vt 0.130541 0.000000
vt 0.088669 0.000000
vt 0.041871 0.000000
vt 0.011083 0.000000
vt 0.044335 0.000000
vt 0.133004 0.000000
vt 0.177339 0.000000
vt 0.454433 0.000000
vt 0.428571 0.000000
vt 0.392857 0.000000
vt 0.355910 0.000000
vt 0.330049 0.000000
vt 0.321427 0.000000
vt 0.465516 0.000000
vt 0.837438 0.000000
vt 0.847291 0.000000
vt 0.876848 0.000000
vt 0.918719 0.000000
vt 0.958129 0.000000
vt 0.988917 0.000000
vt 0.959360 0.000000
vt 0.878079 0.000000
vt 0.918719 0.022389
vt 0.988917 0.022389
vt 0.988917 0.977611
vt 0.918719 0.977611
vt 0.848523 0.022389
vt 0.848523 0.977611
vt 0.088669 0.022389
vt 0.158867 0.022389
vt 0.158867 0.977611
vt 0.088669 0.977611
vt 0.018472 0.022389
vt 0.018472 0.977611
vt 0.395320 0.022389
vt 0.465516 0.022389
vt 0.465516 0.977611
vt 0.395320 0.977611
vt 0.325122 0.022389
vt 0.325122 0.977611
vt 0.264304 0.834395
vt 0.975478 0.098728
vt 0.098575 0.000000
vt 0.036818 0.000000
vt 0.036818 0.178572
vt 0.098575 0.178572
vt 0.161521 0.000000
vt 0.161521 0.178572
vt 0.223279 0.000000
vt 0.223279 0.178572
vt 0.286223 0.000000
vt 0.286223 0.178572
vt 0.410926 0.000000
vt 0.347980 0.000000
vt 0.347980 0.178572
vt 0.410926 0.178572
vt 0.472684 0.000000
vt 0.472684 0.178572
vt 0.535629 0.000000
vt 0.535629 0.178572
vt 0.722090 0.000000
vt 0.659145 0.000000
vt 0.659145 0.178572
vt 0.722090 0.178572
vt 0.846793 0.000000
vt 0.783848 0.000000
vt 0.783848 0.178572
vt 0.846793 0.178572
vt 0.964372 0.000000
vt 0.964372 0.178572
vt 1.000000 0.178572
vt 0.996437 0.000000
vt 0.996437 0.178572
vt 0.960808 0.000000
vt 0.960808 0.178572
vt 0.903800 0.000000
vt 0.903800 0.178572
vt 0.850357 0.000000
vt 0.850357 0.178572
vt 0.796912 0.000000
vt 0.796912 0.178572
vt 0.741093 0.000000
vt 0.741093 0.178572
vt 0.634205 0.000000
vt 0.686462 0.000000
vt 0.686462 0.178572
vt 0.634205 0.178572
vt 0.465559 0.000000
vt 0.524941 0.000000
vt 0.524941 0.178572
vt 0.465559 0.178572
vt 0.403801 0.000000
vt 0.403801 0.178572
vt 0.283849 0.000000
vt 0.339668 0.000000
vt 0.339668 0.178572
vt 0.283849 0.178572
vt 0.230404 0.000000
vt 0.230404 0.178572
vt 0.184085 0.000000
vt 0.184085 0.178572
vt 0.134204 0.000000
vt 0.134204 0.178572
vt 0.086698 0.000000
vt 0.086698 0.178572
vt 0.009501 0.000000
vt 0.040379 0.000000
vt 0.040379 0.178572
vt 0.009501 0.178572
vt 0.005939 0.000000
vt 0.000000 0.178572
vt 0.005939 0.178572
vt 0.401425 0.000000
vt 0.464371 0.000000
vt 0.013064 0.000000
vt 0.023752 0.000000
vt 0.976248 0.000000
vt 0.978623 0.000000
vt 0.944181 0.000000
vt 0.908551 0.000000
vt 0.890736 0.000000
vt 0.054631 0.000000
vt 0.289786 0.000000
vt 0.098575 0.821428
vt 0.036818 0.821428
vt 0.036818 1.000000
vt 0.098575 1.000000
vt 0.286223 0.821428
vt 0.223279 0.821428
vt 0.223279 1.000000
vt 0.286223 1.000000
vt 0.472684 0.821428
vt 0.410926 0.821428
vt 0.410926 1.000000
vt 0.472684 1.000000
vt 0.535629 0.821428
vt 0.535629 1.000000
vt 0.597387 0.821428
vt 0.597387 1.000000
vt 0.722090 0.821428
vt 0.659145 0.821428
vt 0.659145 1.000000
vt 0.722090 1.000000
vt 0.846793 0.821428
vt 0.783848 0.821428
vt 0.783848 1.000000
vt 0.846793 1.000000
vt 0.960808 0.821428
vt 0.996437 0.821428
vt 0.996437 1.000000
vt 0.960808 1.000000
vt 0.796912 0.821428
vt 0.850357 0.821428
vt 0.850357 1.000000
vt 0.796912 1.000000
vt 0.634205 0.821428
vt 0.686462 0.821428
vt 0.686462 1.000000
vt 0.634205 1.000000
vt 0.579572 0.821428
vt 0.579572 1.000000
vt 0.465559 0.821428
vt 0.524941 0.821428
vt 0.524941 1.000000
vt 0.465559 1.000000
vt 0.403801 0.821428
vt 0.403801 1.000000
vt 0.339668 0.821428
vt 0.339668 1.000000
vt 0.134204 0.821428
vt 0.184085 0.821428
vt 0.184085 1.000000
vt 0.134204 1.000000
vt 0.086698 0.821428
vt 0.086698 1.000000
vt 0.040379 0.821428
vt 0.040379 1.000000
vt 0.009501 0.821428
vt 0.009501 1.000000
vt 0.000000 0.821428
vt 0.005939 0.821428
vt 0.005939 1.000000
vt 0.464371 1.000000
vt 0.401425 1.000000
vt 0.283849 1.000000
vt 0.289786 1.000000
vt 0.054631 1.000000
vt 0.023752 1.000000
vt 0.978623 1.000000
vt 0.976248 1.000000
vt 0.944181 1.000000
vt 0.964372 1.000000
vt 0.597387 0.178572
vt 0.597387 0.000000
vt 0.908551 0.178572
vt 0.579572 0.178572
vt 0.579572 0.000000
vt 0.020190 0.000000
vt 0.051069 0.000000
vt 0.161521 1.000000
vt 0.161521 0.821428
vt 0.347980 1.000000
vt 0.347980 0.821428
vt 0.908551 1.000000
vt 0.908551 0.821428
vt 0.964372 0.821428
vt 1.000000 0.821428
vt 0.903800 1.000000
vt 0.903800 0.821428
vt 0.741093 1.000000
vt 0.741093 0.821428
vt 0.283849 0.821428
vt 0.230404 1.000000
vt 0.230404 0.821428
vt 0.020190 1.000000
vt 0.051069 1.000000
vt 0.013064 1.000000
vt 0.890736 1.000000
s 0
usemtl Robot_Blue
f 1/1/1 2/2/1 3/3/1 4/4/1 5/5/1 6/6/1
f 7/7/2 8/8/2 9/9/2 10/10/2 11/11/2 12/12/2
f 11/11/3 10/10/3 3/3/3 2/2/3
f 12/12/4 11/11/4 2/2/4 1/1/4
f 5/5/5 4/4/5 9/9/5 8/8/5
f 7/7/6 12/12/6 1/1/6 6/6/6
f 6/6/7 5/5/7 8/8/7 7/7/7
f 4/4/8 3/3/8 10/10/8 9/9/8
f 13/13/9 14/14/9 15/15/9 16/16/9
f 17/17/10 18/18/10 19/19/10 1/1/10
f 13/13/11 16/16/11 17/17/11 1/1/11
f 18/18/12 20/20/12 19/19/12
f 14/14/13 21/21/13 15/15/13
f 22/22/4 23/23/4 24/24/4 25/25/4
f 25/25/14 24/24/14 18/18/14 17/17/14
f 16/16/15 15/15/15 23/23/15 22/22/15
f 22/22/16 25/25/16 17/17/16 16/16/16
f 15/15/17 18/18/17 24/24/17 23/23/17
f 26/26/5 27/27/5 28/28/5 29/29/5
f 30/29/4 31/28/4 32/27/4 33/26/4
f 33/26/2 32/27/2 27/27/2 26/26/2
f 26/26/18 29/29/18 30/29/18 33/26/18
f 32/27/19 31/28/19 28/28/19 27/27/19
f 34/30/5 35/31/5 36/32/5 37/33/5
f 38/33/4 39/32/4 40/31/4 41/30/4
f 37/33/1 36/32/1 39/32/1 38/33/1
f 38/33/20 41/30/20 34/30/20 37/33/20
f 36/32/19 35/31/19 40/31/19 39/32/19
usemtl Robot_White
f 42/34/2 43/34/2 44/35/2 45/36/2 46/37/2
f 47/38/1 48/39/1 49/40/1 50/41/1 51/41/1
f 49/40/21 48/39/21 45/36/21 44/35/21
f 46/37/22 45/36/22 48/39/22 47/38/22
f 50/41/5 49/40/5 44/35/5 43/34/5
f 43/34/19 42/34/19 51/41/19 50/41/19
f 52/42/1 53/43/1 54/44/1 55/45/1 56/45/1
f 57/46/2 58/46/2 59/47/2 60/48/2 61/49/2
f 54/44/21 53/43/21 60/48/21 59/47/21
f 61/49/22 60/48/22 53/43/22 52/42/22
f 55/45/5 54/44/5 59/47/5 58/46/5
f 58/46/19 57/46/19 56/45/19 55/45/19
f 62/50/2 63/51/2 64/52/2 65/53/2
f 66/54/1 67/55/1 68/56/1 69/57/1
f 69/57/5 68/56/5 63/51/5 62/50/5
f 66/54/23 69/57/23 62/50/23 65/53/23
f 68/56/24 67/55/24 64/52/24 63/51/24
f 70/58/1 71/59/1 72/60/1 73/61/1
f 74/62/2 75/63/2 76/64/2 77/65/2
f 73/61/5 72/60/5 75/63/5 74/62/5
f 70/58/23 73/61/23 74/62/23 77/65/23
f 72/60/24 71/59/24 76/64/24 75/63/24
f 78/66/25 79/67/25 80/68/25 81/69/25
f 80/68/26 79/67/26 82/70/26 83/71/26
f 81/69/27 80/68/27 83/71/27 84/72/27
f 78/66/28 81/69/28 84/72/28 85/73/28
f 86/74/25 87/75/25 88/76/25 89/77/25
f 90/78/28 91/79/28 88/76/28 87/75/28
f 92/80/27 90/78/27 87/75/27 86/74/27
f 93/81/26 92/80/26 86/74/26 89/77/26
f 94/82/29 95/83/29 96/84/29 97/85/29
f 98/85/30 99/84/30 100/83/30 101/82/30
f 101/82/2 100/83/2 95/83/2 94/82/2
f 100/83/31 99/84/31 96/84/31 95/83/31
f 102/86/32 103/87/32 104/88/32 105/89/32
f 106/89/33 107/88/33 108/87/33 109/86/33
f 105/89/1 104/88/1 107/88/1 106/89/1
f 104/88/34 103/87/34 108/87/34 107/88/34
f 110/90/1 111/91/1 112/92/1 113/93/1 114/94/1 115/95/1 116/96/1 117/95/1 118/94/1 119/93/1 120/92/1 121/91/1
f 122/97/1 123/98/1 124/99/1 125/100/1 126/101/1 127/102/1 128/101/1 129/100/1 130/99/1 131/98/1 132/97/1 133/103/1
f 134/104/1 135/105/1 136/106/1 137/107/1 138/108/1 139/109/1 140/110/1 141/109/1 142/108/1 143/107/1 144/106/1 145/105/1
f 146/111/2 147/112/2 148/113/2 149/114/2 150/115/2 151/116/2 152/115/2 153/114/2 154/113/2 155/112/2 156/111/2 157/117/2
f 158/118/2 159/119/2 160/120/2 161/121/2 162/122/2 163/123/2 164/124/2 165/123/2 166/122/2 167/121/2 168/120/2 169/119/2
f 170/125/2 171/126/2 172/127/2 173/128/2 174/129/2 175/130/2 176/129/2 177/128/2 178/127/2 179/126/2 180/125/2 181/131/2
usemtl Robot_White
f 182/132/35 183/133/35 184/134/35 185/135/35
f 186/136/36 189/137/36 188/138/36 187/139/36
f 190/140/2 191/141/2 192/142/2 193/141/2 194/140/2 195/143/2 196/144/2 197/145/2 198/110/2 199/145/2 200/144/2 201/143/2
f 202/146/2 203/147/2 204/148/2 205/147/2 206/146/2 207/149/2 208/150/2 209/151/2 210/152/2 211/151/2 212/150/2 213/149/2
f 214/153/2 215/154/2 216/130/2 217/154/2 218/153/2 219/155/2 220/156/2 221/157/2 222/158/2 223/157/2 224/156/2 225/155/2
f 226/159/1 227/160/1 228/161/1 229/162/1 230/161/1 231/160/1 232/159/1 233/163/1 234/164/1 235/165/1 236/164/1 237/163/1
f 238/166/1 239/167/1 240/168/1 241/169/1 242/168/1 243/167/1 244/166/1 245/170/1 246/171/1 247/172/1 248/171/1 249/170/1
f 250/173/1 251/174/1 252/175/1 253/176/1 254/175/1 255/174/1 256/173/1 257/177/1 258/178/1 259/179/1 260/178/1 261/177/1
usemtl Robot_Glay
f 262/180/37 265/181/37 264/182/37 263/183/37
f 266/184/5 267/185/5 268/186/5 269/187/5
f 270/188/38 271/189/38 272/190/38 273/191/38
f 274/192/2 275/193/2 276/194/2 277/195/2 278/196/2 279/197/2
f 277/195/39 276/194/39 280/198/39 281/199/39
f 278/196/4 277/195/4 281/199/4 282/200/4
f 283/201/40 284/202/40 275/193/40 274/192/40
f 279/197/41 278/196/41 282/200/41 285/203/41
f 285/203/7 283/201/7 274/192/7 279/197/7
f 284/202/42 280/198/42 276/194/42 275/193/42
f 286/204/37 289/205/37 288/206/37 287/207/37
f 290/208/5 291/209/5 292/210/5 293/211/5
f 294/212/38 295/213/38 296/214/38 297/215/38
f 298/216/1 299/217/1 300/218/1 301/219/1 302/220/1 303/221/1
f 304/222/39 305/223/39 301/219/39 300/218/39
f 306/224/4 304/222/4 300/218/4 299/217/4
f 303/221/40 302/220/40 307/225/40 308/226/40
f 309/227/41 306/224/41 299/217/41 298/216/41
f 298/216/7 303/221/7 308/226/7 309/227/7
f 302/220/42 301/219/42 305/223/42 307/225/42
f 310/228/1 311/229/1 312/230/1 313/231/1 314/232/1 315/233/1 316/110/1 317/233/1 318/234/1 319/231/1 320/235/1 321/229/1
f 322/236/1 323/237/1 324/238/1 325/239/1 326/240/1 327/241/1 328/242/1 329/241/1 330/240/1 331/239/1 332/238/1 333/237/1
f 334/243/1 335/244/1 336/245/1 337/246/1 338/247/1 339/162/1 340/247/1 341/248/1 342/245/1 343/249/1 344/243/1 345/250/1
f 346/251/2 347/252/2 348/253/2 349/254/2 350/255/2 351/130/2 352/255/2 353/256/2 354/253/2 355/257/2 356/251/2 357/258/2
f 358/259/2 359/260/2 360/261/2 361/262/2 362/263/2 363/264/2 364/263/2 365/262/2 366/261/2 367/260/2 368/259/2 369/265/2
f 370/266/2 371/267/2 372/268/2 373/269/2 374/270/2 375/271/2 376/179/2 377/271/2 378/272/2 379/269/2 380/273/2 381/267/2
f 382/274/22 383/275/22 384/276/22 385/277/22
f 386/277/21 384/276/21 383/275/21 387/274/21
f 388/278/43 382/274/43 385/277/43 389/279/43
f 389/279/44 386/277/44 387/274/44 388/278/44
f 390/280/22 391/281/22 392/282/22 393/283/22
f 394/283/21 392/282/21 391/281/21 395/280/21
f 396/284/43 390/280/43 393/283/43 397/285/43
f 397/285/44 394/283/44 395/280/44 396/284/44
f 398/286/22 399/287/22 400/288/22 401/289/22
f 402/289/21 400/288/21 399/287/21 403/286/21
f 404/290/43 398/286/43 401/289/43 405/291/43
f 405/291/44 402/289/44 403/286/44 404/290/44
usemtl Robot_Red
f 406/292/45 407/293/45 408/293/45 409/292/45
f 409/292/46 408/293/46 410/179/46 411/110/46
f 412/179/47 410/179/47 408/293/47 407/293/47
f 413/110/48 412/179/48 407/293/48 406/292/48
f 406/292/49 409/292/49 411/110/49 413/110/49
usemtl Robot_Cat
f 414/294/5 415/295/5 416/296/5 417/297/5
f 418/298/5 414/294/5 417/297/5 419/299/5
f 420/300/5 418/298/5 419/299/5 421/301/5
f 422/302/5 420/300/5 421/301/5 423/303/5
f 426/304/5 424/305/5 425/306/5 427/307/5
f 428/308/5 426/304/5 427/307/5 429/309/5
f 430/310/5 428/308/5 429/309/5 431/311/5
f 436/312/5 434/313/5 435/314/5 437/315/5
f 440/316/5 438/317/5 439/318/5 441/319/5
f 446/179/42 444/320/42 445/321/42 447/322/42
f 448/323/50 446/179/50 447/322/50 449/324/50
f 450/325/51 448/323/51 449/324/51 451/326/51
f 452/327/52 450/325/52 451/326/52 453/328/52
f 454/329/53 452/327/53 453/328/53 455/330/53
f 456/331/54 454/329/54 455/330/54 457/332/54
f 458/333/55 456/331/55 457/332/55 459/334/55
f 462/335/56 460/336/56 461/337/56 463/338/56
f 468/339/57 466/340/57 467/341/57 469/342/57
f 470/343/58 468/339/58 469/342/58 471/344/58
f 474/345/59 472/346/59 473/347/59 475/348/59
f 476/349/60 474/345/60 475/348/60 477/350/60
f 478/351/61 476/349/61 477/350/61 479/352/61
f 480/353/62 478/351/62 479/352/62 481/354/62
f 482/355/63 480/353/63 481/354/63 483/356/63
f 486/357/64 484/358/64 485/359/64 487/360/64
f 490/361/65 488/130/65 489/362/65 491/363/65
f 492/364/2 493/365/2 468/339/2 470/343/2
f 500/366/2 496/367/2 486/357/2 488/130/2
f 501/368/2 502/369/2 446/179/2 448/323/2
f 444/320/2 446/179/2 502/369/2 503/370/2
f 504/370/2 501/368/2 448/323/2 450/325/2
f 442/371/2 444/320/2 503/370/2 505/372/2
f 480/353/2 482/355/2 484/358/2 497/373/2 495/374/2 474/345/2 476/349/2 478/351/2
f 506/375/5 507/376/5 508/377/5 509/378/5
f 514/379/5 512/380/5 513/381/5 515/382/5
f 520/383/5 518/384/5 519/385/5 521/386/5
f 522/387/5 520/383/5 521/386/5 523/388/5
f 524/389/5 522/387/5 523/388/5 525/390/5
f 528/391/5 526/392/5 527/393/5 529/394/5
f 532/395/5 530/396/5 531/397/5 533/398/5
f 542/399/51 540/400/51 541/401/51 543/402/51
f 548/403/54 546/404/54 547/405/54 549/406/54
f 554/407/56 552/408/56 553/409/56 555/410/56
f 556/411/66 554/407/66 555/410/66 557/412/66
f 560/413/57 558/414/57 559/415/57 561/416/57
f 562/417/58 560/413/58 561/416/58 563/418/58
f 564/419/67 562/417/67 563/418/67 565/420/67
f 572/421/62 570/422/62 571/423/62 573/424/62
f 574/425/63 572/421/63 573/424/63 575/426/63
f 576/427/68 574/425/68 575/426/68 577/428/68
f 578/429/64 576/427/64 577/428/64 579/430/64
f 580/431/69 578/429/69 579/430/69 581/110/69
f 507/376/70 582/432/70 583/433/70 508/377/70
f 563/418/1 561/416/1 584/434/1 585/435/1
f 565/420/1 563/418/1 585/435/1 586/420/1
f 567/436/1 565/420/1 586/420/1 587/437/1
f 579/430/1 577/428/1 588/438/1 589/439/1
f 541/401/1 539/162/1 593/440/1 594/441/1
f 595/442/1 593/440/1 539/162/1 537/443/1
f 425/306/5 424/305/5 422/302/5 423/303/5
f 433/444/5 432/445/5 430/310/5 431/311/5
f 435/314/5 434/313/5 432/445/5 433/444/5
f 439/318/5 438/317/5 436/312/5 437/315/5
f 443/446/5 442/371/5 440/316/5 441/319/5
f 445/321/71 444/320/71 442/371/71 443/446/71
f 461/337/66 460/336/66 458/333/66 459/334/66
f 465/447/66 464/448/66 462/335/66 463/338/66
f 467/341/72 466/340/72 464/448/72 465/447/72
f 473/347/67 472/346/67 470/343/67 471/344/67
f 485/359/68 484/358/68 482/355/68 483/356/68
f 489/362/69 488/130/69 486/357/69 487/360/69
f 416/296/70 415/295/70 490/361/70 491/363/70
f 472/346/2 494/346/2 492/364/2 470/343/2
f 474/345/2 495/374/2 494/346/2 472/346/2
f 486/357/2 496/367/2 497/373/2 484/358/2
f 499/449/2 490/361/2 415/295/2 498/450/2
f 500/366/2 488/130/2 490/361/2 499/449/2
f 505/372/2 498/450/2 415/295/2 414/294/2 418/298/2 420/300/2 422/302/2 424/305/2 426/304/2 428/308/2 430/310/2 432/445/2 434/313/2 436/312/2 438/317/2 440/316/2 442/371/2
f 454/329/2 456/331/2 458/333/2 460/336/2 462/335/2 464/448/2 466/340/2 468/339/2 493/365/2 504/370/2 450/325/2 452/327/2
f 511/451/5 510/452/5 506/375/5 509/378/5
f 513/381/5 512/380/5 510/452/5 511/451/5
f 517/453/5 516/454/5 514/379/5 515/382/5
f 519/385/5 518/384/5 516/454/5 517/453/5
f 527/393/5 526/392/5 524/389/5 525/390/5
f 531/397/5 530/396/5 528/391/5 529/394/5
f 535/455/5 534/456/5 532/395/5 533/398/5
f 537/443/71 536/457/71 534/456/71 535/455/71
f 539/162/42 538/458/42 536/457/42 537/443/42
f 541/401/50 540/400/50 538/458/50 539/162/50
f 545/459/52 544/460/52 542/399/52 543/402/52
f 547/405/53 546/404/53 544/460/53 545/459/53
f 551/461/55 550/462/55 548/403/55 549/406/55
f 553/409/66 552/408/66 550/462/66 551/461/66
f 559/415/72 558/414/72 556/411/72 557/412/72
f 567/436/59 566/463/59 564/419/59 565/420/59
f 569/464/60 568/465/60 566/463/60 567/436/60
f 571/423/61 570/422/61 568/465/61 569/464/61
f 583/433/65 582/432/65 580/431/65 581/110/65
f 583/433/1 590/466/1 591/467/1 508/377/1
f 592/468/1 581/110/1 579/430/1 589/439/1
f 581/110/1 592/468/1 590/466/1 583/433/1
f 596/442/1 543/402/1 541/401/1 594/441/1
f 591/467/1 597/469/1 535/455/1 533/398/1 531/397/1 529/394/1 527/393/1 525/390/1 523/388/1 521/386/1 519/385/1 517/453/1 515/382/1 513/381/1 511/451/1 509/378/1 508/377/1
f 535/455/1 597/469/1 595/442/1 537/443/1
f 549/406/1 547/405/1 545/459/1 543/402/1 596/442/1 584/434/1 561/416/1 559/415/1 557/412/1 555/410/1 553/409/1 551/461/1
f 573/424/1 571/423/1 569/464/1 567/436/1 587/437/1 588/438/1 577/428/1 575/426/1
