# Blender 5.0.1
# www.blender.org
mtllib Missile.mtl
o Missile
v -0.001672 0.002228 -0.211283
v 0.007161 0.005762 -0.198034
v 0.002744 0.003112 -0.189201
v -0.000347 0.011944 -0.198034
v 0.008044 0.016361 -0.175952
v -0.000347 0.027843 -0.153870
v -0.009180 0.018127 -0.175952
v -0.018012 0.033143 -0.131788
v -0.010505 -0.001305 -0.198034
v -0.006088 0.001345 -0.189201
v -0.002997 -0.007487 -0.198034
v -0.011388 -0.011904 -0.175952
v -0.002997 -0.023386 -0.153870
v 0.005836 -0.013670 -0.175952
v 0.014669 -0.028686 -0.131788
v -0.005205 0.011061 -0.198034
v -0.002555 0.006645 -0.189201
v -0.011388 0.003553 -0.198034
v -0.015804 0.011944 -0.175952
v -0.027287 0.003553 -0.153870
v -0.017571 -0.005279 -0.175952
v -0.032586 -0.014112 -0.131788
v -0.000789 -0.002188 -0.189201
v 0.001861 -0.006604 -0.198034
v 0.008044 0.000904 -0.198034
v 0.012460 -0.007487 -0.175952
v 0.023943 0.000904 -0.153870
v 0.014227 0.009736 -0.175952
v 0.029243 0.018569 -0.131788
v -0.023312 0.016361 -0.153870
v -0.038769 0.024310 -0.109707
v -0.037003 0.003553 -0.131788
v -0.053785 0.002670 -0.087625
v -0.055110 -0.028244 -0.065543
v -0.039653 -0.018528 -0.109707
v 0.012460 0.023869 -0.153870
v 0.020410 0.039326 -0.109707
v -0.000347 0.037559 -0.131788
v -0.001230 0.054342 -0.087625
v -0.022429 0.040209 -0.109707
v -0.032145 0.055666 -0.065543
v 0.019968 -0.011904 -0.153870
v 0.035425 -0.019853 -0.109707
v 0.033659 0.000904 -0.131788
v 0.050441 0.001787 -0.087625
v 0.036309 0.022985 -0.109707
v 0.051766 0.032701 -0.065543
v -0.015804 -0.019412 -0.153870
v -0.023754 -0.034869 -0.109707
v -0.002997 -0.033102 -0.131788
v -0.002114 -0.049884 -0.087625
v 0.019085 -0.035752 -0.109707
v 0.028801 -0.051209 -0.065543
v 0.042933 -0.024270 -0.087625
v 0.059274 -0.033102 -0.043461
v 0.059715 0.001787 -0.065543
v 0.077822 0.002229 -0.021380
v 0.024826 0.046834 -0.087625
v 0.033659 0.063174 -0.043461
v -0.001230 0.063616 -0.065543
v -0.001672 0.081723 -0.021380
v -0.046277 0.028727 -0.087625
v -0.062618 0.037559 -0.043461
v -0.063059 0.002670 -0.065543
v -0.081166 0.002229 -0.021380
v -0.028170 -0.042377 -0.087625
v -0.037003 -0.058717 -0.043461
v -0.002114 -0.059159 -0.065543
v -0.001672 -0.077266 -0.021380
v 0.033217 -0.058717 -0.043461
v 0.042492 -0.074174 0.000702
v 0.066782 -0.037519 -0.021380
v 0.075173 -0.041935 0.000702
v 0.086655 0.002229 0.000702
v 0.059274 0.037118 -0.043461
v 0.075173 0.046392 0.000702
v 0.038075 0.070682 -0.021380
v 0.042492 0.079073 0.000702
v -0.001672 0.090556 0.000702
v -0.045835 0.079073 0.000702
v -0.036561 0.063174 -0.043461
v -0.078075 0.046392 0.000702
v -0.070125 0.041976 -0.021380
v -0.089999 0.002229 0.000702
v -0.062618 -0.032661 -0.043461
v -0.078075 -0.041935 0.000702
v -0.041419 -0.066225 -0.021380
v -0.045835 -0.074174 0.000702
v -0.001672 -0.086099 0.000702
v -0.078075 -0.041935 0.000702
v -0.076750 0.002229 -0.012547
v -0.081166 0.002229 -0.021380
v -0.089999 0.002229 0.000702
v -0.001672 0.081723 -0.021380
v -0.045835 0.079073 0.000702
v -0.001672 0.077307 -0.012547
v -0.001672 0.090556 0.000702
v 0.077822 0.002229 -0.021380
v 0.075173 0.046392 0.000702
v 0.073406 0.002229 -0.012547
v 0.086655 0.002229 0.000702
v 0.042492 -0.074174 0.000702
v -0.001672 -0.072849 -0.012547
v -0.001672 -0.077266 -0.021380
v -0.001672 -0.086099 0.000702
v -0.070125 0.041976 -0.021380
v -0.058643 0.035351 -0.034629
v -0.062618 0.037559 -0.043461
v -0.036561 0.063174 -0.043461
v -0.029937 0.051692 -0.056710
v -0.032145 0.055666 -0.065543
v -0.001230 0.063616 -0.065543
v -0.001230 0.050367 -0.078792
v -0.001230 0.054342 -0.087625
v 0.024826 0.046834 -0.087625
v 0.018202 0.035351 -0.100874
v 0.020410 0.039326 -0.109707
v 0.036309 0.022985 -0.109707
v 0.024826 0.016361 -0.122956
v 0.029243 0.018569 -0.131788
v 0.033659 0.000904 -0.131788
v 0.020410 0.000904 -0.145037
v 0.023943 0.000904 -0.153870
v 0.019968 -0.011904 -0.153870
v 0.008486 -0.005279 -0.167119
v 0.012460 -0.007487 -0.175952
v 0.005836 -0.013670 -0.175952
v -0.000789 -0.002188 -0.189201
v 0.001861 -0.006604 -0.198034
v -0.002997 -0.007487 -0.198034
v -0.001672 0.002228 -0.211283
v -0.001672 0.002228 -0.220115
v 0.066782 -0.037519 -0.021380
v 0.055299 -0.030894 -0.034629
v 0.059274 -0.033102 -0.043461
v 0.033217 -0.058717 -0.043461
v 0.026593 -0.047235 -0.056710
v 0.028801 -0.051209 -0.065543
v -0.002114 -0.059159 -0.065543
v -0.002114 -0.045910 -0.078792
v -0.002114 -0.049884 -0.087625
v -0.028170 -0.042377 -0.087625
v -0.021546 -0.030894 -0.100874
v -0.023754 -0.034869 -0.109707
v -0.039653 -0.018528 -0.109707
v -0.028170 -0.011904 -0.122956
v -0.032586 -0.014112 -0.131788
v -0.037003 0.003553 -0.131788
v -0.023754 0.003553 -0.145037
v -0.027287 0.003553 -0.153870
v -0.023312 0.016361 -0.153870
v -0.011830 0.009736 -0.167119
v -0.015804 0.011944 -0.175952
v -0.009180 0.018127 -0.175952
v -0.002555 0.006645 -0.189201
v -0.005205 0.011061 -0.198034
v -0.000347 0.011944 -0.198034
v 0.038075 0.070682 -0.021380
v 0.031451 0.059200 -0.034629
v 0.033659 0.063174 -0.043461
v 0.059274 0.037118 -0.043461
v 0.047791 0.030493 -0.056710
v 0.051766 0.032701 -0.065543
v 0.059715 0.001787 -0.065543
v 0.046466 0.001787 -0.078792
v 0.050441 0.001787 -0.087625
v 0.042933 -0.024270 -0.087625
v 0.031451 -0.017645 -0.100874
v 0.035425 -0.019853 -0.109707
v 0.019085 -0.035752 -0.109707
v 0.012460 -0.024270 -0.122956
v 0.014669 -0.028686 -0.131788
v -0.002997 -0.033102 -0.131788
v -0.002997 -0.019853 -0.145037
v -0.002997 -0.023386 -0.153870
v -0.015804 -0.019412 -0.153870
v -0.009180 -0.007929 -0.167119
v -0.011388 -0.011904 -0.175952
v -0.017571 -0.005279 -0.175952
v -0.006088 0.001345 -0.189201
v -0.010505 -0.001305 -0.198034
v -0.011388 0.003553 -0.198034
v -0.041419 -0.066225 -0.021380
v -0.034795 -0.054742 -0.034629
v -0.037003 -0.058717 -0.043461
v -0.062618 -0.032661 -0.043461
v -0.051135 -0.026036 -0.056710
v -0.055110 -0.028244 -0.065543
v -0.063059 0.002670 -0.065543
v -0.049810 0.002670 -0.078792
v -0.053785 0.002670 -0.087625
v -0.046277 0.028727 -0.087625
v -0.034795 0.022102 -0.100874
v -0.038769 0.024310 -0.109707
v -0.022429 0.040209 -0.109707
v -0.015804 0.028727 -0.122956
v -0.018012 0.033143 -0.131788
v -0.000347 0.037559 -0.131788
v -0.000347 0.024310 -0.145037
v -0.000347 0.027843 -0.153870
v 0.012460 0.023869 -0.153870
v 0.005836 0.012386 -0.167119
v 0.008044 0.016361 -0.175952
v 0.014227 0.009736 -0.175952
v 0.002744 0.003112 -0.189201
v 0.007161 0.005762 -0.198034
v 0.008044 0.000904 -0.198034
vn 0.4363 -0.8983 -0.0513
vn 0.5380 0.6532 -0.5328
vn 0.5911 0.7177 -0.3681
vn 0.3683 0.8747 -0.3149
vn -0.1666 0.9254 -0.3405
vn -0.4363 0.8983 -0.0513
vn -0.5379 -0.6532 -0.5328
vn -0.5911 -0.7177 -0.3681
vn -0.3683 -0.8747 -0.3149
vn 0.1666 -0.9254 -0.3405
vn 0.8983 0.4363 -0.0513
vn -0.6532 0.5380 -0.5328
vn -0.7177 0.5911 -0.3681
vn -0.8747 0.3683 -0.3149
vn -0.9254 -0.1666 -0.3405
vn -0.8983 -0.4363 -0.0513
vn 0.6532 -0.5379 -0.5328
vn 0.7177 -0.5911 -0.3681
vn 0.8747 -0.3683 -0.3149
vn 0.9254 0.1666 -0.3405
vn -0.6516 0.6711 -0.3537
vn -0.8898 0.2949 -0.3484
vn -0.9049 -0.2304 -0.3579
vn 0.6711 0.6516 -0.3537
vn 0.2949 0.8898 -0.3484
vn -0.2304 0.9049 -0.3579
vn 0.6516 -0.6711 -0.3537
vn 0.8898 -0.2949 -0.3484
vn 0.9049 0.2304 -0.3579
vn -0.6711 -0.6516 -0.3537
vn -0.2949 -0.8898 -0.3484
vn 0.2304 -0.9049 -0.3579
vn 0.6593 -0.6523 -0.3739
vn 0.8946 -0.2470 -0.3724
vn 0.6523 0.6593 -0.3739
vn 0.2470 0.8946 -0.3724
vn -0.6593 0.6523 -0.3739
vn -0.8946 0.2470 -0.3724
vn -0.6523 -0.6593 -0.3739
vn -0.2470 -0.8946 -0.3724
vn 0.2442 -0.8973 -0.3678
vn 0.6548 -0.6580 -0.3720
vn 0.8929 -0.2322 -0.3857
vn 0.8964 0.2413 -0.3717
vn 0.6537 0.6569 -0.3757
vn 0.2322 0.8929 -0.3857
vn -0.2413 0.8964 -0.3717
vn -0.6596 0.6532 -0.3718
vn -0.8965 0.2420 -0.3711
vn -0.8973 -0.2442 -0.3678
vn -0.6574 -0.6574 -0.3682
vn -0.2420 -0.8965 -0.3711
vn -0.0000 -0.0000 1.0000
vn -0.8831 0.1589 0.4415
vn -0.6946 -0.1875 -0.6946
vn 0.1675 0.8818 0.4409
vn -0.1808 0.6955 -0.6955
vn 0.8818 -0.1675 0.4409
vn 0.6954 0.1808 -0.6955
vn -0.1590 -0.8831 0.4415
vn 0.1875 -0.6946 -0.6946
vn -0.7066 -0.0393 -0.7066
vn -0.7599 -0.0177 -0.6498
vn -0.7028 0.6185 0.3514
vn -0.6472 0.6184 0.4458
vn -0.6623 0.3698 -0.6516
vn -0.6732 0.2353 -0.7011
vn -0.1653 0.8833 0.4388
vn -0.2787 0.8947 0.3491
vn -0.4110 0.6446 -0.6446
vn -0.5109 0.5066 -0.6945
vn 0.3368 0.8586 0.3864
vn 0.2782 0.9000 0.3355
vn -0.1424 0.6999 -0.6999
vn -0.1051 0.7769 -0.6208
vn 0.7604 0.5922 0.2665
vn 0.7648 0.4941 0.4135
vn 0.3019 0.7219 -0.6226
vn -0.0063 0.7572 -0.6531
vn 0.9655 0.0369 0.2579
vn 0.8993 -0.0756 0.4308
vn 0.6004 0.5283 -0.6004
vn 0.2323 0.7744 -0.5885
vn 0.7265 -0.6227 0.2906
vn 0.7902 -0.5569 0.2559
vn 0.6416 0.4204 -0.6416
vn 0.7887 0.3303 -0.5184
vn 0.2836 -0.9522 0.1135
vn 0.1270 -0.9473 0.2940
vn 0.7898 0.3086 -0.5301
vn 0.9222 0.1015 -0.3731
vn -0.4087 -0.9116 0.0440
vn -0.5534 -0.7994 0.2337
vn 0.9312 0.1587 -0.3280
vn 0.9634 -0.2529 -0.0891
vn 0.8983 0.4363 0.0513
vn 0.9285 0.3714 -0.0000
vn 0.7066 0.0393 -0.7066
vn 0.7599 0.0177 -0.6497
vn 0.7028 -0.6185 0.3514
vn 0.6472 -0.6184 0.4458
vn 0.6623 -0.3698 -0.6516
vn 0.6732 -0.2353 -0.7010
vn 0.1653 -0.8833 0.4388
vn 0.2787 -0.8947 0.3491
vn 0.4110 -0.6446 -0.6446
vn 0.5109 -0.5066 -0.6945
vn -0.3368 -0.8586 0.3864
vn -0.2782 -0.9000 0.3355
vn 0.1424 -0.6999 -0.6999
vn 0.1051 -0.7769 -0.6208
vn -0.7604 -0.5922 0.2665
vn -0.7648 -0.4941 0.4135
vn -0.3019 -0.7219 -0.6226
vn 0.0063 -0.7572 -0.6531
vn -0.9655 -0.0369 0.2579
vn -0.8993 0.0756 0.4308
vn -0.6004 -0.5283 -0.6004
vn -0.2323 -0.7744 -0.5885
vn -0.7265 0.6227 0.2906
vn -0.7902 0.5569 0.2559
vn -0.6416 -0.4204 -0.6416
vn -0.7887 -0.3303 -0.5184
vn -0.2836 0.9522 0.1135
vn -0.1270 0.9473 0.2940
vn -0.7897 -0.3086 -0.5301
vn -0.9222 -0.1015 -0.3731
vn 0.4087 0.9116 0.0440
vn 0.5534 0.7994 0.2337
vn -0.9312 -0.1587 -0.3280
vn -0.9634 0.2529 -0.0891
vn -0.8983 -0.4363 0.0513
vn -0.9285 -0.3714 -0.0000
vn -0.0393 0.7066 -0.7066
vn -0.0177 0.7599 -0.6498
vn 0.6185 0.7028 0.3514
vn 0.6184 0.6472 0.4458
vn 0.3698 0.6623 -0.6516
vn 0.2353 0.6732 -0.7011
vn 0.8833 0.1653 0.4388
vn 0.8947 0.2787 0.3491
vn 0.6446 0.4110 -0.6446
vn 0.5066 0.5109 -0.6945
vn 0.8586 -0.3368 0.3864
vn 0.9000 -0.2782 0.3355
vn 0.6999 0.1424 -0.6999
vn 0.7769 0.1051 -0.6208
vn 0.5922 -0.7604 0.2665
vn 0.4941 -0.7648 0.4135
vn 0.7219 -0.3020 -0.6226
vn 0.7572 0.0063 -0.6531
vn 0.0369 -0.9655 0.2580
vn -0.0756 -0.8993 0.4308
vn 0.5283 -0.6004 -0.6004
vn 0.7744 -0.2323 -0.5885
vn -0.6227 -0.7265 0.2906
vn -0.5569 -0.7902 0.2559
vn 0.4204 -0.6416 -0.6416
vn 0.3303 -0.7887 -0.5184
vn -0.9522 -0.2836 0.1135
vn -0.9473 -0.1270 0.2940
vn 0.3086 -0.7897 -0.5301
vn 0.1015 -0.9222 -0.3731
vn -0.9116 0.4087 0.0440
vn -0.7994 0.5535 0.2337
vn 0.1587 -0.9312 -0.3280
vn -0.2529 -0.9634 -0.0891
vn 0.4363 -0.8983 0.0513
vn 0.3714 -0.9285 -0.0000
vn 0.0393 -0.7066 -0.7066
vn 0.0177 -0.7599 -0.6497
vn -0.6185 -0.7028 0.3514
vn -0.6184 -0.6472 0.4458
vn -0.3698 -0.6623 -0.6516
vn -0.2353 -0.6732 -0.7011
vn -0.8833 -0.1653 0.4388
vn -0.8947 -0.2787 0.3491
vn -0.6446 -0.4110 -0.6446
vn -0.5066 -0.5109 -0.6945
vn -0.8586 0.3368 0.3864
vn -0.9000 0.2782 0.3355
vn -0.6999 -0.1424 -0.6999
vn -0.7769 -0.1051 -0.6208
vn -0.5922 0.7604 0.2665
vn -0.4941 0.7648 0.4135
vn -0.7219 0.3020 -0.6226
vn -0.7572 -0.0063 -0.6531
vn -0.0369 0.9655 0.2579
vn 0.0756 0.8993 0.4308
vn -0.5283 0.6004 -0.6004
vn -0.7744 0.2323 -0.5885
vn 0.6227 0.7265 0.2906
vn 0.5569 0.7902 0.2559
vn -0.4204 0.6416 -0.6416
vn -0.3303 0.7887 -0.5184
vn 0.9522 0.2836 0.1135
vn 0.9473 0.1270 0.2940
vn -0.3086 0.7897 -0.5301
vn -0.1015 0.9222 -0.3731
vn 0.9116 -0.4087 0.0440
vn 0.7994 -0.5534 0.2337
vn -0.1587 0.9312 -0.3280
vn 0.2529 0.9634 -0.0891
vt 1.000000 0.500000
vt 0.937500 0.450000
vt 0.895833 0.475000
vt 0.937500 0.492500
vt 0.833333 0.445000
vt 0.729167 0.492500
vt 0.833333 0.542500
vt 0.625000 0.592500
vt 0.937500 0.550000
vt 0.895833 0.525000
vt 0.937500 0.507500
vt 0.833333 0.555000
vt 0.729167 0.507500
vt 0.833333 0.457500
vt 0.625000 0.407500
vt 0.937500 0.520000
vt 0.895833 0.505000
vt 0.937500 0.555000
vt 0.833333 0.580000
vt 0.729167 0.645000
vt 0.833333 0.590000
vt 0.625000 0.675000
vt 0.895833 0.495000
vt 0.937500 0.480000
vt 0.937500 0.445000
vt 0.833333 0.420000
vt 0.729167 0.355000
vt 0.833333 0.410000
vt 0.625000 0.325000
vt 0.729167 0.622500
vt 0.520833 0.710000
vt 0.625000 0.700000
vt 0.416667 0.795000
vt 0.312500 0.802500
vt 0.520833 0.715000
vt 0.729167 0.420000
vt 0.520833 0.375000
vt 0.625000 0.492500
vt 0.416667 0.497500
vt 0.520833 0.617500
vt 0.312500 0.672500
vt 0.729167 0.377500
vt 0.520833 0.290000
vt 0.625000 0.300000
vt 0.416667 0.205000
vt 0.520833 0.285000
vt 0.312500 0.197500
vt 0.729167 0.580000
vt 0.520833 0.625000
vt 0.625000 0.507500
vt 0.416667 0.502500
vt 0.520833 0.382500
vt 0.312500 0.327500
vt 0.416667 0.247500
vt 0.208333 0.155000
vt 0.312500 0.152500
vt 0.104167 0.050000
vt 0.416667 0.350000
vt 0.208333 0.300000
vt 0.312500 0.497500
vt 0.104167 0.500000
vt 0.416667 0.752500
vt 0.208333 0.845000
vt 0.312500 0.847500
vt 0.104167 0.950000
vt 0.416667 0.650000
vt 0.208333 0.700000
vt 0.312500 0.502500
vt 0.208333 0.302500
vt 0.000000 0.250000
vt 0.104167 0.112500
vt 0.000000 0.065000
vt 0.000000 0.000000
vt 0.104167 0.275000
vt 0.000000 0.500000
vt 0.000000 0.750000
vt 0.208333 0.697500
vt 0.000000 0.932500
vt 0.104167 0.887500
vt 0.000000 1.000000
vt 0.104167 0.725000
vt 0.060000 0.925000
vt 0.100000 0.950000
vt 0.100000 0.500000
vt 0.060000 0.500000
vt 0.100000 0.050000
vt 0.060000 0.075000
vt 0.100000 0.887500
vt 0.160000 0.822500
vt 0.200000 0.845000
vt 0.200000 0.697500
vt 0.260000 0.660000
vt 0.300000 0.672500
vt 0.300000 0.497500
vt 0.360000 0.497500
vt 0.400000 0.497500
vt 0.400000 0.350000
vt 0.460000 0.387500
vt 0.500000 0.375000
vt 0.500000 0.285000
vt 0.560000 0.350000
vt 0.600000 0.325000
vt 0.600000 0.300000
vt 0.660000 0.375000
vt 0.700000 0.355000
vt 0.700000 0.377500
vt 0.760000 0.442500
vt 0.800000 0.420000
vt 0.800000 0.457500
vt 0.860000 0.495000
vt 0.900000 0.480000
vt 0.900000 0.507500
vt 0.960000 0.500000
vt 0.100000 0.112500
vt 0.160000 0.177500
vt 0.200000 0.155000
vt 0.200000 0.302500
vt 0.260000 0.340000
vt 0.300000 0.327500
vt 0.300000 0.502500
vt 0.360000 0.502500
vt 0.400000 0.502500
vt 0.400000 0.650000
vt 0.460000 0.612500
vt 0.500000 0.625000
vt 0.500000 0.715000
vt 0.560000 0.650000
vt 0.600000 0.675000
vt 0.600000 0.700000
vt 0.660000 0.625000
vt 0.700000 0.645000
vt 0.700000 0.622500
vt 0.760000 0.557500
vt 0.800000 0.580000
vt 0.800000 0.542500
vt 0.860000 0.505000
vt 0.900000 0.520000
vt 0.900000 0.492500
vt 0.100000 0.275000
vt 0.160000 0.312500
vt 0.200000 0.300000
vt 0.260000 0.220000
vt 0.300000 0.197500
vt 0.300000 0.152500
vt 0.360000 0.227500
vt 0.400000 0.205000
vt 0.400000 0.247500
vt 0.460000 0.312500
vt 0.500000 0.290000
vt 0.500000 0.382500
vt 0.560000 0.420000
vt 0.600000 0.407500
vt 0.600000 0.507500
vt 0.660000 0.507500
vt 0.700000 0.507500
vt 0.700000 0.580000
vt 0.760000 0.542500
vt 0.800000 0.555000
vt 0.800000 0.590000
vt 0.860000 0.525000
vt 0.900000 0.550000
vt 0.900000 0.555000
vt 0.100000 0.725000
vt 0.160000 0.687500
vt 0.200000 0.700000
vt 0.260000 0.780000
vt 0.300000 0.802500
vt 0.300000 0.847500
vt 0.360000 0.772500
vt 0.400000 0.795000
vt 0.400000 0.752500
vt 0.460000 0.687500
vt 0.500000 0.710000
vt 0.500000 0.617500
vt 0.560000 0.580000
vt 0.600000 0.592500
vt 0.600000 0.492500
vt 0.660000 0.492500
vt 0.700000 0.492500
vt 0.700000 0.420000
vt 0.760000 0.457500
vt 0.800000 0.445000
vt 0.800000 0.410000
vt 0.860000 0.475000
vt 0.900000 0.450000
vt 0.900000 0.445000
s 0
usemtl Hand01
f 1/1/1 2/2/1 3/3/1
f 1/1/2 4/4/2 2/2/2
f 2/2/3 4/4/3 5/5/3
f 5/5/4 4/4/4 6/6/4
f 6/6/5 4/4/5 7/7/5 8/8/5
f 1/1/6 9/9/6 10/10/6
f 1/1/7 11/11/7 9/9/7
f 9/9/8 11/11/8 12/12/8
f 11/11/9 13/13/9 12/12/9
f 14/14/10 15/15/10 13/13/10 11/11/10
f 1/1/11 16/16/11 17/17/11
f 18/18/12 16/16/12 1/1/12
f 19/19/13 16/16/13 18/18/13
f 19/19/14 18/18/14 20/20/14
f 21/21/15 22/22/15 20/20/15 18/18/15
f 23/23/16 1/1/16 24/24/16
f 1/1/17 25/25/17 24/24/17
f 26/26/18 24/24/18 25/25/18
f 25/25/19 27/27/19 26/26/19
f 28/28/20 29/29/20 27/27/20 25/25/20
f 30/30/21 31/31/21 8/8/21 7/7/21
f 32/32/22 33/33/22 31/31/22 30/30/22
f 34/34/23 33/33/23 32/32/23 35/35/23
f 29/29/24 28/28/24 36/36/24 37/37/24
f 37/37/25 36/36/25 38/38/25 39/39/25
f 39/39/26 38/38/26 40/40/26 41/41/26
f 42/42/27 43/43/27 15/15/27 14/14/27
f 44/44/28 45/45/28 43/43/28 42/42/28
f 46/46/29 47/47/29 45/45/29 44/44/29
f 48/48/30 49/49/30 22/22/30 21/21/30
f 50/50/31 51/51/31 49/49/31 48/48/31
f 52/52/32 53/53/32 51/51/32 50/50/32
f 54/54/33 55/55/33 53/53/33 52/52/33
f 56/56/34 57/57/34 55/55/34 54/54/34
f 58/58/35 59/59/35 47/47/35 46/46/35
f 60/60/36 61/61/36 59/59/36 58/58/36
f 62/62/37 63/63/37 41/41/37 40/40/37
f 64/64/38 65/65/38 63/63/38 62/62/38
f 66/66/39 67/67/39 34/34/39 35/35/39
f 68/68/40 69/61/40 67/67/40 66/66/40
f 70/69/41 71/70/41 69/61/41 68/68/41
f 72/71/42 73/72/42 71/70/42 70/69/42
f 74/73/43 73/72/43 72/71/43
f 57/57/44 56/56/44 75/55/44 76/72/44
f 76/72/45 75/55/45 77/74/45 78/70/45
f 78/70/46 77/74/46 79/75/46
f 80/76/47 61/61/47 60/60/47 81/77/47
f 82/78/48 80/76/48 81/77/48 83/79/48
f 84/80/49 82/78/49 83/79/49
f 65/65/50 64/64/50 85/63/50 86/78/50
f 86/78/51 85/63/51 87/81/51 88/76/51
f 88/76/52 87/81/52 89/75/52
f 89/75/53 71/70/53 73/72/53 74/73/53 76/72/53 78/70/53 79/75/53 80/76/53 82/78/53 84/80/53 86/78/53 88/76/53
usemtl Hand02
f 90/78/54 91/82/54 92/83/54
f 93/80/55 91/82/55 90/78/55
f 94/84/56 95/76/56 96/85/56
f 97/75/57 96/85/57 95/76/57
f 98/86/58 99/72/58 100/87/58
f 99/72/59 101/73/59 100/87/59
f 102/70/60 103/85/60 104/84/60
f 102/70/61 105/75/61 103/85/61
f 91/82/62 93/80/62 106/88/62
f 91/82/63 106/88/63 107/89/63
f 92/83/64 91/82/64 107/89/64
f 92/83/65 107/89/65 108/90/65
f 106/88/66 109/91/66 110/92/66
f 107/89/67 106/88/67 110/92/67
f 107/89/68 110/92/68 111/93/68
f 108/90/69 107/89/69 111/93/69
f 109/91/70 112/94/70 113/95/70
f 110/92/71 109/91/71 113/95/71
f 110/92/72 113/95/72 114/96/72
f 111/93/73 110/92/73 114/96/73
f 113/95/74 112/94/74 115/97/74
f 113/95/75 115/97/75 116/98/75
f 114/96/76 113/95/76 116/98/76
f 114/96/77 116/98/77 117/99/77
f 115/97/78 118/100/78 119/101/78
f 116/98/79 115/97/79 119/101/79
f 117/99/80 116/98/80 119/101/80
f 117/99/81 119/101/81 120/102/81
f 118/100/82 121/103/82 122/104/82
f 119/101/83 118/100/83 122/104/83
f 119/101/84 122/104/84 123/105/84
f 120/102/85 119/101/85 123/105/85
f 122/104/86 121/103/86 124/106/86
f 122/104/87 124/106/87 125/107/87
f 123/105/88 122/104/88 125/107/88
f 123/105/89 125/107/89 126/108/89
f 125/107/90 124/106/90 127/109/90
f 125/107/91 127/109/91 128/110/91
f 126/108/92 125/107/92 128/110/92
f 126/108/93 128/110/93 129/111/93
f 128/110/94 127/109/94 130/112/94
f 128/110/95 130/112/95 131/113/95
f 131/113/96 128/110/96 129/111/96
f 132/1/97 131/113/97 129/111/97
f 100/87/98 101/73/98 133/114/98
f 100/87/99 133/114/99 134/115/99
f 98/86/100 100/87/100 134/115/100
f 98/86/101 134/115/101 135/116/101
f 133/114/102 136/117/102 137/118/102
f 134/115/103 133/114/103 137/118/103
f 134/115/104 137/118/104 138/119/104
f 135/116/105 134/115/105 138/119/105
f 136/117/106 139/120/106 140/121/106
f 137/118/107 136/117/107 140/121/107
f 137/118/108 140/121/108 141/122/108
f 138/119/109 137/118/109 141/122/109
f 140/121/110 139/120/110 142/123/110
f 140/121/111 142/123/111 143/124/111
f 141/122/112 140/121/112 143/124/112
f 141/122/113 143/124/113 144/125/113
f 142/123/114 145/126/114 146/127/114
f 143/124/115 142/123/115 146/127/115
f 144/125/116 143/124/116 146/127/116
f 144/125/117 146/127/117 147/128/117
f 145/126/118 148/129/118 149/130/118
f 146/127/119 145/126/119 149/130/119
f 146/127/120 149/130/120 150/131/120
f 147/128/121 146/127/121 150/131/121
f 149/130/122 148/129/122 151/132/122
f 149/130/123 151/132/123 152/133/123
f 150/131/124 149/130/124 152/133/124
f 150/131/125 152/133/125 153/134/125
f 152/133/126 151/132/126 154/135/126
f 152/133/127 154/135/127 155/136/127
f 153/134/128 152/133/128 155/136/128
f 153/134/129 155/136/129 156/137/129
f 155/136/130 154/135/130 157/138/130
f 155/136/131 157/138/131 131/113/131
f 131/113/132 155/136/132 156/137/132
f 132/1/133 131/113/133 156/137/133
f 96/85/134 97/75/134 158/139/134
f 96/85/135 158/139/135 159/140/135
f 94/84/136 96/85/136 159/140/136
f 94/84/137 159/140/137 160/141/137
f 158/139/138 161/116/138 162/142/138
f 159/140/139 158/139/139 162/142/139
f 159/140/140 162/142/140 163/143/140
f 160/141/141 159/140/141 163/143/141
f 161/116/142 164/144/142 165/145/142
f 162/142/143 161/116/143 165/145/143
f 162/142/144 165/145/144 166/146/144
f 163/143/145 162/142/145 166/146/145
f 165/145/146 164/144/146 167/147/146
f 165/145/147 167/147/147 168/148/147
f 166/146/148 165/145/148 168/148/148
f 166/146/149 168/148/149 169/149/149
f 167/147/150 170/150/150 171/151/150
f 168/148/151 167/147/151 171/151/151
f 169/149/152 168/148/152 171/151/152
f 169/149/153 171/151/153 172/152/153
f 170/150/154 173/153/154 174/154/154
f 171/151/155 170/150/155 174/154/155
f 171/151/156 174/154/156 175/155/156
f 172/152/157 171/151/157 175/155/157
f 174/154/158 173/153/158 176/156/158
f 174/154/159 176/156/159 177/157/159
f 175/155/160 174/154/160 177/157/160
f 175/155/161 177/157/161 178/158/161
f 177/157/162 176/156/162 179/159/162
f 177/157/163 179/159/163 180/160/163
f 178/158/164 177/157/164 180/160/164
f 178/158/165 180/160/165 181/161/165
f 180/160/166 179/159/166 182/162/166
f 180/160/167 182/162/167 131/113/167
f 131/113/168 180/160/168 181/161/168
f 132/1/169 131/113/169 181/161/169
f 103/85/170 105/75/170 183/163/170
f 103/85/171 183/163/171 184/164/171
f 104/84/172 103/85/172 184/164/172
f 104/84/173 184/164/173 185/165/173
f 183/163/174 186/90/174 187/166/174
f 184/164/175 183/163/175 187/166/175
f 184/164/176 187/166/176 188/167/176
f 185/165/177 184/164/177 188/167/177
f 186/90/178 189/168/178 190/169/178
f 187/166/179 186/90/179 190/169/179
f 187/166/180 190/169/180 191/170/180
f 188/167/181 187/166/181 191/170/181
f 190/169/182 189/168/182 192/171/182
f 190/169/183 192/171/183 193/172/183
f 191/170/184 190/169/184 193/172/184
f 191/170/185 193/172/185 194/173/185
f 192/171/186 195/174/186 196/175/186
f 193/172/187 192/171/187 196/175/187
f 194/173/188 193/172/188 196/175/188
f 194/173/189 196/175/189 197/176/189
f 195/174/190 198/177/190 199/178/190
f 196/175/191 195/174/191 199/178/191
f 196/175/192 199/178/192 200/179/192
f 197/176/193 196/175/193 200/179/193
f 199/178/194 198/177/194 201/180/194
f 199/178/195 201/180/195 202/181/195
f 200/179/196 199/178/196 202/181/196
f 200/179/197 202/181/197 203/182/197
f 202/181/198 201/180/198 204/183/198
f 202/181/199 204/183/199 205/184/199
f 203/182/200 202/181/200 205/184/200
f 203/182/201 205/184/201 206/185/201
f 205/184/202 204/183/202 207/186/202
f 205/184/203 207/186/203 131/113/203
f 206/185/1 205/184/1 131/113/1
f 206/185/169 131/113/169 132/1/169
