# Blender 5.0.1
# www.blender.org
mtllib Pacman.mtl
g Cylinder_Cylinder
v -0.798544 0.000000 -0.000000
v -1.298544 -0.000000 0.000000
v -0.798544 -1.000000 -0.000000
v -1.298544 -1.000000 0.000000
v -0.798544 -0.980785 -0.195090
v -1.298544 -0.980785 -0.195090
v -0.798544 -0.923880 -0.382683
v -1.298544 -0.923880 -0.382683
v -0.798544 -0.831470 -0.555570
v -1.298544 -0.831470 -0.555570
v -0.798544 -0.707107 -0.707107
v -1.298544 -0.707107 -0.707107
v -0.798544 -0.555570 -0.831470
v -1.298544 -0.555570 -0.831470
v -0.798544 -0.382683 -0.923880
v -1.298544 -0.382683 -0.923880
v -0.798544 0.382683 -0.923880
v -1.298544 0.382683 -0.923880
v -0.798544 0.555570 -0.831470
v -1.298544 0.555570 -0.831470
v -0.798544 0.707107 -0.707107
v -1.298544 0.707107 -0.707107
v -0.798544 0.831470 -0.555570
v -1.298544 0.831470 -0.555570
v -0.798544 0.923880 -0.382683
v -1.298544 0.923880 -0.382683
v -0.798544 0.980785 -0.195090
v -1.298544 0.980785 -0.195090
v -0.798544 1.000000 -0.000000
v -1.298544 1.000000 0.000000
v -0.798544 0.980785 0.195090
v -1.298544 0.980785 0.195090
v -0.798544 0.923880 0.382683
v -1.298544 0.923880 0.382683
v -0.798544 0.831470 0.555570
v -1.298544 0.831470 0.555570
v -0.798544 0.707107 0.707107
v -1.298544 0.707107 0.707107
v -0.798544 0.555570 0.831470
v -1.298544 0.555570 0.831470
v -0.798544 0.382683 0.923880
v -1.298544 0.382683 0.923880
v -0.798544 0.195090 0.980785
v -1.298544 0.195090 0.980785
v -0.798544 0.000000 1.000000
v -1.298544 -0.000000 1.000000
v -0.798544 -0.195090 0.980785
v -1.298544 -0.195090 0.980785
v -0.798544 -0.382683 0.923880
v -1.298544 -0.382683 0.923880
v -0.798544 -0.555570 0.831470
v -1.298544 -0.555570 0.831470
v -0.798544 -0.707107 0.707107
v -1.298544 -0.707107 0.707107
v -0.798544 -0.831470 0.555570
v -1.298544 -0.831470 0.555570
v -0.798544 -0.923880 0.382683
v -1.298544 -0.923880 0.382683
v -0.798544 -0.980785 0.195090
v -1.298544 -0.980785 0.195090
vn 1.0000 -0.0000 -0.0000
vn -1.0000 -0.0000 -0.0000
vn -0.0000 -1.0000 -0.0000
vn -0.0000 -0.9808 -0.1951
vn -0.0000 -0.9239 -0.3827
vn -0.0000 -0.8315 -0.5556
vn -0.0000 -0.7071 -0.7071
vn -0.0000 -0.5556 -0.8315
vn -0.0000 -0.4714 -0.8819
vn -0.0000 0.9239 -0.3827
vn -0.0000 0.4714 -0.8819
vn -0.0000 0.5556 -0.8315
vn -0.0000 0.7071 -0.7071
vn -0.0000 0.8315 -0.5556
vn -0.0000 0.9808 -0.1951
vn -0.0000 1.0000 -0.0000
vn -0.0000 0.9808 0.1951
vn -0.0000 0.9239 0.3827
vn -0.0000 0.8315 0.5556
vn -0.0000 0.7071 0.7071
vn -0.0000 0.5556 0.8315
vn -0.0000 0.3827 0.9239
vn -0.0000 0.1951 0.9808
vn -0.0000 -0.0000 1.0000
vn -0.0000 -0.1951 0.9808
vn -0.0000 -0.3827 0.9239
vn -0.0000 -0.5556 0.8315
vn -0.0000 -0.7071 0.7071
vn -0.0000 -0.8315 0.5556
vn -0.0000 -0.9239 0.3827
vn -0.0000 -0.9808 0.1951
vt 0.750000 0.250000
vt 0.750000 0.490000
vt 0.796822 0.485388
vt 0.250000 0.250000
vt 0.296822 0.485388
vt 0.250000 0.490000
vt 1.000000 0.500000
vt 1.000000 1.000000
vt 0.968750 1.000000
vt 0.968750 0.500000
vt 0.841844 0.471731
vt 0.341844 0.471731
vt 0.937500 1.000000
vt 0.937500 0.500000
vt 0.883337 0.449553
vt 0.383337 0.449553
vt 0.906250 1.000000
vt 0.906250 0.500000
vt 0.919706 0.419706
vt 0.419706 0.419706
vt 0.875000 1.000000
vt 0.875000 0.500000
vt 0.949553 0.383337
vt 0.449553 0.383337
vt 0.843750 1.000000
vt 0.843750 0.500000
vt 0.971731 0.341844
vt 0.471731 0.341844
vt 0.812500 1.000000
vt 0.812500 0.500000
vt 0.687500 0.500000
vt 0.687500 1.000000
vt 0.971731 0.158156
vt 0.949553 0.116663
vt 0.449553 0.116663
vt 0.471731 0.158156
vt 0.656250 1.000000
vt 0.656250 0.500000
vt 0.919706 0.080294
vt 0.419706 0.080294
vt 0.625000 1.000000
vt 0.625000 0.500000
vt 0.883337 0.050447
vt 0.383337 0.050447
vt 0.593750 1.000000
vt 0.593750 0.500000
vt 0.841844 0.028269
vt 0.341844 0.028269
vt 0.562500 1.000000
vt 0.562500 0.500000
vt 0.796822 0.014612
vt 0.296822 0.014612
vt 0.531250 1.000000
vt 0.531250 0.500000
vt 0.750000 0.010000
vt 0.250000 0.010000
vt 0.500000 1.000000
vt 0.500000 0.500000
vt 0.703178 0.014612
vt 0.203178 0.014612
vt 0.468750 1.000000
vt 0.468750 0.500000
vt 0.658156 0.028269
vt 0.158156 0.028269
vt 0.437500 1.000000
vt 0.437500 0.500000
vt 0.616663 0.050447
vt 0.116663 0.050447
vt 0.406250 1.000000
vt 0.406250 0.500000
vt 0.580294 0.080294
vt 0.080294 0.080294
vt 0.375000 1.000000
vt 0.375000 0.500000
vt 0.550447 0.116663
vt 0.050447 0.116663
vt 0.343750 1.000000
vt 0.343750 0.500000
vt 0.528269 0.158156
vt 0.028269 0.158156
vt 0.312500 1.000000
vt 0.312500 0.500000
vt 0.514612 0.203178
vt 0.014612 0.203178
vt 0.281250 1.000000
vt 0.281250 0.500000
vt 0.510000 0.250000
vt 0.010000 0.250000
vt 0.250000 1.000000
vt 0.250000 0.500000
vt 0.514612 0.296822
vt 0.014612 0.296822
vt 0.218750 1.000000
vt 0.218750 0.500000
vt 0.528269 0.341844
vt 0.028269 0.341844
vt 0.187500 1.000000
vt 0.187500 0.500000
vt 0.550447 0.383337
vt 0.050447 0.383337
vt 0.156250 1.000000
vt 0.156250 0.500000
vt 0.580294 0.419706
vt 0.080294 0.419706
vt 0.125000 1.000000
vt 0.125000 0.500000
vt 0.616663 0.449553
vt 0.116663 0.449553
vt 0.093750 1.000000
vt 0.093750 0.500000
vt 0.658156 0.471731
vt 0.158156 0.471731
vt 0.062500 1.000000
vt 0.062500 0.500000
vt 0.703178 0.485388
vt 0.203178 0.485388
vt 0.031250 1.000000
vt 0.031250 0.500000
vt 0.000000 1.000000
vt 0.000000 0.500000
s 1
usemtl Pacman
f 1/1/1 3/2/1 5/3/1
f 2/4/2 6/5/2 4/6/2
f 3/7/3 4/8/3 6/9/4 5/10/4
f 1/1/1 5/3/1 7/11/1
f 2/4/2 8/12/2 6/5/2
f 5/10/4 6/9/4 8/13/5 7/14/5
f 1/1/1 7/11/1 9/15/1
f 2/4/2 10/16/2 8/12/2
f 7/14/5 8/13/5 10/17/6 9/18/6
f 1/1/1 9/15/1 11/19/1
f 2/4/2 12/20/2 10/16/2
f 9/18/6 10/17/6 12/21/7 11/22/7
f 1/1/1 11/19/1 13/23/1
f 2/4/2 14/24/2 12/20/2
f 11/22/7 12/21/7 14/25/8 13/26/8
f 1/1/1 13/23/1 15/27/1
f 2/4/2 16/28/2 14/24/2
f 13/26/8 14/25/8 16/29/9 15/30/9
f 17/31/5 1/1/5 2/4/5 18/32/5
f 15/30/10 16/29/10 2/4/10 1/1/10
f 1/1/1 17/33/1 19/34/1
f 2/4/2 20/35/2 18/36/2
f 17/31/11 18/32/11 20/37/12 19/38/12
f 1/1/1 19/34/1 21/39/1
f 2/4/2 22/40/2 20/35/2
f 19/38/12 20/37/12 22/41/13 21/42/13
f 1/1/1 21/39/1 23/43/1
f 2/4/2 24/44/2 22/40/2
f 21/42/13 22/41/13 24/45/14 23/46/14
f 1/1/1 23/43/1 25/47/1
f 2/4/2 26/48/2 24/44/2
f 23/46/14 24/45/14 26/49/10 25/50/10
f 1/1/1 25/47/1 27/51/1
f 2/4/2 28/52/2 26/48/2
f 25/50/10 26/49/10 28/53/15 27/54/15
f 1/1/1 27/51/1 29/55/1
f 2/4/2 30/56/2 28/52/2
f 27/54/15 28/53/15 30/57/16 29/58/16
f 1/1/1 29/55/1 31/59/1
f 2/4/2 32/60/2 30/56/2
f 29/58/16 30/57/16 32/61/17 31/62/17
f 1/1/1 31/59/1 33/63/1
f 2/4/2 34/64/2 32/60/2
f 31/62/17 32/61/17 34/65/18 33/66/18
f 1/1/1 33/63/1 35/67/1
f 2/4/2 36/68/2 34/64/2
f 33/66/18 34/65/18 36/69/19 35/70/19
f 1/1/1 35/67/1 37/71/1
f 2/4/2 38/72/2 36/68/2
f 35/70/19 36/69/19 38/73/20 37/74/20
f 1/1/1 37/71/1 39/75/1
f 2/4/2 40/76/2 38/72/2
f 37/74/20 38/73/20 40/77/21 39/78/21
f 1/1/1 39/75/1 41/79/1
f 2/4/2 42/80/2 40/76/2
f 39/78/21 40/77/21 42/81/22 41/82/22
f 1/1/1 41/79/1 43/83/1
f 2/4/2 44/84/2 42/80/2
f 41/82/22 42/81/22 44/85/23 43/86/23
f 1/1/1 43/83/1 45/87/1
f 2/4/2 46/88/2 44/84/2
f 43/86/23 44/85/23 46/89/24 45/90/24
f 1/1/1 45/87/1 47/91/1
f 2/4/2 48/92/2 46/88/2
f 45/90/24 46/89/24 48/93/25 47/94/25
f 1/1/1 47/91/1 49/95/1
f 2/4/2 50/96/2 48/92/2
f 47/94/25 48/93/25 50/97/26 49/98/26
f 1/1/1 49/95/1 51/99/1
f 2/4/2 52/100/2 50/96/2
f 49/98/26 50/97/26 52/101/27 51/102/27
f 1/1/1 51/99/1 53/103/1
f 2/4/2 54/104/2 52/100/2
f 51/102/27 52/101/27 54/105/28 53/106/28
f 1/1/1 53/103/1 55/107/1
f 2/4/2 56/108/2 54/104/2
f 53/106/28 54/105/28 56/109/29 55/110/29
f 1/1/1 55/107/1 57/111/1
f 2/4/2 58/112/2 56/108/2
f 55/110/29 56/109/29 58/113/30 57/114/30
f 1/1/1 57/111/1 59/115/1
f 2/4/2 60/116/2 58/112/2
f 57/114/30 58/113/30 60/117/31 59/118/31
f 1/1/1 59/115/1 3/2/1
f 2/4/2 4/6/2 60/116/2
f 59/118/31 60/117/31 4/119/3 3/120/3
g Suzanne_Suzanne
v 1.970812 0.164062 0.765625
v 1.095812 0.164062 0.765625
v 2.033312 0.093750 0.687500
v 1.033312 0.093750 0.687500
v 2.080187 0.054688 0.578125
v 0.986437 0.054688 0.578125
v 1.884875 -0.023438 0.617188
v 1.181750 -0.023438 0.617188
v 1.884875 0.031250 0.718750
v 1.181750 0.031250 0.718750
v 1.884875 0.132812 0.781250
v 1.181750 0.132812 0.781250
v 1.806750 0.164062 0.796875
v 1.259875 0.164062 0.796875
v 1.736437 0.093750 0.742188
v 1.330187 0.093750 0.742188
v 1.689562 0.054688 0.648438
v 1.377062 0.054688 0.648438
v 1.611437 0.242188 0.656250
v 1.455187 0.242188 0.656250
v 1.673937 0.242188 0.742188
v 1.392687 0.242188 0.742188
v 1.775500 0.242188 0.796875
v 1.291125 0.242188 0.796875
v 1.806750 0.328125 0.796875
v 1.259875 0.328125 0.796875
v 1.736437 0.390625 0.742188
v 1.330187 0.390625 0.742188
v 1.689562 0.437500 0.648438
v 1.377062 0.437500 0.648438
v 1.884875 0.515625 0.617188
v 1.181750 0.515625 0.617188
v 1.884875 0.453125 0.718750
v 1.181750 0.453125 0.718750
v 1.884875 0.359375 0.781250
v 1.181750 0.359375 0.781250
v 1.970812 0.328125 0.765625
v 1.095812 0.328125 0.765625
v 2.033312 0.390625 0.687500
v 1.033312 0.390625 0.687500
v 2.080187 0.437500 0.578125
v 0.986437 0.437500 0.578125
v 2.158312 0.242188 0.562500
v 0.908312 0.242188 0.562500
v 2.095812 0.242188 0.671875
v 0.970812 0.242188 0.671875
v 2.002062 0.242188 0.757812
v 1.064562 0.242188 0.757812
v 2.009875 0.242188 0.773438
v 1.056750 0.242188 0.773438
v 1.978625 0.335938 0.781250
v 1.088000 0.335938 0.781250
v 1.884875 0.375000 0.804688
v 1.181750 0.375000 0.804688
v 1.798937 0.335938 0.820312
v 1.267687 0.335938 0.820312
v 1.759875 0.242188 0.820312
v 1.306750 0.242188 0.820312
v 1.798937 0.156250 0.820312
v 1.267687 0.156250 0.820312
v 1.884875 0.242188 0.828125
v 1.181750 0.242188 0.828125
v 1.884875 0.117188 0.804688
v 1.181750 0.117188 0.804688
v 1.978625 0.156250 0.781250
v 1.088000 0.156250 0.781250
v 1.533312 0.429688 0.742188
v 1.533312 0.351562 0.820312
v 1.533312 -0.679688 0.734375
v 1.533312 -0.320312 0.781250
v 1.533312 -0.187500 0.796875
v 1.533312 -0.773438 0.718750
v 1.533312 0.406250 0.601562
v 1.533312 0.570312 0.570312
v 1.533312 0.898438 -0.546875
v 1.533312 0.562500 -0.851562
v 1.533312 0.070312 -0.828125
v 1.533312 -0.382812 -0.351562
v 1.736437 -0.187500 0.562500
v 1.330187 -0.187500 0.562500
v 1.845812 -0.437500 0.570312
v 1.220812 -0.437500 0.570312
v 1.884875 -0.695312 0.570312
v 1.181750 -0.695312 0.570312
v 1.900500 -0.890625 0.531250
v 1.166125 -0.890625 0.531250
v 1.861437 -0.945312 0.523438
v 1.205187 -0.945312 0.523438
v 1.713000 -0.968750 0.554688
v 1.353625 -0.968750 0.554688
v 1.533312 -0.984375 0.578125
v 1.970812 -0.140625 0.531250
v 1.095812 -0.140625 0.531250
v 2.166125 -0.039062 0.539062
v 0.900500 -0.039062 0.539062
v 2.361437 0.148438 0.445312
v 0.705187 0.148438 0.445312
v 2.392687 0.429688 0.593750
v 0.673937 0.429688 0.593750
v 2.244250 0.484375 0.625000
v 0.822375 0.484375 0.625000
v 2.025500 0.601562 0.687500
v 1.041125 0.601562 0.687500
v 1.853625 0.757812 0.734375
v 1.213000 0.757812 0.734375
v 1.689562 0.718750 0.757812
v 1.377062 0.718750 0.757812
v 1.595812 0.492188 0.750000
v 1.470812 0.492188 0.750000
v 1.697375 0.414062 0.773438
v 1.369250 0.414062 0.773438
v 1.658312 0.304688 0.765625
v 1.408312 0.304688 0.765625
v 1.736437 0.093750 0.742188
v 1.330187 0.093750 0.742188
v 1.908312 0.015625 0.703125
v 1.158312 0.015625 0.703125
v 2.025500 0.062500 0.671875
v 1.041125 0.062500 0.671875
v 2.158312 0.187500 0.648438
v 0.908312 0.187500 0.648438
v 2.173937 0.296875 0.648438
v 0.892687 0.296875 0.648438
v 2.134875 0.375000 0.664062
v 0.931750 0.375000 0.664062
v 1.963000 0.437500 0.718750
v 1.103625 0.437500 0.718750
v 1.783312 0.468750 0.757812
v 1.283312 0.468750 0.757812
v 1.533312 -0.765625 0.734375
v 1.642687 -0.718750 0.734375
v 1.423937 -0.718750 0.734375
v 1.650500 -0.835938 0.710938
v 1.416125 -0.835938 0.710938
v 1.595812 -0.882812 0.695312
v 1.470812 -0.882812 0.695312
v 1.533312 -0.890625 0.687500
v 1.533312 -0.195312 0.750000
v 1.533312 -0.140625 0.742188
v 1.634875 -0.148438 0.742188
v 1.431750 -0.148438 0.742188
v 1.658312 -0.226562 0.750000
v 1.408312 -0.226562 0.750000
v 1.619250 -0.289062 0.742188
v 1.447375 -0.289062 0.742188
v 1.931750 -0.046875 0.671875
v 1.134875 -0.046875 0.671875
v 2.150500 0.054688 0.625000
v 0.916125 0.054688 0.625000
v 2.259875 0.203125 0.601562
v 0.806750 0.203125 0.601562
v 2.275500 0.375000 0.656250
v 0.791125 0.375000 0.656250
v 2.220812 0.414062 0.726562
v 0.845812 0.414062 0.726562
v 1.970812 0.546875 0.796875
v 1.095812 0.546875 0.796875
v 1.845812 0.640625 0.835938
v 1.220812 0.640625 0.835938
v 1.736437 0.617188 0.851562
v 1.330187 0.617188 0.851562
v 1.634875 0.429688 0.843750
v 1.431750 0.429688 0.843750
v 1.658312 -0.101562 0.812500
v 1.408312 -0.101562 0.812500
v 1.744250 -0.445312 0.710938
v 1.322375 -0.445312 0.710938
v 1.783312 -0.703125 0.687500
v 1.283312 -0.703125 0.687500
v 1.798937 -0.820312 0.664062
v 1.267687 -0.820312 0.664062
v 1.767687 -0.914062 0.632812
v 1.298937 -0.914062 0.632812
v 1.697375 -0.929688 0.632812
v 1.369250 -0.929688 0.632812
v 1.533312 -0.945312 0.640625
v 1.533312 0.046875 0.726562
v 1.533312 0.210938 0.765625
v 1.861437 0.476562 0.742188
v 1.205187 0.476562 0.742188
v 1.697375 0.140625 0.750000
v 1.369250 0.140625 0.750000
v 1.666125 0.210938 0.757812
v 1.400500 0.210938 0.757812
v 1.650500 -0.687500 0.734375
v 1.416125 -0.687500 0.734375
v 1.611437 -0.445312 0.750000
v 1.455187 -0.445312 0.750000
v 1.533312 -0.445312 0.750000
v 1.533312 -0.328125 0.742188
v 1.627062 -0.273438 0.781250
v 1.439562 -0.273438 0.781250
v 1.666125 -0.226562 0.796875
v 1.400500 -0.226562 0.796875
v 1.642687 -0.132812 0.781250
v 1.423937 -0.132812 0.781250
v 1.572375 -0.125000 0.781250
v 1.494250 -0.125000 0.781250
v 1.533312 -0.203125 0.828125
v 1.580187 -0.148438 0.812500
v 1.486437 -0.148438 0.812500
v 1.627062 -0.156250 0.812500
v 1.439562 -0.156250 0.812500
v 1.642687 -0.226562 0.828125
v 1.423937 -0.226562 0.828125
v 1.611437 -0.250000 0.804688
v 1.455187 -0.250000 0.804688
v 1.533312 -0.289062 0.804688
v 1.791125 -0.312500 0.554688
v 1.275500 -0.312500 0.554688
v 1.697375 -0.242188 0.710938
v 1.369250 -0.242188 0.710938
v 1.713000 -0.312500 0.710938
v 1.353625 -0.312500 0.710938
v 1.767687 -0.250000 0.554688
v 1.298937 -0.250000 0.554688
v 1.533312 -0.875000 0.687500
v 1.580187 -0.867188 0.687500
v 1.486437 -0.867188 0.687500
v 1.627062 -0.820312 0.710938
v 1.439562 -0.820312 0.710938
v 1.627062 -0.742188 0.726562
v 1.439562 -0.742188 0.726562
v 1.533312 -0.781250 0.656250
v 1.627062 -0.750000 0.664062
v 1.439562 -0.750000 0.664062
v 1.627062 -0.812500 0.640625
v 1.439562 -0.812500 0.640625
v 1.580187 -0.851562 0.632812
v 1.486437 -0.851562 0.632812
v 1.533312 -0.859375 0.632812
v 1.705187 0.218750 0.781250
v 1.361437 0.218750 0.781250
v 1.720812 0.156250 0.773438
v 1.345812 0.156250 0.773438
v 1.869250 0.429688 0.757812
v 1.197375 0.429688 0.757812
v 1.806750 0.421875 0.773438
v 1.259875 0.421875 0.773438
v 1.955187 0.398438 0.773438
v 1.111437 0.398438 0.773438
v 2.095812 0.351562 0.695312
v 0.970812 0.351562 0.695312
v 2.119250 0.289062 0.687500
v 0.947375 0.289062 0.687500
v 2.111437 0.195312 0.679688
v 0.955187 0.195312 0.679688
v 2.009875 0.101562 0.718750
v 1.056750 0.101562 0.718750
v 1.908312 0.062500 0.742188
v 1.158312 0.062500 0.742188
v 1.759875 0.109375 0.781250
v 1.306750 0.109375 0.781250
v 1.713000 0.296875 0.781250
v 1.353625 0.296875 0.781250
v 1.744250 0.375000 0.781250
v 1.322375 0.375000 0.781250
v 1.767687 0.359375 0.757812
v 1.298937 0.359375 0.757812
v 1.728625 0.296875 0.757812
v 1.338000 0.296875 0.757812
v 1.775500 0.125000 0.757812
v 1.291125 0.125000 0.757812
v 1.908312 0.085938 0.726562
v 1.158312 0.085938 0.726562
v 1.994250 0.117188 0.703125
v 1.072375 0.117188 0.703125
v 2.080187 0.210938 0.671875
v 0.986437 0.210938 0.671875
v 2.088000 0.281250 0.671875
v 0.978625 0.281250 0.671875
v 2.064562 0.335938 0.679688
v 1.002062 0.335938 0.679688
v 1.947375 0.390625 0.750000
v 1.119250 0.390625 0.750000
v 1.814562 0.398438 0.765625
v 1.252062 0.398438 0.765625
v 1.869250 0.406250 0.750000
v 1.197375 0.406250 0.750000
v 1.736437 0.171875 0.750000
v 1.330187 0.171875 0.750000
v 1.728625 0.226562 0.750000
v 1.338000 0.226562 0.750000
v 1.642687 0.460938 0.609375
v 1.423937 0.460938 0.609375
v 1.728625 0.664062 0.617188
v 1.338000 0.664062 0.617188
v 1.869250 0.687500 0.593750
v 1.197375 0.687500 0.593750
v 2.017687 0.554688 0.554688
v 1.048937 0.554688 0.554688
v 2.213000 0.453125 0.492188
v 0.853625 0.453125 0.492188
v 2.330187 0.406250 0.460938
v 0.736437 0.406250 0.460938
v 2.306750 0.164062 0.375000
v 0.759875 0.164062 0.375000
v 2.134875 0.000000 0.414062
v 0.931750 0.000000 0.414062
v 1.970812 -0.093750 0.468750
v 1.095812 -0.093750 0.468750
v 1.533312 0.898438 0.289062
v 1.533312 0.984375 -0.078125
v 1.533312 -0.195312 -0.671875
v 1.533312 -0.460938 0.187500
v 1.533312 -0.976562 0.460938
v 1.533312 -0.804688 0.343750
v 1.533312 -0.570312 0.320312
v 1.533312 -0.484375 0.281250
v 2.384875 0.234375 0.054688
v 0.681750 0.234375 0.054688
v 2.392687 0.320312 -0.046875
v 0.673937 0.320312 -0.046875
v 2.306750 0.265625 -0.437500
v 0.759875 0.265625 -0.437500
v 1.994250 0.437500 -0.703125
v 1.072375 0.437500 -0.703125
v 2.267687 -0.046875 0.070312
v 0.798937 -0.046875 0.070312
v 2.127062 -0.125000 -0.164062
v 0.939562 -0.125000 -0.164062
v 2.173937 -0.007812 -0.429688
v 0.892687 -0.007812 -0.429688
v 1.869250 0.054688 -0.664062
v 1.197375 0.054688 -0.664062
v 1.767687 -0.351562 0.406250
v 1.298937 -0.351562 0.406250
v 1.713000 -0.414062 0.257812
v 1.353625 -0.414062 0.257812
v 1.822375 -0.710938 0.382812
v 1.244250 -0.710938 0.382812
v 1.783312 -0.500000 0.390625
v 1.283312 -0.500000 0.390625
v 1.861437 -0.914062 0.398438
v 1.205187 -0.914062 0.398438
v 1.673937 -0.757812 0.367188
v 1.392687 -0.757812 0.367188
v 1.658312 -0.539062 0.359375
v 1.408312 -0.539062 0.359375
v 1.697375 -0.945312 0.437500
v 1.369250 -0.945312 0.437500
v 1.752062 -0.281250 0.429688
v 1.314562 -0.281250 0.429688
v 1.744250 -0.226562 0.468750
v 1.322375 -0.226562 0.468750
v 1.736437 -0.171875 0.500000
v 1.330187 -0.171875 0.500000
v 1.744250 -0.390625 0.164062
v 1.322375 -0.390625 0.164062
v 1.830187 -0.312500 -0.265625
v 1.236437 -0.312500 -0.265625
v 1.877062 -0.148438 -0.539062
v 1.189562 -0.148438 -0.539062
v 1.986437 0.867188 -0.382812
v 1.080187 0.867188 -0.382812
v 1.986437 0.929688 -0.070312
v 1.080187 0.929688 -0.070312
v 1.986437 0.851562 0.234375
v 1.080187 0.851562 0.234375
v 1.994250 0.523438 0.429688
v 1.072375 0.523438 0.429688
v 2.259875 0.406250 0.335938
v 0.806750 0.406250 0.335938
v 2.166125 0.453125 0.281250
v 0.900500 0.453125 0.281250
v 2.173937 0.703125 0.054688
v 0.892687 0.703125 0.054688
v 2.330187 0.562500 0.125000
v 0.736437 0.562500 0.125000
v 2.330187 0.617188 -0.117188
v 0.736437 0.617188 -0.117188
v 2.173937 0.750000 -0.195312
v 0.892687 0.750000 -0.195312
v 2.173937 0.679688 -0.445312
v 0.892687 0.679688 -0.445312
v 2.330187 0.539062 -0.359375
v 0.736437 0.539062 -0.359375
v 2.150500 0.328125 -0.585938
v 0.916125 0.328125 -0.585938
v 2.017687 0.023438 -0.546875
v 1.048937 0.023438 -0.546875
v 2.353625 0.328125 -0.203125
v 0.713000 0.328125 -0.203125
v 1.939562 -0.171875 0.148438
v 1.127062 -0.171875 0.148438
v 1.963000 -0.195312 -0.210938
v 1.103625 -0.195312 -0.210938
v 2.423937 0.406250 -0.234375
v 0.642687 0.406250 -0.234375
v 2.306750 -0.140625 -0.125000
v 0.759875 -0.140625 -0.125000
v 2.572375 -0.101562 -0.328125
v 0.494250 -0.101562 -0.328125
v 2.814562 0.054688 -0.429688
v 0.252062 0.054688 -0.429688
v 2.884875 0.320312 -0.421875
v 0.181750 0.320312 -0.421875
v 2.767687 0.507812 -0.421875
v 0.298937 0.507812 -0.421875
v 2.556750 0.476562 -0.312500
v 0.509875 0.476562 -0.312500
v 2.548937 0.414062 -0.289062
v 0.517687 0.414062 -0.289062
v 2.720812 0.437500 -0.390625
v 0.345812 0.437500 -0.390625
v 2.798937 0.289062 -0.406250
v 0.267687 0.289062 -0.406250
v 2.744250 0.078125 -0.406250
v 0.322375 0.078125 -0.406250
v 2.564562 -0.039062 -0.304688
v 0.502062 -0.039062 -0.304688
v 2.361437 -0.070312 -0.132812
v 0.705187 -0.070312 -0.132812
v 2.455187 0.359375 -0.218750
v 0.611437 0.359375 -0.218750
v 2.478625 0.304688 -0.289062
v 0.588000 0.304688 -0.289062
v 2.416125 -0.023438 -0.210938
v 0.650500 -0.023438 -0.210938
v 2.572375 0.000000 -0.367188
v 0.494250 0.000000 -0.367188
v 2.720812 0.093750 -0.445312
v 0.345812 0.093750 -0.445312
v 2.767687 0.250000 -0.445312
v 0.298937 0.250000 -0.445312
v 2.705187 0.359375 -0.437500
v 0.361437 0.359375 -0.437500
v 2.556750 0.343750 -0.359375
v 0.509875 0.343750 -0.359375
v 2.377062 0.289062 -0.210938
v 0.689562 0.289062 -0.210938
v 2.369250 0.171875 -0.273438
v 0.697375 0.171875 -0.273438
v 2.291125 0.093750 -0.273438
v 0.775500 0.093750 -0.273438
v 2.353625 0.085938 -0.273438
v 0.713000 0.085938 -0.273438
v 2.377062 0.015625 -0.273438
v 0.689562 0.015625 -0.273438
v 2.345812 -0.015625 -0.273438
v 0.720812 -0.015625 -0.273438
v 2.259875 0.000000 -0.070312
v 0.806750 0.000000 -0.070312
v 2.252062 -0.023438 -0.171875
v 0.814562 -0.023438 -0.171875
v 2.252062 0.039062 -0.187500
v 0.814562 0.039062 -0.187500
v 2.330187 0.203125 -0.210938
v 0.736437 0.203125 -0.210938
v 2.423937 0.242188 -0.265625
v 0.642687 0.242188 -0.265625
v 2.423937 0.234375 -0.320312
v 0.642687 0.234375 -0.320312
v 2.345812 -0.015625 -0.320312
v 0.720812 -0.015625 -0.320312
v 2.384875 0.015625 -0.320312
v 0.681750 0.015625 -0.320312
v 2.361437 0.078125 -0.320312
v 0.705187 0.078125 -0.320312
v 2.298937 0.093750 -0.320312
v 0.767687 0.093750 -0.320312
v 2.377062 0.171875 -0.320312
v 0.689562 0.171875 -0.320312
v 2.572375 0.328125 -0.414062
v 0.494250 0.328125 -0.414062
v 2.720812 0.343750 -0.484375
v 0.345812 0.343750 -0.484375
v 2.791125 0.242188 -0.492188
v 0.275500 0.242188 -0.492188
v 2.744250 0.085938 -0.484375
v 0.322375 0.085938 -0.484375
v 2.580187 0.000000 -0.421875
v 0.486437 0.000000 -0.421875
v 2.416125 -0.015625 -0.265625
v 0.650500 -0.015625 -0.265625
v 2.486437 0.289062 -0.343750
v 0.580187 0.289062 -0.343750
v 2.423937 0.109375 -0.328125
v 0.642687 0.109375 -0.328125
v 2.470812 0.062500 -0.335938
v 0.595812 0.062500 -0.335938
v 2.533312 0.125000 -0.367188
v 0.533312 0.125000 -0.367188
v 2.494250 0.171875 -0.351562
v 0.572375 0.171875 -0.351562
v 2.548937 0.234375 -0.375000
v 0.517687 0.234375 -0.375000
v 2.588000 0.187500 -0.382812
v 0.478625 0.187500 -0.382812
v 2.642687 0.210938 -0.390625
v 0.423937 0.210938 -0.390625
v 2.619250 0.273438 -0.390625
v 0.447375 0.273438 -0.390625
v 2.556750 0.437500 -0.484375
v 0.509875 0.437500 -0.484375
v 2.783312 0.468750 -0.546875
v 0.283312 0.468750 -0.546875
v 2.900500 0.296875 -0.500000
v 0.166125 0.296875 -0.500000
v 2.845812 0.054688 -0.531250
v 0.220812 0.054688 -0.531250
v 2.572375 -0.085938 -0.492188
v 0.494250 -0.085938 -0.492188
v 2.322375 -0.125000 -0.328125
v 0.744250 -0.125000 -0.328125
v 2.392687 0.382812 -0.382812
v 0.673937 0.382812 -0.382812
vn 0.6650 -0.2008 0.7194
vn -0.6650 -0.2008 0.7194
vn 0.8294 -0.3036 0.4689
vn -0.8294 -0.3036 0.4689
vn 0.4155 -0.7933 0.4449
vn -0.4155 -0.7933 0.4449
vn 0.3600 -0.5089 0.7820
vn -0.3600 -0.5089 0.7820
vn -0.0787 -0.5394 0.8384
vn 0.0787 -0.5394 0.8384
vn -0.2696 -0.8413 0.4685
vn 0.2696 -0.8413 0.4685
vn -0.7707 -0.3352 0.5420
vn 0.7707 -0.3352 0.5420
vn -0.4689 -0.1940 0.8617
vn 0.4689 -0.1940 0.8617
vn -0.4767 0.1907 0.8581
vn 0.4767 0.1907 0.8581
vn -0.7672 0.3264 0.5521
vn 0.7672 0.3264 0.5521
vn -0.2519 0.8173 0.5182
vn 0.2519 0.8173 0.5182
vn -0.0949 0.5696 0.8164
vn 0.0949 0.5696 0.8164
vn 0.3667 0.5370 0.7597
vn -0.3667 0.5370 0.7597
vn 0.4141 0.7672 0.4898
vn -0.4141 0.7672 0.4898
vn 0.8277 0.2952 0.4771
vn -0.8277 0.2952 0.4771
vn 0.6713 0.1971 0.7145
vn -0.6713 0.1971 0.7145
vn 0.8111 0.3244 -0.4867
vn -0.8111 0.3244 -0.4867
vn 0.2052 0.8206 -0.5334
vn -0.2052 0.8206 -0.5334
vn -0.4223 0.7806 -0.4607
vn 0.4223 0.7806 -0.4607
vn -0.8241 0.3225 -0.4658
vn 0.8241 0.3225 -0.4658
vn -0.8137 -0.3487 -0.4650
vn 0.8137 -0.3487 -0.4650
vn -0.4223 -0.7806 -0.4607
vn 0.4223 -0.7806 -0.4607
vn 0.2052 -0.8206 -0.5334
vn -0.2052 -0.8206 -0.5334
vn 0.7995 -0.3510 -0.4875
vn -0.7995 -0.3510 -0.4875
vn 0.4000 -0.0623 0.9144
vn -0.4000 -0.0623 0.9144
vn 0.3069 -0.1754 0.9354
vn -0.3069 -0.1754 0.9354
vn 0.0945 -0.1835 0.9785
vn -0.0945 -0.1835 0.9785
vn -0.0624 -0.0283 0.9977
vn 0.0624 -0.0283 0.9977
vn -0.0624 0.0260 0.9977
vn 0.0624 0.0260 0.9977
vn 0.0996 0.1729 0.9799
vn -0.0996 0.1729 0.9799
vn 0.3036 0.1656 0.9383
vn -0.3036 0.1656 0.9383
vn 0.4002 0.0572 0.9147
vn -0.4002 0.0572 0.9147
vn 0.1231 -0.8616 0.4924
vn -0.1231 -0.8616 0.4924
vn 0.2190 -0.8647 0.4520
vn -0.2190 -0.8647 0.4520
vn 0.5902 -0.4550 0.6668
vn -0.5902 -0.4550 0.6668
vn 0.7689 -0.0506 0.6374
vn -0.7689 -0.0506 0.6374
vn 0.7796 0.0900 0.6197
vn -0.7796 0.0900 0.6197
vn 0.3241 -0.8188 0.4739
vn -0.3241 -0.8188 0.4739
vn 0.3857 -0.6629 0.6417
vn -0.3857 -0.6629 0.6417
vn 0.6895 -0.4193 0.5906
vn -0.6895 -0.4193 0.5906
vn 0.6588 -0.3634 0.6588
vn -0.6588 -0.3634 0.6588
vn 0.5465 0.3707 0.7509
vn -0.5465 0.3707 0.7509
vn 0.5064 0.6464 0.5706
vn -0.5064 0.6464 0.5706
vn 0.6092 0.5167 0.6015
vn -0.6092 0.5167 0.6015
vn -0.0441 0.6610 0.7491
vn 0.0441 0.6610 0.7491
vn -0.7246 0.3187 0.6110
vn 0.7246 0.3187 0.6110
vn -0.5880 0.5554 0.5880
vn 0.5880 0.5554 0.5880
vn 0.5361 -0.3909 0.7482
vn -0.5361 -0.3909 0.7482
vn 0.2207 -0.4690 0.8552
vn -0.2207 -0.4690 0.8552
vn -0.0794 -0.5321 0.8429
vn 0.0794 -0.5321 0.8429
vn -0.0825 -0.6575 0.7490
vn 0.0825 -0.6575 0.7490
vn 0.0457 -0.5667 0.8226
vn -0.0457 -0.5667 0.8226
vn 0.2784 -0.2130 0.9365
vn -0.2784 -0.2130 0.9365
vn 0.3813 -0.1824 0.9063
vn -0.3813 -0.1824 0.9063
vn 0.3357 -0.2878 0.8969
vn -0.3357 -0.2878 0.8969
vn 0.3762 0.0603 0.9246
vn -0.3762 0.0603 0.9246
vn -0.1352 0.2680 0.9539
vn 0.1352 0.2680 0.9539
vn 0.3961 -0.4321 0.8102
vn -0.3961 -0.4321 0.8102
vn 0.1856 -0.2474 0.9510
vn -0.1856 -0.2474 0.9510
vn 0.0099 -0.1948 0.9808
vn -0.0099 -0.1948 0.9808
vn 0.0721 -0.6966 0.7138
vn -0.0721 -0.6966 0.7138
vn 0.1863 -0.5723 0.7986
vn -0.1863 -0.5723 0.7986
vn 0.3157 -0.2708 0.9094
vn -0.3157 -0.2708 0.9094
vn 0.3063 -0.0265 0.9516
vn -0.3063 -0.0265 0.9516
vn 0.3266 -0.1306 0.9361
vn -0.3266 -0.1306 0.9361
vn -0.0137 0.0574 0.9983
vn 0.0137 0.0574 0.9983
vn -0.0026 -0.0656 0.9978
vn 0.0026 -0.0656 0.9978
vn -0.0000 -0.0000 1.0000
vn 0.8174 -0.5744 -0.0442
vn -0.8174 -0.5744 -0.0442
vn 0.9494 0.2297 -0.2144
vn -0.9494 0.2297 -0.2144
vn 0.0825 0.9073 -0.4124
vn -0.0825 0.9073 -0.4124
vn -0.8836 0.3555 0.3047
vn 0.8836 0.3555 0.3047
vn 0.4207 -0.8797 0.2218
vn -0.4207 -0.8797 0.2218
vn 0.2873 -0.5747 0.7663
vn -0.2873 -0.5747 0.7663
vn -0.6542 0.6019 0.4580
vn 0.6542 0.6019 0.4580
vn 0.1052 0.7892 0.6051
vn -0.1052 0.7892 0.6051
vn 0.7582 0.2916 0.5832
vn -0.7582 0.2916 0.5832
vn 0.3889 -0.7130 0.5834
vn -0.3889 -0.7130 0.5834
vn 0.0463 0.2314 0.9718
vn -0.0463 0.2314 0.9718
vn 0.0335 -0.4018 0.9151
vn -0.0335 -0.4018 0.9151
vn -0.4452 -0.1610 0.8809
vn 0.4452 -0.1610 0.8809
vn -0.2182 -0.4364 0.8729
vn 0.2182 -0.4364 0.8729
vn 0.4341 -0.1290 0.8916
vn -0.4341 -0.1290 0.8916
vn 0.3008 0.0501 0.9524
vn -0.3008 0.0501 0.9524
vn 0.8123 0.3010 0.4996
vn -0.8123 0.3010 0.4996
vn 0.8753 0.2574 0.4093
vn -0.8753 0.2574 0.4093
vn 0.9385 0.1601 0.3060
vn -0.9385 0.1601 0.3060
vn 0.2237 -0.6539 0.7227
vn -0.2237 -0.6539 0.7227
vn -0.1536 -0.1997 0.9677
vn 0.1536 -0.1997 0.9677
vn -0.2733 -0.1025 0.9565
vn 0.2733 -0.1025 0.9565
vn -0.0976 0.1952 0.9759
vn 0.0976 0.1952 0.9759
vn -0.1582 0.9494 0.2713
vn 0.1582 0.9494 0.2713
vn -0.6934 0.7082 0.1328
vn 0.6934 0.7082 0.1328
vn -1.0000 -0.0000 -0.0000
vn 1.0000 -0.0000 -0.0000
vn 0.3051 -0.9450 0.1181
vn -0.3051 -0.9450 0.1181
vn 0.0298 -0.2981 0.9541
vn -0.0298 -0.2981 0.9541
vn 0.1353 -0.3479 0.9277
vn -0.1353 -0.3479 0.9277
vn -0.5085 -0.2755 0.8158
vn 0.5085 -0.2755 0.8158
vn -0.3843 -0.0419 0.9223
vn 0.3843 -0.0419 0.9223
vn -0.2083 0.0374 0.9774
vn 0.2083 0.0374 0.9774
vn -0.5721 -0.4767 0.6674
vn 0.5721 -0.4767 0.6674
vn -0.1369 -0.7531 0.6435
vn 0.1369 -0.7531 0.6435
vn 0.4088 -0.6071 0.6814
vn -0.4088 -0.6071 0.6814
vn 0.5740 -0.4130 0.7070
vn -0.5740 -0.4130 0.7070
vn 0.5665 -0.0968 0.8183
vn -0.5665 -0.0968 0.8183
vn 0.5703 0.1180 0.8129
vn -0.5703 0.1180 0.8129
vn 0.4823 0.5621 0.6719
vn -0.4823 0.5621 0.6719
vn 0.2604 0.6114 0.7473
vn -0.2604 0.6114 0.7473
vn 0.1640 0.3607 0.9182
vn -0.1640 0.3607 0.9182
vn -0.0178 0.2495 0.9682
vn 0.0178 0.2495 0.9682
vn 0.3273 -0.4166 0.8481
vn -0.3273 -0.4166 0.8481
vn 0.2811 -0.2610 0.9235
vn -0.2811 -0.2610 0.9235
vn -0.2542 -0.6514 0.7149
vn 0.2542 -0.6514 0.7149
vn -0.0260 -0.8455 0.5333
vn 0.0260 -0.8455 0.5333
vn -0.3518 -0.2606 0.8991
vn 0.3518 -0.2606 0.8991
vn -0.3523 -0.0110 0.9358
vn 0.3523 -0.0110 0.9358
vn -0.1317 0.4608 0.8777
vn 0.1317 0.4608 0.8777
vn -0.0342 0.6159 0.7870
vn 0.0342 0.6159 0.7870
vn 0.3603 0.5836 0.7277
vn -0.3603 0.5836 0.7277
vn 0.4988 0.5300 0.6858
vn -0.4988 0.5300 0.6858
vn 0.6667 -0.3333 0.6667
vn -0.6667 -0.3333 0.6667
vn 0.8165 -0.0731 0.5727
vn -0.8165 -0.0731 0.5727
vn 0.7840 0.1161 0.6098
vn -0.7840 0.1161 0.6098
vn -0.5306 0.8111 -0.2461
vn 0.5306 0.8111 -0.2461
vn -0.8511 0.3695 -0.3730
vn 0.8511 0.3695 -0.3730
vn -0.2446 0.8675 -0.4331
vn 0.2446 0.8675 -0.4331
vn 0.5924 0.7465 -0.3030
vn -0.5924 0.7465 -0.3030
vn 0.3685 0.8758 -0.3118
vn -0.3685 0.8758 -0.3118
vn 0.2821 0.9151 -0.2880
vn -0.2821 0.9151 -0.2880
vn 0.8561 0.1340 -0.4991
vn -0.8561 0.1340 -0.4991
vn 0.5342 -0.7233 -0.4376
vn -0.5342 -0.7233 -0.4376
vn 0.3849 -0.8131 -0.4368
vn -0.3849 -0.8131 -0.4368
vn 0.2335 -0.5806 -0.7800
vn -0.2335 -0.5806 -0.7800
vn 0.2449 -0.0583 -0.9678
vn -0.2449 -0.0583 -0.9678
vn 0.1163 -0.4535 -0.8837
vn -0.1163 -0.4535 -0.8837
vn 0.1152 -0.9836 -0.1388
vn -0.1152 -0.9836 -0.1388
vn 0.1184 -0.9669 -0.2260
vn -0.1184 -0.9669 -0.2260
vn 0.9597 -0.0085 -0.2808
vn -0.9597 -0.0085 -0.2808
vn 0.9319 0.1629 -0.3242
vn -0.9319 0.1629 -0.3242
vn 0.1626 0.0207 -0.9865
vn -0.1626 0.0207 -0.9865
vn -0.0188 -0.2177 -0.9758
vn 0.0188 -0.2177 -0.9758
vn 0.7538 -0.2926 -0.5884
vn -0.7538 -0.2926 -0.5884
vn 0.9196 0.1379 -0.3678
vn -0.9196 0.1379 -0.3678
vn 0.9297 0.3127 -0.1944
vn -0.9297 0.3127 -0.1944
vn 0.9120 0.3376 -0.2329
vn -0.9120 0.3376 -0.2329
vn 0.9407 0.3338 -0.0607
vn -0.9407 0.3338 -0.0607
vn 0.1761 -0.8805 -0.4402
vn -0.1761 -0.8805 -0.4402
vn 0.3708 -0.4733 -0.7991
vn -0.3708 -0.4733 -0.7991
vn 0.3107 -0.8284 -0.4660
vn -0.3107 -0.8284 -0.4660
vn 0.2793 -0.9515 -0.1287
vn -0.2793 -0.9515 -0.1287
vn 0.3139 -0.9321 -0.1807
vn -0.3139 -0.9321 -0.1807
vn 0.9762 -0.2083 -0.0609
vn -0.9762 -0.2083 -0.0609
vn 0.8267 -0.5066 0.2447
vn -0.8267 -0.5066 0.2447
vn 0.3449 -0.1158 -0.9315
vn -0.3449 -0.1158 -0.9315
vn 0.1203 0.9644 0.2355
vn -0.1203 0.9644 0.2355
vn 0.1275 0.9744 -0.1851
vn -0.1275 0.9744 -0.1851
vn 0.3492 0.5947 -0.7241
vn -0.3492 0.5947 -0.7241
vn 0.4153 0.8981 -0.1449
vn -0.4153 0.8981 -0.1449
vn 0.1845 0.7036 0.6863
vn -0.1845 0.7036 0.6863
vn 0.6056 0.7794 0.1608
vn -0.6056 0.7794 0.1608
vn 0.7033 0.6806 -0.2053
vn -0.7033 0.6806 -0.2053
vn 0.6679 0.2007 -0.7166
vn -0.6679 0.2007 -0.7166
vn 0.4948 0.4342 -0.7528
vn -0.4948 0.4342 -0.7528
vn 0.6423 0.7459 -0.1761
vn -0.6423 0.7459 -0.1761
vn 0.7182 0.6788 0.1530
vn -0.7182 0.6788 0.1530
vn 0.7388 0.3972 0.5444
vn -0.7388 0.3972 0.5444
vn 0.3428 0.9261 -0.1579
vn -0.3428 0.9261 -0.1579
vn 0.2270 0.5740 0.7867
vn -0.2270 0.5740 0.7867
vn -0.1722 0.1046 -0.9795
vn 0.1722 0.1046 -0.9795
vn 0.0425 0.9150 0.4013
vn -0.0425 0.9150 0.4013
vn -0.1616 0.1847 0.9694
vn 0.1616 0.1847 0.9694
vn 0.9791 0.1973 0.0483
vn -0.9791 0.1973 0.0483
vn 0.9470 0.0918 0.3079
vn -0.9470 0.0918 0.3079
vn 0.9794 0.1905 -0.0661
vn -0.9794 0.1905 -0.0661
vn 0.9938 0.0312 -0.1070
vn -0.9938 0.0312 -0.1070
vn 0.7116 -0.7008 0.0501
vn -0.7116 -0.7008 0.0501
vn 0.3722 -0.9243 0.0847
vn -0.3722 -0.9243 0.0847
vn 0.4465 -0.8644 0.2310
vn -0.4465 -0.8644 0.2310
vn 0.6066 -0.7578 0.2405
vn -0.6066 -0.7578 0.2405
vn 0.7325 -0.6368 0.2407
vn -0.7325 -0.6368 0.2407
vn 0.2637 -0.4499 0.8533
vn -0.2637 -0.4499 0.8533
vn 0.5568 -0.3181 -0.7673
vn -0.5568 -0.3181 -0.7673
vn 0.5004 -0.2807 -0.8190
vn -0.5004 -0.2807 -0.8190
vn 0.3190 -0.8494 -0.4205
vn -0.3190 -0.8494 -0.4205
vn 0.7198 -0.6356 -0.2793
vn -0.7198 -0.6356 -0.2793
vn 0.4972 -0.4408 -0.7473
vn -0.4972 -0.4408 -0.7473
vn 0.3506 0.3807 0.8557
vn -0.3506 0.3807 0.8557
vn 0.4566 0.1715 0.8730
vn -0.4566 0.1715 0.8730
vn 0.2583 0.1055 0.9603
vn -0.2583 0.1055 0.9603
vn 0.2455 -0.0802 0.9661
vn -0.2455 -0.0802 0.9661
vn 0.4643 -0.0599 0.8837
vn -0.4643 -0.0599 0.8837
vn 0.6225 -0.3045 0.7210
vn -0.6225 -0.3045 0.7210
vn 0.4500 0.6590 0.6027
vn -0.4500 0.6590 0.6027
vn -0.2667 0.8309 0.4884
vn 0.2667 0.8309 0.4884
vn -0.8284 0.2291 0.5111
vn 0.8284 0.2291 0.5111
vn -0.5251 -0.3566 0.7727
vn 0.5251 -0.3566 0.7727
vn 0.4546 -0.5665 0.6873
vn -0.4546 -0.5665 0.6873
vn 0.6996 -0.4497 0.5552
vn -0.6996 -0.4497 0.5552
vn 0.7220 -0.6827 -0.1126
vn -0.7220 -0.6827 -0.1126
vn -0.1919 0.2860 0.9388
vn 0.1919 0.2860 0.9388
vn 0.9048 -0.3734 -0.2047
vn -0.9048 -0.3734 -0.2047
vn 0.1034 0.1551 0.9825
vn -0.1034 0.1551 0.9825
vn 0.0841 0.9318 0.3530
vn -0.0841 0.9318 0.3530
vn 0.6446 -0.0883 0.7594
vn -0.6446 -0.0883 0.7594
vn 0.4309 0.4740 0.7678
vn -0.4309 0.4740 0.7678
vn 0.8032 -0.4847 0.3462
vn -0.8032 -0.4847 0.3462
vn 0.5811 -0.4128 0.7014
vn -0.5811 -0.4128 0.7014
vn 0.5910 -0.4305 0.6822
vn -0.5910 -0.4305 0.6822
vn 0.9818 -0.1804 -0.0591
vn -0.9818 -0.1804 -0.0591
vn 0.9105 -0.3965 -0.1175
vn -0.9105 -0.3965 -0.1175
vn 0.9972 -0.0181 -0.0725
vn -0.9972 -0.0181 -0.0725
vn 0.7313 -0.6543 0.1925
vn -0.7313 -0.6543 0.1925
vn 0.7867 -0.6079 0.1073
vn -0.7867 -0.6079 0.1073
vn 0.7022 -0.7022 0.1170
vn -0.7022 -0.7022 0.1170
vn 0.1840 0.9816 -0.0511
vn -0.1840 0.9816 -0.0511
vn 0.9352 0.3301 0.1284
vn -0.9352 0.3301 0.1284
vn 0.6633 -0.7463 0.0553
vn -0.6633 -0.7463 0.0553
vn -0.0085 0.9970 0.0767
vn 0.0085 0.9970 0.0767
vn 0.6237 -0.7061 0.3354
vn -0.6237 -0.7061 0.3354
vn 0.2733 -0.8925 0.3587
vn -0.2733 -0.8925 0.3587
vn -0.8328 -0.5080 -0.2200
vn 0.8328 -0.5080 -0.2200
vn -0.8339 0.2377 -0.4981
vn 0.8339 0.2377 -0.4981
vn -0.5655 0.7847 -0.2539
vn 0.5655 0.7847 -0.2539
vn -0.0560 0.9962 0.0672
vn 0.0560 0.9962 0.0672
vn 0.1445 0.0222 0.9893
vn -0.1445 0.0222 0.9893
vn 0.3275 0.0645 0.9427
vn -0.3275 0.0645 0.9427
vn 0.3127 0.0232 0.9496
vn -0.3127 0.0232 0.9496
vn 0.1710 0.0274 0.9849
vn -0.1710 0.0274 0.9849
vn 0.3487 0.2849 0.8929
vn -0.3487 0.2849 0.8929
vn 0.4006 -0.0343 0.9156
vn -0.4006 -0.0343 0.9156
vn 0.2572 -0.0603 0.9645
vn -0.2572 -0.0603 0.9645
vn 0.0637 -0.0106 0.9979
vn -0.0637 -0.0106 0.9979
vn -0.3637 0.7039 0.6101
vn 0.3637 0.7039 0.6101
vn 0.6299 0.0355 0.7759
vn -0.6299 0.0355 0.7759
vn 0.4472 -0.2002 0.8717
vn -0.4472 -0.2002 0.8717
vn 0.5072 -0.2141 0.8348
vn -0.5072 -0.2141 0.8348
vn 0.5258 0.2619 0.8093
vn -0.5258 0.2619 0.8093
vn 0.2980 0.5802 0.7580
vn -0.2980 0.5802 0.7580
vn 0.0930 -0.9924 -0.0805
vn -0.0930 -0.9924 -0.0805
vn 0.5006 -0.8657 0.0080
vn -0.5006 -0.8657 0.0080
vn 0.9285 -0.2497 0.2748
vn -0.9285 -0.2497 0.2748
vn 0.8393 0.5424 -0.0378
vn -0.8393 0.5424 -0.0378
vn -0.2355 0.9367 -0.2589
vn 0.2355 0.9367 -0.2589
vn -0.4499 0.8838 -0.1285
vn 0.4499 0.8838 -0.1285
vn -0.5384 -0.0098 -0.8427
vn 0.5384 -0.0098 -0.8427
vn -0.1910 -0.0241 -0.9813
vn 0.1910 -0.0241 -0.9813
vn 0.4046 0.0266 -0.9141
vn -0.4046 0.0266 -0.9141
vn -0.7819 0.6231 0.0197
vn 0.7819 0.6231 0.0197
vn 0.5428 -0.2063 -0.8142
vn -0.5428 -0.2063 -0.8142
vn -0.2474 -0.9231 -0.2945
vn 0.2474 -0.9231 -0.2945
vt 0.843250 0.588863
vt 0.833697 0.611927
vt 0.794218 0.611927
vt 0.815334 0.560948
vt 0.866314 0.937441
vt 0.866314 0.897962
vt 0.889378 0.888409
vt 0.917293 0.916324
vt 0.746541 0.611927
vt 0.781622 0.527235
vt 0.866314 0.985118
vt 0.951006 0.950037
vt 0.815334 0.662907
vt 0.781622 0.696619
vt 0.781622 0.950037
vt 0.815334 0.916325
vt 0.843250 0.634991
vt 0.843250 0.888409
vt 0.866314 0.644544
vt 0.866314 0.684023
vt 0.794218 0.865345
vt 0.833697 0.865345
vt 0.866314 0.731700
vt 0.746541 0.865345
vt 0.917293 0.662907
vt 0.951006 0.696619
vt 0.781622 0.780653
vt 0.815334 0.814366
vt 0.889378 0.634991
vt 0.843250 0.842281
vt 0.898931 0.611927
vt 0.938410 0.611927
vt 0.866314 0.793249
vt 0.866314 0.832728
vt 0.986087 0.611927
vt 0.866314 0.745572
vt 0.917294 0.560947
vt 0.951006 0.527235
vt 0.951006 0.780653
vt 0.917294 0.814365
vt 0.889378 0.588863
vt 0.889378 0.842281
vt 0.866314 0.579310
vt 0.866314 0.539831
vt 0.938410 0.865345
vt 0.898931 0.865345
vt 0.866314 0.492154
vt 0.986087 0.865345
vt 0.866314 0.585461
vt 0.847600 0.593213
vt 0.892780 0.865345
vt 0.885028 0.884059
vt 0.885028 0.593213
vt 0.885028 0.846631
vt 0.892780 0.611927
vt 0.866314 0.838879
vt 0.885028 0.630641
vt 0.847600 0.846631
vt 0.866314 0.638393
vt 0.839848 0.865345
vt 0.847600 0.630641
vt 0.847600 0.884059
vt 0.839848 0.611927
vt 0.866314 0.891811
vt 0.866314 0.611927
vt 0.866314 0.865345
vt 0.520711 0.060503
vt 0.517028 0.068490
vt 0.500000 0.064527
vt 0.500000 0.054411
vt 0.482972 0.068490
vt 0.479289 0.060503
vt 0.530457 0.065062
vt 0.522612 0.070678
vt 0.477388 0.070678
vt 0.469543 0.065062
vt 0.532878 0.067822
vt 0.526301 0.079422
vt 0.473699 0.079422
vt 0.467122 0.067822
vt 0.544695 0.083023
vt 0.529228 0.091098
vt 0.470772 0.091098
vt 0.455305 0.083023
vt 0.565647 0.115495
vt 0.537536 0.127779
vt 0.462464 0.127779
vt 0.434353 0.115495
vt 0.586916 0.172042
vt 0.626605 0.208159
vt 0.600470 0.238288
vt 0.535885 0.215568
vt 0.399530 0.238288
vt 0.373395 0.208159
vt 0.413084 0.172042
vt 0.464115 0.215568
vt 0.650908 0.240294
vt 0.636962 0.261221
vt 0.363038 0.261221
vt 0.349092 0.240294
vt 0.689501 0.268805
vt 0.655896 0.284413
vt 0.344104 0.284413
vt 0.310499 0.268805
vt 0.684517 0.317795
vt 0.659507 0.313152
vt 0.340493 0.313152
vt 0.315483 0.317795
vt 0.671357 0.334694
vt 0.649107 0.322437
vt 0.350893 0.322437
vt 0.328643 0.334694
vt 0.636775 0.370732
vt 0.613636 0.353108
vt 0.386364 0.353108
vt 0.363225 0.370732
vt 0.602261 0.395588
vt 0.594178 0.371277
vt 0.405822 0.371277
vt 0.397739 0.395588
vt 0.581044 0.398468
vt 0.577351 0.373341
vt 0.422649 0.373341
vt 0.418956 0.398468
vt 0.532016 0.387365
vt 0.539817 0.354339
vt 0.460183 0.354339
vt 0.467984 0.387365
vt 0.500000 0.382860
vt 0.500000 0.340417
vt 0.559135 0.334326
vt 0.579057 0.335646
vt 0.420943 0.335646
vt 0.440865 0.334326
vt 0.592090 0.332885
vt 0.407910 0.332885
vt 0.606163 0.325516
vt 0.393837 0.325516
vt 0.628251 0.311636
vt 0.371749 0.311636
vt 0.635551 0.300507
vt 0.364449 0.300507
vt 0.631484 0.283889
vt 0.368516 0.283889
vt 0.611331 0.264411
vt 0.388669 0.264411
vt 0.592372 0.254897
vt 0.407628 0.254897
vt 0.559669 0.267717
vt 0.440331 0.267717
vt 0.550878 0.277832
vt 0.500000 0.252445
vt 0.449122 0.277832
vt 0.544001 0.314523
vt 0.455999 0.314523
vt 0.500000 0.295691
vt 0.543637 0.293371
vt 0.456363 0.293371
vt 0.506819 0.075382
vt 0.500000 0.073497
vt 0.493181 0.075382
vt 0.511782 0.080633
vt 0.488218 0.080633
vt 0.512172 0.093457
vt 0.487828 0.093457
vt 0.514257 0.133422
vt 0.513874 0.097191
vt 0.486126 0.097191
vt 0.485743 0.133422
vt 0.520226 0.164615
vt 0.500000 0.157864
vt 0.500000 0.134352
vt 0.479774 0.164615
vt 0.500000 0.100063
vt 0.500000 0.091346
vt 0.530258 0.180239
vt 0.521901 0.181560
vt 0.517666 0.172353
vt 0.482334 0.172353
vt 0.478099 0.181560
vt 0.469742 0.180239
vt 0.523673 0.198817
vt 0.518957 0.194728
vt 0.481043 0.194728
vt 0.476327 0.198817
vt 0.500000 0.203867
vt 0.508211 0.197295
vt 0.491789 0.197295
vt 0.500000 0.197278
vt 0.500000 0.192167
vt 0.500000 0.165170
vt 0.513538 0.176949
vt 0.500000 0.171718
vt 0.486462 0.176949
vt 0.500000 0.186182
vt 0.508818 0.192407
vt 0.491182 0.192407
vt 0.515232 0.190709
vt 0.484768 0.190709
vt 0.516908 0.181873
vt 0.483092 0.181873
vt 0.544209 0.172814
vt 0.455791 0.172814
vt 0.541327 0.154899
vt 0.458673 0.154899
vt 0.578661 0.139176
vt 0.421339 0.139176
vt 0.583245 0.154155
vt 0.416755 0.154155
vt 0.500000 0.089977
vt 0.509911 0.090724
vt 0.490089 0.090724
vt 0.509713 0.082236
vt 0.490287 0.082236
vt 0.505196 0.077083
vt 0.494804 0.077083
vt 0.500000 0.075473
vt 0.503445 0.080840
vt 0.500000 0.080320
vt 0.496555 0.080840
vt 0.506660 0.083289
vt 0.493340 0.083289
vt 0.506822 0.086791
vt 0.493178 0.086791
vt 0.500000 0.085637
vt 0.562361 0.284338
vt 0.559190 0.294882
vt 0.437639 0.284338
vt 0.440810 0.294882
vt 0.563180 0.307151
vt 0.436820 0.307151
vt 0.570458 0.318697
vt 0.429542 0.318697
vt 0.569243 0.278245
vt 0.430757 0.278245
vt 0.589914 0.271772
vt 0.410086 0.271772
vt 0.602190 0.277180
vt 0.397810 0.277180
vt 0.617110 0.287175
vt 0.382890 0.287175
vt 0.618074 0.299197
vt 0.381926 0.299197
vt 0.615871 0.307438
vt 0.384129 0.307438
vt 0.598424 0.313725
vt 0.401576 0.313725
vt 0.590828 0.319797
vt 0.409172 0.319797
vt 0.582130 0.320991
vt 0.417870 0.320991
vt 0.578615 0.309394
vt 0.583998 0.312892
vt 0.421385 0.309394
vt 0.416002 0.312892
vt 0.589656 0.312336
vt 0.410344 0.312336
vt 0.596347 0.309249
vt 0.403653 0.309249
vt 0.606014 0.302517
vt 0.393986 0.302517
vt 0.607735 0.297520
vt 0.392265 0.297520
vt 0.606985 0.291216
vt 0.393015 0.291216
vt 0.598275 0.283083
vt 0.401725 0.283083
vt 0.589866 0.280167
vt 0.410134 0.280167
vt 0.576352 0.284624
vt 0.423648 0.284624
vt 0.572831 0.289915
vt 0.427169 0.289915
vt 0.573307 0.303342
vt 0.426693 0.303342
vt 0.572447 0.295716
vt 0.427553 0.295716
vt 0.529647 0.428636
vt 0.500000 0.428636
vt 0.470353 0.428636
vt 0.584616 0.428636
vt 0.415384 0.428636
vt 0.622301 0.417889
vt 0.377699 0.417889
vt 0.666214 0.388954
vt 0.333786 0.388954
vt 0.701481 0.344467
vt 0.298519 0.344467
vt 0.712163 0.315527
vt 0.287837 0.315527
vt 0.704305 0.260225
vt 0.295695 0.260225
vt 0.672947 0.224880
vt 0.327053 0.224880
vt 0.640497 0.198841
vt 0.359503 0.198841
vt 0.603553 0.023452
vt 0.625128 0.029461
vt 0.635753 0.082198
vt 0.598617 0.056841
vt 0.364247 0.082198
vt 0.374872 0.029461
vt 0.396447 0.023452
vt 0.401383 0.056841
vt 0.546781 0.009442
vt 0.556354 0.040906
vt 0.453219 0.009442
vt 0.443646 0.040906
vt 0.500000 0.033223
vt 0.527159 0.049514
vt 0.472841 0.049514
vt 0.537222 0.060794
vt 0.462778 0.060794
vt 0.558499 0.065137
vt 0.441501 0.065137
vt 0.588127 0.085177
vt 0.411873 0.085177
vt 0.607239 0.113940
vt 0.392761 0.113940
vt 0.612663 0.133675
vt 0.605467 0.151503
vt 0.394533 0.151503
vt 0.387337 0.133675
vt 0.600708 0.162985
vt 0.399292 0.162985
vt 0.922374 0.064228
vt 0.859647 0.117994
vt 0.823287 0.101559
vt 0.861342 0.027230
vt 0.176713 0.101559
vt 0.140353 0.117994
vt 0.077626 0.064228
vt 0.138658 0.027230
vt 0.765863 0.087001
vt 0.774604 0.010837
vt 0.234137 0.087001
vt 0.225396 0.010837
vt 0.661952 0.087561
vt 0.647010 0.028716
vt 0.338048 0.087561
vt 0.352990 0.028716
vt 0.743592 0.198572
vt 0.766410 0.233065
vt 0.256408 0.198572
vt 0.233590 0.233065
vt 0.987633 0.154243
vt 0.889478 0.177602
vt 0.110522 0.177602
vt 0.012367 0.154243
vt 0.899807 0.420886
vt 0.844317 0.347370
vt 0.881169 0.309153
vt 0.958963 0.357385
vt 0.118831 0.309153
vt 0.155683 0.347370
vt 0.100193 0.420886
vt 0.041037 0.357385
vt 0.903302 0.261367
vt 0.999860 0.253531
vt 0.096698 0.261367
vt 0.000140 0.253531
vt 0.724763 0.340212
vt 0.744725 0.304629
vt 0.766113 0.319494
vt 0.255275 0.304629
vt 0.275237 0.340212
vt 0.233887 0.319494
vt 0.793427 0.280495
vt 0.826663 0.297810
vt 0.206573 0.280495
vt 0.173337 0.297810
vt 0.823620 0.254612
vt 0.855331 0.267956
vt 0.176380 0.254612
vt 0.144669 0.267956
vt 0.835860 0.225225
vt 0.868309 0.233525
vt 0.164140 0.225225
vt 0.131691 0.233525
vt 0.813499 0.190705
vt 0.851288 0.181145
vt 0.148712 0.181145
vt 0.186501 0.190705
vt 0.772263 0.374010
vt 0.227737 0.374010
vt 0.744519 0.390057
vt 0.255481 0.390057
vt 0.824765 0.470987
vt 0.175235 0.470987
vt 0.792141 0.464714
vt 0.742181 0.461543
vt 0.726855 0.432574
vt 0.273145 0.432574
vt 0.257819 0.461543
vt 0.207859 0.464714
vt 0.795638 0.489991
vt 0.204362 0.489991
vt 0.786137 0.227788
vt 0.213863 0.227788
vt 0.802950 0.203415
vt 0.197050 0.203415
vt 0.769334 0.128771
vt 0.691484 0.146686
vt 0.230666 0.128771
vt 0.308516 0.146686
vt 0.780113 0.169386
vt 0.219887 0.169386
vt 0.803789 0.171181
vt 0.830917 0.139518
vt 0.169083 0.139518
vt 0.196211 0.171181
vt 0.574628 0.959188
vt 0.464516 0.959188
vt 0.477326 0.891852
vt 0.545439 0.884582
vt 0.272900 0.891852
vt 0.285710 0.959188
vt 0.175598 0.959188
vt 0.204787 0.884582
vt 0.605134 0.846978
vt 0.715894 0.897069
vt 0.145092 0.846978
vt 0.034332 0.897069
vt 0.605360 0.784410
vt 0.683874 0.757011
vt 0.144866 0.784410
vt 0.066352 0.757011
vt 0.574835 0.744212
vt 0.617867 0.719156
vt 0.175391 0.744212
vt 0.132359 0.719156
vt 0.534996 0.712528
vt 0.568728 0.682132
vt 0.215230 0.712528
vt 0.181498 0.682132
vt 0.483006 0.686791
vt 0.508539 0.641024
vt 0.267220 0.686791
vt 0.241687 0.641024
vt 0.513415 0.736977
vt 0.478880 0.719593
vt 0.271346 0.719593
vt 0.236811 0.736977
vt 0.541117 0.760754
vt 0.209109 0.760754
vt 0.557599 0.789442
vt 0.192627 0.789442
vt 0.553841 0.821849
vt 0.196385 0.821849
vt 0.524671 0.842380
vt 0.225555 0.842380
vt 0.485193 0.845321
vt 0.265033 0.845321
vt 0.786150 0.181127
vt 0.770208 0.191225
vt 0.213850 0.181127
vt 0.229792 0.191225
vt 0.408153 0.587507
vt 0.409610 0.674022
vt 0.342073 0.587507
vt 0.340616 0.674022
vt 0.400301 0.910556
vt 0.414155 0.878318
vt 0.336071 0.878318
vt 0.349925 0.910556
vt 0.443630 0.713731
vt 0.306596 0.713731
vt 0.429725 0.728622
vt 0.392812 0.710774
vt 0.357414 0.710774
vt 0.320501 0.728622
vt 0.422979 0.754609
vt 0.432640 0.746527
vt 0.327247 0.754609
vt 0.317586 0.746527
vt 0.427719 0.796173
vt 0.391578 0.815187
vt 0.358648 0.815187
vt 0.322507 0.796173
vt 0.448277 0.830976
vt 0.301949 0.830976
vt 0.797710 0.195652
vt 0.802580 0.199758
vt 0.197420 0.199758
vt 0.202290 0.195652
vt 0.789609 0.184671
vt 0.210391 0.184671
vt 0.466042 0.804091
vt 0.490498 0.816075
vt 0.284184 0.804091
vt 0.259728 0.816075
vt 0.448042 0.783921
vt 0.302184 0.783921
vt 0.438745 0.764960
vt 0.311481 0.764960
vt 0.445216 0.756351
vt 0.305010 0.756351
vt 0.449819 0.743458
vt 0.300407 0.743458
vt 0.456307 0.732687
vt 0.293919 0.732687
vt 0.475471 0.740871
vt 0.274755 0.740871
vt 0.514211 0.817769
vt 0.236015 0.817769
vt 0.527961 0.808598
vt 0.222265 0.808598
vt 0.530079 0.790754
vt 0.220147 0.790754
vt 0.518620 0.772385
vt 0.231606 0.772385
vt 0.498668 0.755033
vt 0.251558 0.755033
vt 0.468029 0.756171
vt 0.459660 0.770459
vt 0.282197 0.756171
vt 0.290566 0.770459
vt 0.487167 0.769899
vt 0.477354 0.785393
vt 0.263059 0.769899
vt 0.272872 0.785393
vt 0.504617 0.782999
vt 0.496545 0.797122
vt 0.245609 0.782999
vt 0.253681 0.797122
vt 0.516137 0.792591
vt 0.513713 0.804019
vt 0.234089 0.792591
vt 0.236513 0.804019
vt 0.574269 0.607668
vt 0.613510 0.655816
vt 0.175957 0.607668
vt 0.136716 0.655816
vt 0.644031 0.693270
vt 0.106195 0.693270
vt 0.668163 0.712097
vt 0.082063 0.712097
vt 0.727131 0.698475
vt 0.676584 0.686010
vt 0.023095 0.698475
vt 0.073642 0.686010
vt 0.729804 0.624370
vt 0.667013 0.640198
vt 0.020422 0.624370
vt 0.083213 0.640198
vt 0.721292 0.572934
vt 0.648152 0.594596
vt 0.028934 0.572934
vt 0.102074 0.594596
vt 0.630034 0.557583
vt 0.717709 0.538143
vt 0.032517 0.538143
vt 0.120192 0.557583
vt 0.526877 0.539235
vt 0.223349 0.539235
s 0
usemtl Monkey
f 107/121/32 61/122/32 63/123/32 105/124/32
f 64/125/33 62/126/33 108/127/33 106/128/33
f 105/124/34 63/123/34 65/129/34 103/130/34
f 66/131/35 64/125/35 106/128/35 104/132/35
f 63/123/36 69/133/36 67/134/36 65/129/36
f 68/135/37 70/136/37 64/125/37 66/131/37
f 61/122/38 71/137/38 69/133/38 63/123/38
f 70/136/39 72/138/39 62/126/39 64/125/39
f 71/137/40 73/139/40 75/140/40 69/133/40
f 76/141/41 74/142/41 72/138/41 70/136/41
f 69/133/42 75/140/42 77/143/42 67/134/42
f 78/144/43 76/141/43 70/136/43 68/135/43
f 75/140/44 81/145/44 79/146/44 77/143/44
f 80/147/45 82/148/45 76/141/45 78/144/45
f 73/139/46 83/149/46 81/145/46 75/140/46
f 82/148/47 84/150/47 74/142/47 76/141/47
f 83/149/48 85/151/48 87/152/48 81/145/48
f 88/153/49 86/154/49 84/150/49 82/148/49
f 81/145/50 87/152/50 89/155/50 79/146/50
f 90/156/51 88/153/51 82/148/51 80/147/51
f 87/152/52 93/157/52 91/158/52 89/155/52
f 92/159/53 94/160/53 88/153/53 90/156/53
f 85/151/54 95/161/54 93/157/54 87/152/54
f 94/160/55 96/162/55 86/154/55 88/153/55
f 95/161/56 97/163/56 99/164/56 93/157/56
f 100/165/57 98/166/57 96/162/57 94/160/57
f 93/157/58 99/164/58 101/167/58 91/158/58
f 102/168/59 100/165/59 94/160/59 92/159/59
f 99/164/60 105/124/60 103/130/60 101/167/60
f 104/132/61 106/128/61 100/165/61 102/168/61
f 97/163/62 107/121/62 105/124/62 99/164/62
f 106/128/63 108/127/63 98/166/63 100/165/63
f 107/121/64 97/163/64 111/169/64 109/170/64
f 112/171/65 98/166/65 108/127/65 110/172/65
f 97/163/66 95/161/66 113/173/66 111/169/66
f 114/174/67 96/162/67 98/166/67 112/171/67
f 95/161/68 85/151/68 115/175/68 113/173/68
f 116/176/69 86/154/69 96/162/69 114/174/69
f 85/151/70 83/149/70 117/177/70 115/175/70
f 118/178/71 84/150/71 86/154/71 116/176/71
f 83/149/72 73/139/72 119/179/72 117/177/72
f 120/180/73 74/142/73 84/150/73 118/178/73
f 73/139/74 71/137/74 123/181/74 119/179/74
f 124/182/75 72/138/75 74/142/75 120/180/75
f 71/137/76 61/122/76 125/183/76 123/181/76
f 126/184/77 62/126/77 72/138/77 124/182/77
f 61/122/78 107/121/78 109/170/78 125/183/78
f 110/172/79 108/127/79 62/126/79 126/184/79
f 121/185/80 125/183/80 109/170/80
f 110/172/81 126/184/81 122/186/81
f 123/181/82 125/183/82 121/185/82
f 122/186/83 126/184/83 124/182/83
f 121/185/84 119/179/84 123/181/84
f 124/182/85 120/180/85 122/186/85
f 121/185/86 117/177/86 119/179/86
f 120/180/87 118/178/87 122/186/87
f 121/185/88 115/175/88 117/177/88
f 118/178/89 116/176/89 122/186/89
f 121/185/90 113/173/90 115/175/90
f 116/176/91 114/174/91 122/186/91
f 121/185/92 111/169/92 113/173/92
f 114/174/93 112/171/93 122/186/93
f 121/185/94 109/170/94 111/169/94
f 112/171/95 110/172/95 122/186/95
f 149/187/96 234/188/96 236/189/96 151/190/96
f 236/189/97 235/191/97 150/192/97 151/190/97
f 147/193/98 232/194/98 234/188/98 149/187/98
f 235/191/99 233/195/99 148/196/99 150/192/99
f 145/197/100 230/198/100 232/194/100 147/193/100
f 233/195/101 231/199/101 146/200/101 148/196/101
f 143/201/102 228/202/102 230/198/102 145/197/102
f 231/199/103 229/203/103 144/204/103 146/200/103
f 141/205/104 226/206/104 228/202/104 143/201/104
f 229/203/105 227/207/105 142/208/105 144/204/105
f 139/209/106 152/210/106 206/211/106 224/212/106
f 207/213/107 153/214/107 140/215/107 225/216/107
f 152/210/108 154/217/108 208/218/108 206/211/108
f 209/219/109 155/220/109 153/214/109 207/213/109
f 154/217/110 156/221/110 210/222/110 208/218/110
f 211/223/111 157/224/111 155/220/111 209/219/111
f 156/221/112 158/225/112 212/226/112 210/222/112
f 213/227/113 159/228/113 157/224/113 211/223/113
f 158/225/114 160/229/114 214/230/114 212/226/114
f 215/231/115 161/232/115 159/228/115 213/227/115
f 160/229/116 162/233/116 216/234/116 214/230/116
f 217/235/117 163/236/117 161/232/117 215/231/117
f 162/233/118 164/237/118 218/238/118 216/234/118
f 219/239/119 165/240/119 163/236/119 217/235/119
f 164/237/120 166/241/120 220/242/120 218/238/120
f 221/243/121 167/244/121 165/240/121 219/239/121
f 166/241/122 168/245/122 222/246/122 220/242/122
f 223/247/123 169/248/123 167/244/123 221/243/123
f 168/245/124 127/249/124 128/250/124 222/246/124
f 128/250/125 127/249/125 169/248/125 223/247/125
f 170/251/126 188/252/126 220/242/126 222/246/126
f 221/243/127 189/253/127 171/254/127 223/247/127
f 188/252/128 239/255/128 218/238/128 220/242/128
f 219/239/129 240/256/129 189/253/129 221/243/129
f 186/257/130 216/234/130 218/238/130 239/255/130
f 219/239/131 217/235/131 187/258/131 240/256/131
f 184/259/132 214/230/132 216/234/132 186/257/132
f 217/235/133 215/231/133 185/260/133 187/258/133
f 182/261/134 212/226/134 214/230/134 184/259/134
f 215/231/135 213/227/135 183/262/135 185/260/135
f 180/263/136 210/222/136 212/226/136 182/261/136
f 213/227/137 211/223/137 181/264/137 183/262/137
f 178/265/138 208/218/138 210/222/138 180/263/138
f 211/223/139 209/219/139 179/266/139 181/264/139
f 176/267/140 206/211/140 208/218/140 178/265/140
f 209/219/141 207/213/141 177/268/141 179/266/141
f 174/269/142 224/212/142 206/211/142 176/267/142
f 207/213/143 225/216/143 175/270/143 177/268/143
f 174/269/144 241/271/144 237/272/144 224/212/144
f 237/272/145 242/273/145 175/270/145 225/216/145
f 170/251/146 222/246/146 128/250/146 172/274/146
f 128/250/147 223/247/147 171/254/147 173/275/147
f 172/274/148 128/250/148 238/276/148 243/277/148
f 238/276/149 128/250/149 173/275/149 244/278/149
f 237/272/150 241/271/150 243/277/150 238/276/150
f 244/278/151 242/273/151 237/272/151 238/276/151
f 195/279/152 197/280/152 236/189/152 234/188/152
f 236/189/153 197/280/153 196/281/153 235/191/153
f 193/282/154 195/279/154 234/188/154 232/194/154
f 235/191/155 196/281/155 194/283/155 233/195/155
f 191/284/156 193/282/156 232/194/156 230/198/156
f 233/195/157 194/283/157 192/285/157 231/199/157
f 226/206/158 247/286/158 245/287/158 228/202/158
f 246/288/159 248/289/159 227/207/159 229/203/159
f 191/284/160 230/198/160 228/202/160 245/287/160
f 229/203/161 231/199/161 192/285/161 246/288/161
f 204/290/162 250/291/162 249/292/162 247/286/162
f 249/292/163 250/291/163 205/293/163 248/289/163
f 245/287/164 247/286/164 249/292/164 129/294/164
f 249/292/165 248/289/165 246/288/165 129/294/165
f 190/295/166 191/284/166 245/287/166 129/294/166
f 246/288/166 192/285/166 190/295/166 129/294/166
f 202/296/167 253/297/167 251/298/167 204/290/167
f 252/299/168 254/300/168 203/301/168 205/293/168
f 200/302/169 255/303/169 253/297/169 202/296/169
f 254/300/170 256/304/170 201/305/170 203/301/170
f 199/306/171 257/307/171 255/303/171 200/302/171
f 256/304/172 258/308/172 199/306/172 201/305/172
f 198/309/173 131/310/173 257/307/173 199/306/173
f 258/308/174 131/310/174 198/309/174 199/306/174
f 250/291/175 204/290/175 251/298/175 130/311/175
f 252/299/176 205/293/176 250/291/176 130/311/176
f 130/311/177 251/298/177 266/312/177 268/313/177
f 267/314/178 252/299/178 130/311/178 268/313/178
f 131/310/179 259/315/179 260/316/179 257/307/179
f 261/317/180 259/315/180 131/310/180 258/308/180
f 257/307/181 260/316/181 262/318/181 255/303/181
f 263/319/182 261/317/182 258/308/182 256/304/182
f 255/303/183 262/318/183 264/320/183 253/297/183
f 265/321/184 263/319/184 256/304/184 254/300/184
f 253/297/185 264/320/185 266/312/185 251/298/185
f 267/314/186 265/321/186 254/300/186 252/299/186
f 259/315/187 264/320/187 262/318/187 260/316/187
f 263/319/188 265/321/188 259/315/188 261/317/188
f 259/315/189 268/313/189 266/312/189 264/320/189
f 267/314/190 268/313/190 259/315/190 265/321/190
f 199/306/191 200/302/191 224/212/191 237/272/191
f 225/216/192 201/305/192 199/306/192 237/272/192
f 200/302/193 202/296/193 271/322/193 224/212/193
f 272/323/194 203/301/194 201/305/194 225/216/194
f 202/296/195 204/290/195 273/324/195 271/322/195
f 274/325/196 205/293/196 203/301/196 272/323/196
f 204/290/197 247/286/197 226/206/197 273/324/197
f 227/207/198 248/289/198 205/293/198 274/325/198
f 141/205/199 269/326/199 273/324/199 226/206/199
f 274/325/200 270/327/200 142/208/200 227/207/200
f 269/326/201 275/328/201 271/322/201 273/324/201
f 272/323/202 276/329/202 270/327/202 274/325/202
f 139/209/203 224/212/203 271/322/203 275/328/203
f 272/323/204 225/216/204 140/215/204 276/329/204
f 191/284/205 190/295/205 132/330/205 282/331/205
f 132/330/206 190/295/206 192/285/206 283/332/206
f 193/282/207 191/284/207 282/331/207 280/333/207
f 283/332/208 192/285/208 194/283/208 281/334/208
f 195/279/209 193/282/209 280/333/209 278/335/209
f 281/334/210 194/283/210 196/281/210 279/336/210
f 197/280/211 195/279/211 278/335/211 277/337/211
f 279/336/212 196/281/212 197/280/212 277/337/212
f 277/337/213 278/335/213 289/338/213 291/339/213
f 290/340/214 279/336/214 277/337/214 291/339/214
f 278/335/215 280/333/215 287/341/215 289/338/215
f 288/342/216 281/334/216 279/336/216 290/340/216
f 280/333/217 282/331/217 285/343/217 287/341/217
f 286/344/218 283/332/218 281/334/218 288/342/218
f 282/331/219 132/330/219 284/345/219 285/343/219
f 284/345/220 132/330/220 283/332/220 286/344/220
f 284/345/221 291/339/221 289/338/221 285/343/221
f 290/340/222 291/339/222 284/345/222 286/344/222
f 285/343/223 289/338/223 287/341/223
f 288/342/224 290/340/224 286/344/224
f 243/277/225 241/271/225 294/346/225 292/347/225
f 295/348/226 242/273/226 244/278/226 293/349/226
f 172/274/227 243/277/227 292/347/227 314/350/227
f 293/349/228 244/278/228 173/275/228 315/351/228
f 170/251/229 172/274/229 314/350/229 316/352/229
f 315/351/230 173/275/230 171/254/230 317/353/230
f 241/271/231 174/269/231 312/354/231 294/346/231
f 313/355/232 175/270/232 242/273/232 295/348/232
f 174/269/233 176/267/233 310/356/233 312/354/233
f 311/357/234 177/268/234 175/270/234 313/355/234
f 176/267/235 178/265/235 308/358/235 310/356/235
f 309/359/236 179/266/236 177/268/236 311/357/236
f 178/265/237 180/263/237 306/360/237 308/358/237
f 307/361/238 181/264/238 179/266/238 309/359/238
f 180/263/239 182/261/239 304/362/239 306/360/239
f 305/363/240 183/262/240 181/264/240 307/361/240
f 182/261/241 184/259/241 302/364/241 304/362/241
f 303/365/242 185/260/242 183/262/242 305/363/242
f 184/259/243 186/257/243 300/366/243 302/364/243
f 301/367/244 187/258/244 185/260/244 303/365/244
f 186/257/245 239/255/245 296/368/245 300/366/245
f 297/369/246 240/256/246 187/258/246 301/367/246
f 239/255/247 188/252/247 298/370/247 296/368/247
f 299/371/248 189/253/248 240/256/248 297/369/248
f 188/252/249 170/251/249 316/352/249 298/370/249
f 317/353/250 171/254/250 189/253/250 299/371/250
f 298/370/251 316/352/251 318/372/251 336/373/251
f 319/374/252 317/353/252 299/371/252 337/375/252
f 296/368/253 298/370/253 336/373/253 338/376/253
f 337/375/254 299/371/254 297/369/254 339/377/254
f 300/366/255 296/368/255 338/376/255 334/378/255
f 339/377/256 297/369/256 301/367/256 335/379/256
f 302/364/257 300/366/257 334/378/257 332/380/257
f 335/379/258 301/367/258 303/365/258 333/381/258
f 304/362/259 302/364/259 332/380/259 330/382/259
f 333/381/260 303/365/260 305/363/260 331/383/260
f 306/360/261 304/362/261 330/382/261 328/384/261
f 331/383/262 305/363/262 307/361/262 329/385/262
f 308/358/263 306/360/263 328/384/263 326/386/263
f 329/385/264 307/361/264 309/359/264 327/387/264
f 310/356/265 308/358/265 326/386/265 324/388/265
f 327/387/266 309/359/266 311/357/266 325/389/266
f 312/354/267 310/356/267 324/388/267 322/390/267
f 325/389/268 311/357/268 313/355/268 323/391/268
f 294/346/269 312/354/269 322/390/269 340/392/269
f 323/391/270 313/355/270 295/348/270 341/393/270
f 316/352/271 314/350/271 320/394/271 318/372/271
f 321/395/272 315/351/272 317/353/272 319/374/272
f 314/350/273 292/347/273 342/396/273 320/394/273
f 343/397/274 293/349/274 315/351/274 321/395/274
f 292/347/275 294/346/275 340/392/275 342/396/275
f 341/393/276 295/348/276 293/349/276 343/397/276
f 127/249/277 168/245/277 344/398/277 133/399/277
f 345/400/278 169/248/278 127/249/278 133/399/278
f 168/245/279 166/241/279 346/401/279 344/398/279
f 347/402/280 167/244/280 169/248/280 345/400/280
f 166/241/281 164/237/281 348/403/281 346/401/281
f 349/404/282 165/240/282 167/244/282 347/402/282
f 164/237/283 162/233/283 350/405/283 348/403/283
f 351/406/284 163/236/284 165/240/284 349/404/284
f 162/233/285 160/229/285 352/407/285 350/405/285
f 353/408/286 161/232/286 163/236/286 351/406/286
f 160/229/287 158/225/287 354/409/287 352/407/287
f 355/410/288 159/228/288 161/232/288 353/408/288
f 158/225/289 156/221/289 356/411/289 354/409/289
f 357/412/290 157/224/290 159/228/290 355/410/290
f 156/221/291 154/217/291 358/413/291 356/411/291
f 359/414/292 155/220/292 157/224/292 357/412/292
f 154/217/293 152/210/293 360/415/293 358/413/293
f 361/416/294 153/214/294 155/220/294 359/414/294
f 368/417/295 369/418/295 388/419/295 398/420/295
f 389/421/296 369/422/296 368/423/296 399/424/296
f 367/425/297 368/417/297 398/420/297 396/426/297
f 399/424/298 368/423/298 367/427/298 397/428/298
f 366/429/299 367/425/299 396/426/299 400/430/299
f 397/428/300 367/427/300 366/429/300 401/431/300
f 149/187/301 151/190/301 366/429/301 400/430/301
f 366/429/302 151/190/302 150/192/302 401/431/302
f 147/193/303 149/187/303 400/430/303 394/432/303
f 401/431/304 150/192/304 148/196/304 395/433/304
f 145/197/305 147/193/305 394/432/305 390/434/305
f 395/433/306 148/196/306 146/200/306 391/435/306
f 143/201/307 145/197/307 390/434/307 392/436/307
f 391/435/308 146/200/308 144/204/308 393/437/308
f 390/434/309 396/426/309 398/420/309 392/436/309
f 399/424/310 397/428/310 391/435/310 393/437/310
f 390/434/311 394/432/311 400/430/311 396/426/311
f 401/431/312 395/433/312 391/435/312 397/428/312
f 386/438/313 392/436/313 398/420/313 388/419/313
f 399/424/314 393/437/314 387/439/314 389/421/314
f 141/205/315 143/201/315 392/436/315 386/438/315
f 393/437/316 144/204/316 142/208/316 387/439/316
f 269/326/317 402/440/317 404/441/317 275/328/317
f 405/442/318 403/443/318 270/327/318 276/329/318
f 141/205/319 386/438/319 402/440/319 269/326/319
f 403/443/320 387/439/320 142/208/320 270/327/320
f 139/209/321 275/328/321 404/441/321 406/444/321
f 405/442/322 276/329/322 140/215/322 407/445/322
f 139/209/323 406/444/323 360/415/323 152/210/323
f 361/416/324 407/445/324 140/215/324 153/214/324
f 137/446/325 384/447/325 412/448/325 364/449/325
f 413/450/326 385/451/326 137/452/326 364/453/326
f 364/449/327 412/448/327 410/454/327 138/455/327
f 411/456/328 413/450/328 364/453/328 138/457/328
f 138/455/329 410/454/329 408/458/329 365/459/329
f 409/460/330 411/456/330 138/457/330 365/461/330
f 365/459/331 408/458/331 388/419/331 369/418/331
f 389/421/332 409/460/332 365/461/332 369/422/332
f 386/438/333 388/419/333 408/458/333 402/440/333
f 409/460/334 389/421/334 387/439/334 403/443/334
f 356/411/335 358/413/335 378/462/335 370/463/335
f 379/464/336 359/414/336 357/412/336 371/465/336
f 136/466/337 376/467/337 384/447/337 137/446/337
f 385/451/338 377/468/338 136/469/338 137/452/338
f 362/470/339 418/471/339 416/472/339 363/473/339
f 417/474/340 419/475/340 362/476/340 363/477/340
f 363/473/341 416/472/341 414/478/341 135/479/341
f 415/480/342 417/474/342 363/477/342 135/481/342
f 135/479/343 414/478/343 376/467/343 136/466/343
f 377/468/344 415/480/344 135/481/344 136/469/344
f 352/482/345 354/409/345 422/483/345 424/484/345
f 423/485/346 355/410/346 353/486/346 425/487/346
f 424/484/347 422/483/347 428/488/347 426/489/347
f 429/490/348 423/485/348 425/487/348 427/491/348
f 426/489/349 428/488/349 430/492/349 432/493/349
f 431/494/350 429/490/350 427/491/350 433/495/350
f 432/493/351 430/492/351 436/496/351 434/497/351
f 437/498/352 431/494/352 433/495/352 435/499/352
f 374/500/353 438/501/353 434/497/353 436/496/353
f 435/499/354 439/502/354 375/503/354 437/498/354
f 376/467/355 414/478/355 434/497/355 438/501/355
f 435/499/356 415/480/356 377/468/356 439/502/356
f 414/478/357 416/472/357 432/493/357 434/497/357
f 433/495/358 417/474/358 415/480/358 435/499/358
f 416/472/359 418/471/359 426/489/359 432/493/359
f 427/491/360 419/475/360 417/474/360 433/495/360
f 418/471/361 420/504/361 424/484/361 426/489/361
f 425/487/362 421/505/362 419/475/362 427/491/362
f 350/506/363 352/482/363 424/484/363 420/504/363
f 425/487/364 353/486/364 351/507/364 421/505/364
f 134/508/365 420/504/365 418/471/365 362/470/365
f 419/475/366 421/505/366 134/509/366 362/476/366
f 344/510/367 346/511/367 348/512/367 350/506/367
f 349/513/368 347/514/368 345/515/368 351/507/368
f 344/510/369 350/506/369 420/504/369 134/508/369
f 421/505/370 351/507/370 345/515/370 134/509/370
f 133/516/371 344/510/371 134/508/371
f 134/509/372 345/515/372 133/517/372
f 354/409/373 356/411/373 370/463/373 422/483/373
f 371/465/374 357/412/374 355/410/374 423/485/374
f 370/463/375 372/518/375 428/488/375 422/483/375
f 429/490/376 373/519/376 371/465/376 423/485/376
f 372/518/377 442/520/377 430/492/377 428/488/377
f 431/494/378 443/521/378 373/519/378 429/490/378
f 374/500/379 436/496/379 430/492/379 442/520/379
f 431/494/380 437/498/380 375/503/380 443/521/380
f 408/458/381 410/454/381 446/522/381 444/523/381
f 447/524/382 411/456/382 409/460/382 445/525/382
f 378/462/383 444/523/383 446/522/383 380/526/383
f 447/524/384 445/525/384 379/464/384 381/527/384
f 358/413/385 360/415/385 444/523/385 378/462/385
f 445/525/386 361/416/386 359/414/386 379/464/386
f 360/415/387 404/441/387 402/440/387 444/523/387
f 403/443/388 405/442/388 361/416/388 445/525/388
f 402/440/389 408/458/389 444/523/389
f 445/525/390 409/460/390 403/443/390
f 360/415/391 406/444/391 404/441/391
f 405/442/392 407/445/392 361/416/392
f 374/500/393 382/528/393 440/529/393 438/501/393
f 441/530/394 383/531/394 375/503/394 439/502/394
f 376/467/395 438/501/395 440/529/395 384/447/395
f 441/530/396 439/502/396 377/468/396 385/451/396
f 380/526/397 446/522/397 440/529/397 382/528/397
f 441/530/398 447/524/398 381/527/398 383/531/398
f 410/454/399 412/448/399 440/529/399 446/522/399
f 441/530/400 413/450/400 411/456/400 447/524/400
f 384/447/401 440/529/401 412/448/401
f 413/450/402 441/530/402 385/451/402
f 460/532/403 448/533/403 474/534/403 462/535/403
f 475/536/404 449/537/404 461/538/404 463/539/404
f 460/532/405 462/535/405 464/540/405 458/541/405
f 465/542/406 463/539/406 461/538/406 459/543/406
f 458/541/407 464/540/407 466/544/407 456/545/407
f 467/546/408 465/542/408 459/543/408 457/547/408
f 456/545/409 466/544/409 468/548/409 454/549/409
f 469/550/410 467/546/410 457/547/410 455/551/410
f 454/549/411 468/548/411 470/552/411 452/553/411
f 471/554/412 469/550/412 455/551/412 453/555/412
f 452/553/413 470/552/413 472/556/413 450/557/413
f 473/558/414 471/554/414 453/555/414 451/559/414
f 470/552/415 480/560/415 478/561/415 472/556/415
f 479/562/416 481/563/416 471/554/416 473/558/416
f 468/548/417 482/564/417 480/560/417 470/552/417
f 481/563/418 483/565/418 469/550/418 471/554/418
f 466/544/419 484/566/419 482/564/419 468/548/419
f 483/565/420 485/567/420 467/546/420 469/550/420
f 464/540/421 486/568/421 484/566/421 466/544/421
f 485/567/422 487/569/422 465/542/422 467/546/422
f 462/535/423 488/570/423 486/568/423 464/540/423
f 487/569/424 489/571/424 463/539/424 465/542/424
f 462/535/425 474/534/425 476/572/425 488/570/425
f 477/573/426 475/536/426 463/539/426 489/571/426
f 378/462/427 380/526/427 504/574/427 502/575/427
f 505/576/428 381/527/428 379/464/428 503/577/428
f 380/578/429 450/557/429 472/556/429 504/579/429
f 473/558/430 451/559/430 381/580/430 505/581/430
f 370/463/431 378/462/431 502/575/431 372/518/431
f 503/577/432 379/464/432 371/465/432 373/519/432
f 442/582/433 490/583/433 474/534/433 448/533/433
f 475/536/434 491/584/434 443/585/434 449/537/434
f 472/556/435 478/561/435 500/586/435 504/579/435
f 501/587/436 479/562/436 473/558/436 505/581/436
f 498/588/437 506/589/437 504/579/437 500/586/437
f 505/581/438 507/590/438 499/591/438 501/587/438
f 494/592/439 506/589/439 498/588/439 496/593/439
f 499/591/440 507/590/440 495/594/440 497/595/440
f 492/596/441 508/597/441 506/589/441 494/592/441
f 507/590/442 509/598/442 493/599/442 495/594/442
f 490/583/443 508/597/443 492/596/443 510/600/443
f 493/599/444 509/598/444 491/584/444 511/601/444
f 474/534/445 490/583/445 510/600/445 476/572/445
f 511/601/446 491/584/446 475/536/446 477/573/446
f 372/518/447 508/602/447 490/603/447 442/520/447
f 491/604/448 509/605/448 373/519/448 443/521/448
f 372/518/449 502/575/449 506/606/449 508/602/449
f 507/607/450 503/577/450 373/519/450 509/605/450
f 502/575/451 504/574/451 506/606/451
f 507/607/452 505/576/452 503/577/452
f 476/572/453 510/600/453 512/608/453 536/609/453
f 513/610/454 511/601/454 477/573/454 537/611/454
f 510/600/455 492/596/455 522/612/455 512/608/455
f 523/613/456 493/599/456 511/601/456 513/610/456
f 492/596/457 494/592/457 520/614/457 522/612/457
f 521/615/458 495/594/458 493/599/458 523/613/458
f 494/592/459 496/593/459 518/616/459 520/614/459
f 519/617/460 497/595/460 495/594/460 521/615/460
f 496/593/461 498/588/461 516/618/461 518/616/461
f 517/619/462 499/591/462 497/595/462 519/617/462
f 498/588/463 500/586/463 514/620/463 516/618/463
f 515/621/464 501/587/464 499/591/464 517/619/464
f 500/586/465 478/561/465 534/622/465 514/620/465
f 535/623/466 479/562/466 501/587/466 515/621/466
f 488/570/467 476/572/467 536/609/467 524/624/467
f 537/611/468 477/573/468 489/571/468 525/625/468
f 486/568/469 488/570/469 524/624/469 526/626/469
f 525/625/470 489/571/470 487/569/470 527/627/470
f 484/566/471 486/568/471 526/626/471 528/628/471
f 527/627/472 487/569/472 485/567/472 529/629/472
f 482/564/473 484/566/473 528/628/473 530/630/473
f 529/629/474 485/567/474 483/565/474 531/631/474
f 480/560/475 482/564/475 530/630/475 532/632/475
f 531/631/476 483/565/476 481/563/476 533/633/476
f 478/561/477 480/560/477 532/632/477 534/622/477
f 533/633/478 481/563/478 479/562/478 535/623/478
f 518/616/479 516/618/479 540/634/479 538/635/479
f 541/636/480 517/619/480 519/617/480 539/637/480
f 538/635/481 540/634/481 542/638/481 544/639/481
f 543/640/482 541/636/482 539/637/482 545/641/482
f 544/639/483 542/638/483 548/642/483 546/643/483
f 549/644/484 543/640/484 545/641/484 547/645/484
f 546/643/485 548/642/485 550/646/485 552/647/485
f 551/648/486 549/644/486 547/645/486 553/649/486
f 524/624/487 536/609/487 546/643/487 552/647/487
f 547/645/488 537/611/488 525/625/488 553/649/488
f 512/608/489 544/639/489 546/643/489 536/609/489
f 547/645/490 545/641/490 513/610/490 537/611/490
f 512/608/491 522/612/491 538/635/491 544/639/491
f 539/637/492 523/613/492 513/610/492 545/641/492
f 518/616/493 538/635/493 522/612/493 520/614/493
f 523/613/494 539/637/494 519/617/494 521/615/494
f 514/620/495 534/622/495 540/634/495 516/618/495
f 541/636/496 535/623/496 515/621/496 517/619/496
f 532/632/497 542/638/497 540/634/497 534/622/497
f 541/636/498 543/640/498 533/633/498 535/623/498
f 530/630/499 548/642/499 542/638/499 532/632/499
f 543/640/500 549/644/500 531/631/500 533/633/500
f 528/628/501 550/646/501 548/642/501 530/630/501
f 549/644/502 551/648/502 529/629/502 531/631/502
f 526/626/503 552/647/503 550/646/503 528/628/503
f 551/648/504 553/649/504 527/627/504 529/629/504
f 524/624/505 552/647/505 526/626/505
f 527/627/506 553/649/506 525/625/506
f 452/553/507 450/557/507 564/650/507 562/651/507
f 565/652/508 451/559/508 453/555/508 563/653/508
f 454/549/509 452/553/509 562/651/509 560/654/509
f 563/653/510 453/555/510 455/551/510 561/655/510
f 456/545/511 454/549/511 560/654/511 558/656/511
f 561/655/512 455/551/512 457/547/512 559/657/512
f 458/658/513 456/545/513 558/656/513 556/659/513
f 559/657/514 457/547/514 459/660/514 557/661/514
f 460/662/515 458/658/515 556/659/515 554/663/515
f 557/661/516 459/660/516 461/664/516 555/665/516
f 448/666/517 460/662/517 554/663/517 566/667/517
f 555/665/518 461/664/518 449/668/518 567/669/518
f 554/663/519 562/651/519 564/650/519 566/667/519
f 565/652/520 563/653/520 555/665/520 567/669/520
f 554/663/521 556/659/521 560/654/521 562/651/521
f 561/655/522 557/661/522 555/665/522 563/653/522
f 556/659/523 558/656/523 560/654/523
f 561/655/524 559/657/524 557/661/524
f 374/670/525 442/671/525 448/666/525 566/667/525
f 449/668/526 443/672/526 375/673/526 567/669/526
f 374/670/527 566/667/527 564/650/527 382/674/527
f 565/652/528 567/669/528 375/673/528 383/675/528
f 380/578/529 382/674/529 564/650/529 450/557/529
f 565/652/530 383/675/530 381/580/530 451/559/530
