# Blender 5.0.1
# www.blender.org
mtllib TankBarrel.mtl
o Barrel
v -0.035681 -0.011179 -0.886629
v -0.000991 -0.026244 -0.893766
v -0.128847 -0.026244 -0.893766
v 0.034690 -0.011179 -0.886629
v 0.127856 -0.026244 -0.893765
v -0.000991 -0.027829 -0.893766
v -0.000991 0.036395 -0.893766
v -0.035681 0.021330 -0.886629
v -0.128847 0.036395 -0.893766
v 0.034690 0.021330 -0.886629
v 0.127856 0.036395 -0.893765
v 0.127856 -0.026243 -0.958883
v -0.000991 -0.026243 -0.958883
v -0.000991 -0.027829 -0.958883
v -0.035681 -0.011178 -0.966911
v -0.128847 -0.026243 -0.958883
v -0.035681 0.021330 -0.966911
v -0.000991 0.036395 -0.958883
v -0.128847 0.036395 -0.958883
v 0.034690 0.021330 -0.966911
v 0.127856 0.036395 -0.958883
v -0.000991 0.037981 -0.958883
v -0.000991 0.037981 -0.971370
v -0.035681 0.021330 -0.979399
v -0.128847 0.043532 -0.968695
v 0.127856 0.043532 -0.968695
v -0.000991 -0.027829 -0.971370
v 0.127856 -0.033380 -0.968695
v -0.128847 -0.033380 -0.968695
v -0.042618 0.025295 0.051774
v -0.042618 -0.015143 0.051774
v -0.000991 -0.037345 0.051774
v 0.041627 -0.015143 0.051774
v 0.041627 0.025295 0.051774
v -0.000991 0.047496 0.051774
v 0.006938 0.043532 -0.882169
v 0.041627 0.025295 -0.875926
v 0.127856 0.043532 -0.882169
v -0.042618 0.025295 -0.875926
v -0.007929 0.043532 -0.882169
v -0.128847 0.043532 -0.882169
v 0.127856 0.060182 -0.926769
v -0.128847 0.060182 -0.926770
v -0.000991 0.047496 -0.892874
v 0.041627 -0.015143 -0.875926
v 0.006938 -0.033380 -0.882169
v 0.127856 -0.033380 -0.882169
v -0.007929 -0.033380 -0.882169
v -0.042618 -0.015143 -0.875926
v -0.128847 -0.033380 -0.882169
v 0.041627 0.005472 -0.866113
v -0.000991 -0.037345 -0.892874
v -0.042618 0.005472 -0.866113
v -0.035681 0.005472 -0.987428
v -0.128847 0.005472 -0.987428
v -0.035681 0.005472 -0.973155
v -0.035681 -0.011178 -0.979399
v 0.127856 0.005472 -0.878600
v 0.034690 0.005472 -0.878601
v 0.127856 0.005472 -0.866113
v 0.127856 -0.041309 -0.926769
v 0.127856 -0.050031 -0.926769
v 0.127856 0.051461 -0.926769
v 0.127856 0.005472 -0.987427
v 0.127856 0.005472 -0.973155
v -0.128847 0.005472 -0.866113
v -0.035681 0.005472 -0.878601
v -0.128847 0.005472 -0.878601
v -0.128847 0.051461 -0.926770
v -0.128847 -0.041309 -0.926770
v -0.128847 -0.050031 -0.926770
v -0.128847 0.005472 -0.973155
v 0.034690 0.005472 -0.973155
v 0.034690 -0.011178 -0.966911
v 0.034690 0.021330 -0.979399
v 0.034690 0.005472 -0.987428
v 0.034690 -0.011178 -0.979399
v -0.000991 -0.026244 -0.893766
v -0.035681 -0.011179 -0.886629
v -0.035681 0.005472 -0.878601
v -0.000991 -0.027829 -0.893766
v -0.000991 0.036395 -0.893766
v -0.035681 0.021330 -0.886629
v 0.034690 0.005472 -0.878601
v 0.034690 -0.011179 -0.886629
v 0.034690 0.021330 -0.886629
vn -0.0274 0.3800 -0.9246
vn -0.0117 0.2737 -0.9618
vn -0.0000 0.4706 -0.8823
vn -0.0000 0.3996 -0.9167
vn -0.0000 0.4690 -0.8832
vn -0.0000 0.3443 -0.9389
vn -0.0117 -0.5254 -0.8508
vn -0.0274 -0.3914 -0.9198
vn -0.0011 -0.6069 -0.7948
vn -0.0000 -0.4076 -0.9132
vn -0.0000 -0.6069 -0.7948
vn -0.0000 0.4504 0.8928
vn 0.0001 0.4706 0.8824
vn -0.0000 0.5208 0.8537
vn -0.0000 0.4706 0.8823
vn 0.0039 0.3882 0.9216
vn 0.0013 0.5868 0.8097
vn 0.0039 -0.3916 0.9201
vn -0.0000 -0.4267 0.9044
vn -0.0000 -0.5912 0.8065
vn -0.0039 -0.3915 0.9202
vn -0.0000 -0.5911 0.8066
vn -0.0000 -0.0000 1.0000
vn -0.0000 0.3916 -0.9201
vn 0.0002 0.3949 -0.9187
vn -0.0000 0.5520 -0.8338
vn -0.0010 0.5520 -0.8338
vn -0.0000 -0.3916 -0.9201
vn -0.0000 -0.5493 -0.8356
vn -1.0000 -0.0000 -0.0000
vn 1.0000 -0.0000 -0.0000
vn -0.0000 0.6709 0.7415
vn -0.0039 0.3291 0.9443
vn -0.0000 0.5709 0.8210
vn 0.0039 0.3291 0.9443
vn -0.0000 0.6710 0.7415
vn -0.0000 0.9916 0.1293
vn -0.0000 0.9222 0.3868
vn -0.0039 -0.3244 0.9459
vn -0.0000 -0.6710 0.7415
vn -0.0000 -0.5682 0.8229
vn -0.0000 -0.6709 0.7415
vn 0.0039 -0.3244 0.9459
vn 0.8807 0.4736 -0.0000
vn 0.8807 0.4737 -0.0000
vn 0.5447 0.8386 -0.0000
vn -0.0039 1.0000 -0.0000
vn -0.0040 1.0000 -0.0000
vn 0.8807 -0.4736 -0.0000
vn 0.8807 -0.4737 -0.0000
vn -0.0039 -1.0000 -0.0000
vn 0.5446 -0.8387 -0.0000
vn -0.0040 -1.0000 -0.0000
vn -0.8823 -0.4706 -0.0000
vn -0.5565 -0.8309 -0.0000
vn -0.8824 0.4706 -0.0000
vn -0.8823 0.4706 -0.0000
vn -0.5565 0.8308 -0.0000
vn -0.0000 0.0040 -1.0000
vn -0.0078 -0.0039 -1.0000
vn 0.0039 -0.0039 -1.0000
vn 0.0078 0.0039 1.0000
vn -0.0078 0.0039 1.0000
vn -0.0235 -0.0039 -0.9997
vn 0.0078 -0.0039 -1.0000
vn -0.0078 -0.0039 1.0000
vn -0.0079 -0.0039 1.0000
vn -0.0000 -1.0000 -0.0039
vn -0.0000 -0.8944 0.4472
vn -0.0039 0.3882 0.9216
vn 0.0079 -0.0039 1.0000
vn 0.5070 -0.8597 -0.0614
vn 0.5071 -0.8597 -0.0614
vn -0.0000 1.0000 0.0078
vn -0.0000 0.4706 0.8824
vn 0.5070 0.8597 -0.0614
vn 0.5071 0.8597 -0.0614
vn -0.4964 0.8659 -0.0618
vn -0.4965 0.8658 -0.0619
vn -0.4964 -0.8659 -0.0618
vn -0.4965 -0.8659 -0.0619
vn -0.0000 0.3949 -0.9187
vn -0.0000 0.0039 -1.0000
vn -0.0000 -0.9916 0.1293
vn -0.0000 -0.9222 0.3868
vn -0.0117 0.2737 -0.9617
vn -0.0118 -0.5254 -0.8508
s 1
usemtl mat5.001
f 1//1 2//2 3//3
f 2//2 4//4 5//5
f 6//6 2//2 5//5
f 3//3 2//2 6//6
f 7//7 8//8 9//9
f 10//10 7//7 11//11
f 12//12 13//13 14//14
f 13//15 15//16 16//17
f 17//18 18//19 19//20
f 18//19 20//21 21//22
f 22//23 18//23 21//23
f 19//23 18//23 22//23
f 23//24 24//25 25//26
f 23//24 25//26 26//27
f 27//28 28//29 29//29
f 14//30 13//30 27//30
f 22//31 18//31 23//31
f 30//23 31//23 32//23
f 30//23 32//23 33//23
f 30//23 33//23 34//23
f 30//23 34//23 35//23
f 36//32 37//33 38//34
f 39//35 40//36 41//34
f 42//37 43//37 44//38
f 45//39 46//40 47//41
f 48//42 49//43 50//41
f 34//44 37//45 36//46
f 34//44 36//46 44//47
f 34//44 44//47 35//48
f 33//49 45//50 51//31
f 33//49 51//31 37//45
f 33//49 37//45 34//44
f 52//51 46//52 45//50
f 52//51 45//50 33//49
f 52//51 33//49 32//53
f 31//54 49//54 48//55
f 31//54 48//55 52//51
f 31//54 52//51 32//53
f 30//56 39//57 53//30
f 30//56 53//30 49//54
f 30//56 49//54 31//54
f 44//47 40//58 39//57
f 44//47 39//57 30//56
f 44//47 30//56 35//48
f 24//25 54//59 55//59
f 24//25 55//59 25//26
f 24//31 17//31 56//31
f 24//31 56//31 54//31
f 54//31 56//31 15//31
f 54//31 15//31 57//31
f 58//60 59//61 10//10
f 58//60 10//10 11//11
f 4//4 59//61 58//60
f 4//4 58//60 5//5
f 5//31 58//31 60//31
f 5//31 60//31 47//31
f 61//31 5//31 47//31
f 61//31 47//31 62//31
f 58//31 11//31 38//31
f 58//31 38//31 60//31
f 11//31 63//31 42//31
f 11//31 42//31 38//31
f 26//31 42//31 63//31
f 26//31 63//31 21//31
f 64//31 26//31 21//31
f 64//31 21//31 65//31
f 28//31 64//31 65//31
f 28//31 65//31 12//31
f 12//31 61//31 62//31
f 12//31 62//31 28//31
f 66//62 53//62 39//35
f 66//62 39//35 41//34
f 49//43 53//62 66//62
f 49//43 66//62 50//41
f 37//33 51//63 60//63
f 37//33 60//63 38//34
f 60//63 51//63 45//39
f 60//63 45//39 47//41
f 8//8 67//64 68//65
f 8//8 68//65 9//9
f 68//65 67//64 1//1
f 68//65 1//1 3//3
f 41//30 43//30 69//30
f 41//30 69//30 9//30
f 66//30 41//30 9//30
f 66//30 9//30 68//30
f 50//30 66//30 68//30
f 50//30 68//30 3//30
f 3//30 70//30 71//30
f 3//30 71//30 50//30
f 70//30 16//30 29//30
f 70//30 29//30 71//30
f 16//30 72//30 55//30
f 16//30 55//30 29//30
f 72//30 19//30 25//30
f 72//30 25//30 55//30
f 19//30 69//30 43//30
f 19//30 43//30 25//30
f 20//21 73//66 65//67
f 20//21 65//67 21//22
f 69//68 63//68 11//11
f 69//68 11//11 7//7
f 69//68 7//7 9//9
f 22//69 21//20 63//68
f 22//69 63//68 69//68
f 22//69 69//68 19//20
f 74//70 13//13 12//12
f 72//71 56//71 17//18
f 72//71 17//18 19//20
f 18//72 17//73 24//73
f 18//73 24//73 23//73
f 73//30 20//30 75//30
f 73//30 75//30 76//30
f 65//67 73//66 74//70
f 65//67 74//70 12//12
f 73//30 76//30 77//30
f 73//30 77//30 74//30
f 6//6 5//5 61//74
f 6//6 61//74 70//74
f 6//6 70//74 3//3
f 70//74 61//74 12//12
f 70//74 12//12 14//14
f 70//74 14//14 13//75
f 70//74 13//15 16//17
f 16//17 15//16 56//71
f 16//17 56//71 72//71
f 57//76 15//77 13//76
f 57//76 13//76 27//77
f 13//78 74//78 77//78
f 13//79 77//79 27//79
f 75//80 20//80 18//81
f 75//80 18//81 23//81
f 75//82 26//27 64//83
f 75//82 64//83 76//59
f 44//38 36//32 38//34
f 44//38 38//34 42//37
f 43//37 41//34 40//36
f 43//37 40//36 44//38
f 62//84 47//41 46//40
f 62//84 46//40 52//85
f 52//85 71//84 62//84
f 52//85 48//42 50//41
f 52//85 50//41 71//84
f 28//29 62//84 71//84
f 28//29 71//84 29//29
f 29//29 57//28 27//28
f 77//28 28//29 27//28
f 29//29 55//59 54//59
f 29//29 54//59 57//28
f 75//82 23//24 26//27
f 42//37 26//27 25//26
f 42//37 25//26 43//37
f 77//28 76//59 64//83
f 77//28 64//83 28//29
usemtl mat6
f 78//86 79//1 80//64
f 82//87 84//61 80//64
f 82//87 86//10 84//61
f 84//61 78//86 80//64
f 84//61 85//4 78//86
f 83//8 82//87 80//64
