# Blender 5.0.1
# www.blender.org
mtllib TankHead.mtl
o head
v 0.188315 0.055123 0.317163
v 0.188315 0.213704 0.277517
v 0.148669 0.213704 0.317163
v 0.148669 0.055123 0.356807
v -0.148670 0.055123 0.356807
v -0.148670 0.213704 0.317163
v -0.188315 0.213704 0.277517
v -0.188315 0.055123 0.317163
v 0.148670 0.055123 -0.336985
v 0.148670 0.213704 -0.218048
v 0.188315 0.213704 -0.188315
v 0.188315 0.055123 -0.307251
v -0.188315 0.055123 -0.307251
v -0.188315 0.213704 -0.188315
v -0.148669 0.213704 -0.218048
v -0.148669 0.055123 -0.336985
v -0.188315 0.005566 -0.257694
v -0.188315 0.005566 0.178404
v -0.188315 0.055123 0.208138
v 0.188315 0.055123 0.208138
v 0.188315 0.005566 0.178404
v 0.188315 0.005566 -0.257694
v 0.148670 0.005566 -0.287428
v -0.148669 0.005566 -0.287428
v 0.099113 0.114591 0.341941
v -0.099113 0.114591 0.341941
v -0.099113 0.213704 0.317163
v 0.099113 0.213704 0.317163
v -0.099113 0.213704 0.218048
v 0.099113 0.213704 0.218048
v -0.099113 0.114591 0.341941
v 0.099113 0.114591 0.341941
v 0.099113 0.114591 0.396452
v -0.099113 0.114591 0.396452
v -0.099113 0.253349 0.237872
v 0.099113 0.253349 0.237872
v 0.099113 0.213704 0.218048
v -0.099113 0.213704 0.218048
v -0.099113 0.253349 0.346896
v 0.099113 0.253349 0.346896
v -0.099113 0.213704 0.317163
v 0.099113 0.213704 0.317163
vn 0.6963 0.1741 0.6963
vn -0.6963 0.1741 0.6963
vn 0.5145 0.5145 -0.6860
vn -0.5145 0.5145 -0.6860
vn -1.0000 -0.0000 -0.0000
vn 1.0000 -0.0000 -0.0000
vn -0.0000 -0.7071 -0.7071
vn -0.0000 -0.5145 0.8575
vn -0.0000 -1.0000 -0.0000
vn -0.4685 -0.6247 -0.6247
vn 0.4685 -0.6247 -0.6247
vn -0.0000 0.2425 0.9701
vn -0.0000 1.0000 -0.0000
vn -0.0000 0.6000 -0.8000
vn -0.0000 0.4472 -0.8944
vn -0.0000 0.3363 0.9417
s 1
usemtl mat4.001
f 1//1 2//1 3//1
f 1//1 3//1 4//1
f 5//2 6//2 7//2
f 5//2 7//2 8//2
f 9//3 10//3 11//3
f 9//3 11//3 12//3
f 13//4 14//4 15//4
f 13//4 15//4 16//4
f 14//5 13//5 17//5
f 14//5 17//5 18//5
f 14//5 18//5 19//5
f 19//5 8//5 7//5
f 19//5 7//5 14//5
f 20//6 21//6 22//6
f 20//6 22//6 12//6
f 20//6 12//6 11//6
f 11//6 2//6 1//6
f 11//6 1//6 20//6
f 16//7 9//7 23//7
f 16//7 23//7 24//7
f 20//8 19//8 18//8
f 20//8 18//8 21//8
f 5//9 8//9 19//9
f 5//9 19//9 20//9
f 5//9 20//9 1//9
f 5//9 1//9 4//9
f 13//10 16//10 24//10
f 13//10 24//10 17//10
f 23//11 9//11 12//11
f 23//11 12//11 22//11
f 21//9 18//9 17//9
f 21//9 17//9 24//9
f 21//9 24//9 23//9
f 21//9 23//9 22//9
f 5//12 4//12 25//12
f 5//12 25//12 26//12
f 26//12 27//12 6//12
f 26//12 6//12 5//12
f 4//12 3//12 28//12
f 4//12 28//12 25//12
f 11//13 10//13 15//13
f 11//13 15//13 14//13
f 11//13 14//13 29//13
f 11//13 29//13 30//13
f 30//13 28//13 3//13
f 30//13 3//13 2//13
f 30//13 2//13 11//13
f 14//13 7//13 6//13
f 14//13 6//13 27//13
f 14//13 27//13 29//13
f 9//14 16//14 15//14
f 9//14 15//14 10//14
usemtl mat3.001
f 31//9 32//9 33//9
f 31//9 33//9 34//9
f 35//15 36//15 37//15
f 35//15 37//15 38//15
f 39//13 40//13 36//13
f 39//13 36//13 35//13
f 34//16 33//16 40//16
f 34//16 40//16 39//16
f 34//13 33//13 32//13
f 34//13 32//13 31//13
f 41//5 31//5 34//5
f 41//5 34//5 39//5
f 40//6 33//6 32//6
f 40//6 32//6 42//6
f 40//6 42//6 37//6
f 40//6 37//6 36//6
f 35//5 38//5 41//5
f 35//5 41//5 39//5
