# Blender 5.0.1
# www.blender.org
mtllib TankBody.mtl
o body
v -0.555033 -0.000000 0.515389
v -0.297339 -0.000000 0.515389
v -0.297339 0.000000 -0.693792
v -0.555033 0.000000 -0.693792
v -0.555033 0.336985 0.673970
v -0.297339 0.336985 0.673970
v -0.297339 0.336985 -0.753259
v -0.555033 0.336985 -0.753259
v 0.297339 0.336985 0.673970
v 0.555033 0.336985 0.673970
v 0.555033 0.336985 -0.753259
v 0.297339 0.336985 -0.753259
v 0.297339 -0.000000 0.515389
v 0.555033 -0.000000 0.515389
v 0.555033 0.000000 -0.693792
v 0.297339 0.000000 -0.693792
v -0.555033 0.198226 -0.911841
v -0.297339 0.198226 -0.911841
v -0.555033 0.138759 -0.931663
v -0.297339 0.138759 -0.931663
v -0.555033 0.079291 -0.911841
v -0.555033 0.019822 -0.812728
v -0.297339 0.019822 -0.812728
v -0.297339 0.079291 -0.911841
v -0.555033 0.158581 0.713615
v -0.297339 0.158581 0.713615
v -0.555033 0.198226 0.733437
v -0.297339 0.198226 0.733437
v 0.297339 0.198226 0.733437
v 0.555033 0.198226 0.733437
v 0.297339 0.158581 0.713615
v 0.555033 0.158581 0.713615
v 0.297339 0.019822 -0.812728
v 0.555033 0.019822 -0.812728
v 0.297339 0.079291 -0.911841
v 0.555033 0.079291 -0.911840
v 0.297339 0.138759 -0.931663
v 0.297339 0.198226 -0.911841
v 0.555033 0.198226 -0.911840
v 0.555033 0.138759 -0.931663
v -0.515389 0.241837 0.390506
v -0.515389 0.156599 0.356807
v -0.515389 0.073344 0.390506
v -0.515389 0.039645 0.475743
v -0.515389 0.073344 0.558998
v -0.515389 0.158581 0.594679
v -0.515389 0.241837 0.558998
v -0.515389 0.277517 0.475743
v -0.515388 0.241837 -0.798852
v -0.515388 0.156599 -0.832550
v -0.515388 0.073344 -0.798852
v -0.515388 0.039645 -0.713615
v -0.515388 0.073344 -0.630359
v -0.515388 0.158581 -0.594679
v -0.515388 0.241837 -0.630359
v -0.515388 0.277517 -0.713615
v 0.515389 0.277517 0.475743
v 0.515389 0.241837 0.558998
v 0.515388 0.158581 0.594679
v 0.515389 0.073344 0.558998
v 0.515389 0.039645 0.475743
v 0.515389 0.073344 0.390506
v 0.515389 0.156599 0.356807
v 0.515389 0.241837 0.390506
v 0.515389 0.277517 -0.713614
v 0.515389 0.241837 -0.630359
v 0.515389 0.158581 -0.594679
v 0.515389 0.073344 -0.630359
v 0.515389 0.039645 -0.713615
v 0.515389 0.073344 -0.798852
v 0.515389 0.156599 -0.832550
v 0.515389 0.241837 -0.798852
v 0.594679 0.424204 -0.792905
v 0.594679 0.424204 0.731455
v 0.396452 0.424204 0.731455
v 0.396452 0.424204 -0.545123
v 0.231925 0.424204 -0.545123
v 0.231925 0.424204 -0.792905
v -0.594679 0.424204 -0.792905
v -0.594679 0.424204 0.731454
v -0.396452 0.424204 0.731455
v -0.396452 0.424204 -0.545123
v -0.231925 0.424204 -0.545123
v -0.231925 0.424204 -0.792905
v 0.594679 0.218048 -0.985184
v 0.231925 0.218048 -0.985184
v -0.231925 0.218048 -0.985184
v -0.594679 0.218048 -0.985184
v -0.594679 0.218048 0.786958
v -0.396452 0.218048 0.786958
v 0.396452 0.218048 0.786958
v 0.594679 0.218048 0.786958
v -0.594679 0.192279 -0.961397
v -0.231925 0.192279 -0.961397
v 0.231925 0.192279 -0.961397
v 0.594679 0.192279 -0.961397
v -0.594679 0.218048 0.761189
v -0.396452 0.218048 0.761189
v 0.396452 0.218048 0.761189
v 0.594679 0.218048 0.761189
v -0.594679 0.394471 0.707667
v 0.594679 0.394471 0.707668
v 0.231925 0.297339 -0.673970
v 0.231925 0.192279 -0.612519
v -0.231925 0.297339 -0.673970
v -0.231925 0.192279 -0.612519
v -0.356807 0.489619 -0.477725
v 0.356807 0.489619 -0.477725
v 0.356807 0.489619 0.723527
v 0.198226 0.489619 0.723526
v 0.198226 0.489619 0.594679
v -0.198226 0.489619 0.594679
v -0.198226 0.489619 0.723526
v -0.356807 0.489619 0.723526
v 0.356807 0.218048 0.852374
v 0.231925 0.079291 0.733437
v -0.231925 0.079291 0.733437
v -0.356807 0.218048 0.852373
v -0.594679 0.394471 -0.782993
v 0.594679 0.394471 -0.782993
v -0.594679 0.394471 0.737402
v 0.231925 0.079291 -0.555033
v -0.231925 0.079291 -0.555033
v -0.475743 0.198226 -0.515389
v -0.475743 0.277517 -0.555033
v -0.475743 0.277517 0.356807
v -0.475743 0.099113 -0.535211
v -0.475743 0.218048 0.297339
v -0.475743 0.118935 0.297339
v -0.475743 0.039645 -0.594679
v -0.475743 0.039645 0.356807
v 0.475743 0.198226 -0.515389
v 0.475743 0.277517 -0.555033
v 0.475743 0.277517 0.356807
v 0.475743 0.099113 -0.535211
v 0.475743 0.218048 0.297339
v 0.475743 0.118935 0.297339
v 0.475743 0.039645 -0.594679
v 0.475743 0.039645 0.356807
v -0.198226 0.356807 0.872196
v 0.198226 0.356807 0.872196
v 0.198226 0.574856 0.713615
v -0.198226 0.574856 0.713615
v 0.198226 0.489619 0.594679
v -0.198226 0.489619 0.594679
v -0.198226 0.489619 0.723526
v -0.198226 0.297339 0.812728
v 0.198226 0.297339 0.812728
v 0.198226 0.489619 0.723526
vn -0.0000 1.0000 -0.0000
vn -0.0000 -0.7526 0.6585
vn -0.0000 -0.3162 0.9487
vn -0.0000 0.8575 0.5145
vn -0.0000 0.9864 0.1644
vn -0.0000 0.7809 -0.6247
vn -0.0000 0.4472 -0.8944
vn -0.0000 -0.3939 -0.9191
vn -0.0000 0.3939 0.9191
vn -0.0000 -0.4472 0.8944
vn -0.0000 -0.7809 0.6247
vn -0.0000 -0.9864 -0.1644
vn -0.0000 -0.8575 -0.5145
vn -0.0000 0.3162 -0.9487
vn -0.0000 0.7526 -0.6585
vn -0.0000 -0.3162 -0.9487
vn -0.0000 -1.0000 -0.0000
vn -1.0000 -0.0000 -0.0000
vn 1.0000 -0.0000 -0.0000
vn -0.0000 0.6821 -0.7313
vn -0.0000 0.2600 0.9656
vn -0.0000 0.6783 0.7348
vn -0.0000 0.7176 -0.6965
vn -0.0000 0.7126 -0.7016
vn -0.0000 0.6508 -0.7593
vn -0.0000 -0.4287 -0.9035
vn -0.0000 -0.6821 0.7313
vn -0.0000 -0.2600 -0.9656
vn -0.0000 -0.6783 -0.7348
vn -0.0000 -0.7176 0.6965
vn -0.0000 -0.7126 0.7016
vn 0.8552 0.5183 -0.0000
vn 0.8180 0.5244 0.2363
vn 0.7030 0.4554 0.5463
vn -0.8552 0.5183 -0.0000
vn -0.0000 -0.4789 -0.8779
vn -0.0000 -0.6508 0.7593
vn 0.4660 -0.3793 -0.7994
vn 0.8038 0.1783 0.5675
vn 0.8470 0.1382 0.5133
vn -0.0000 0.4287 0.9035
vn -0.8470 0.1382 0.5133
vn -0.0000 0.5882 0.8087
vn -0.0000 0.8128 -0.5825
vn -0.0000 -0.7071 0.7071
s 1
usemtl tank_mat0
f 1//1 2//1 3//1
f 1//1 3//1 4//1
f 5//1 6//1 7//1
f 5//1 7//1 8//1
f 9//1 10//1 11//1
f 9//1 11//1 12//1
f 13//1 14//1 15//1
f 13//1 15//1 16//1
f 8//2 17//2 18//2
f 8//2 18//2 7//2
f 17//3 19//3 20//3
f 17//3 20//3 18//3
f 21//4 22//4 23//4
f 21//4 23//4 24//4
f 22//5 4//5 3//5
f 22//5 3//5 23//5
f 1//6 25//6 26//6
f 1//6 26//6 2//6
f 25//7 27//7 28//7
f 25//7 28//7 26//7
f 27//8 5//8 6//8
f 27//8 6//8 28//8
f 9//9 29//9 30//9
f 9//9 30//9 10//9
f 29//10 31//10 32//10
f 29//10 32//10 30//10
f 31//11 13//11 14//11
f 31//11 14//11 32//11
f 16//12 33//12 34//12
f 16//12 34//12 15//12
f 33//13 35//13 36//13
f 33//13 36//13 34//13
f 37//14 38//14 39//14
f 37//14 39//14 40//14
f 38//15 12//15 11//15
f 38//15 11//15 39//15
f 7//15 18//15 17//15
f 7//15 17//15 8//15
f 18//14 20//14 19//14
f 18//14 19//14 17//14
f 20//16 24//16 21//16
f 20//16 21//16 19//16
f 24//13 23//13 22//13
f 24//13 22//13 21//13
f 23//12 3//12 4//12
f 23//12 4//12 22//12
f 2//11 26//11 25//11
f 2//11 25//11 1//11
f 26//10 28//10 27//10
f 26//10 27//10 25//10
f 28//9 6//9 5//9
f 28//9 5//9 27//9
f 6//17 5//17 8//17
f 6//17 8//17 7//17
f 10//8 30//8 29//8
f 10//8 29//8 9//8
f 30//7 32//7 31//7
f 30//7 31//7 29//7
f 32//6 14//6 13//6
f 32//6 13//6 31//6
f 15//5 34//5 33//5
f 15//5 33//5 16//5
f 34//4 36//4 35//4
f 34//4 35//4 33//4
f 35//16 37//16 40//16
f 35//16 40//16 36//16
f 40//3 39//3 38//3
f 40//3 38//3 37//3
f 39//2 11//2 12//2
f 39//2 12//2 38//2
f 41//18 42//18 43//18
f 41//18 43//18 44//18
f 41//18 44//18 45//18
f 41//18 45//18 46//18
f 41//18 46//18 47//18
f 41//18 47//18 48//18
f 49//18 50//18 51//18
f 49//18 51//18 52//18
f 49//18 52//18 53//18
f 49//18 53//18 54//18
f 49//18 54//18 55//18
f 49//18 55//18 56//18
f 57//19 58//19 59//19
f 57//19 59//19 60//19
f 57//19 60//19 61//19
f 57//19 61//19 62//19
f 57//19 62//19 63//19
f 57//19 63//19 64//19
f 65//19 66//19 67//19
f 65//19 67//19 68//19
f 65//19 68//19 69//19
f 65//19 69//19 70//19
f 65//19 70//19 71//19
f 65//19 71//19 72//19
usemtl tank_mat1
f 73//17 74//17 75//17
f 73//17 75//17 76//17
f 76//17 77//17 78//17
f 76//17 78//17 73//17
f 79//1 80//1 81//1
f 79//1 81//1 82//1
f 82//1 83//1 84//1
f 82//1 84//1 79//1
f 85//20 86//20 78//20
f 85//20 78//20 73//20
f 87//20 88//20 79//20
f 87//20 79//20 84//20
f 89//21 90//21 81//21
f 89//21 81//21 80//21
f 91//21 92//21 74//21
f 91//21 74//21 75//21
f 93//22 94//22 87//22
f 93//22 87//22 88//22
f 95//22 96//22 85//22
f 95//22 85//22 86//22
f 97//17 98//17 90//17
f 97//17 90//17 89//17
f 99//17 100//17 92//17
f 99//17 92//17 91//17
f 101//19 80//19 89//19
f 101//19 89//19 97//19
f 102//18 100//18 92//18
f 102//18 92//18 74//18
f 86//19 78//19 77//19
f 86//19 77//19 103//19
f 103//19 104//19 95//19
f 103//19 95//19 86//19
f 87//19 84//19 83//19
f 87//19 83//19 105//19
f 105//19 106//19 94//19
f 105//19 94//19 87//19
f 107//23 108//23 76//23
f 107//23 76//23 77//23
f 83//23 82//23 107//23
f 83//23 107//23 77//23
f 77//24 103//24 105//24
f 77//24 105//24 83//24
f 108//17 109//17 110//17
f 108//17 110//17 111//17
f 107//17 108//17 111//17
f 107//17 111//17 112//17
f 112//17 113//17 114//17
f 112//17 114//17 107//17
f 115//25 116//25 117//25
f 115//25 117//25 118//25
f 110//26 109//26 115//26
f 110//26 115//26 118//26
f 110//26 118//26 114//26
s 0
f 110//26 114//26 113//26
s 1
f 76//1 75//1 74//1
f 76//1 74//1 73//1
f 73//1 78//1 77//1
f 73//1 77//1 76//1
f 82//17 81//17 80//17
f 82//17 80//17 79//17
f 79//17 84//17 83//17
f 79//17 83//17 82//17
f 73//27 78//27 86//27
f 73//27 86//27 85//27
f 84//27 79//27 88//27
f 84//27 88//27 87//27
f 80//28 81//28 90//28
f 80//28 90//28 89//28
f 75//28 74//28 92//28
f 75//28 92//28 91//28
f 88//29 87//29 94//29
f 88//29 94//29 93//29
f 119//18 79//18 88//18
f 119//18 88//18 93//18
f 96//19 85//19 73//19
f 96//19 73//19 120//19
f 86//29 85//29 96//29
f 86//29 96//29 95//29
f 102//19 120//19 73//19
f 102//19 73//19 74//19
f 80//19 121//19 119//19
f 80//19 119//19 79//19
f 79//18 119//18 121//18
f 79//18 121//18 80//18
f 80//18 119//18 101//18
f 89//1 90//1 98//1
f 89//1 98//1 97//1
f 91//1 92//1 100//1
f 91//1 100//1 99//1
f 97//18 89//18 80//18
f 97//18 80//18 101//18
f 74//19 92//19 100//19
f 74//19 100//19 102//19
f 103//18 77//18 78//18
f 103//18 78//18 86//18
f 86//18 95//18 104//18
f 86//18 104//18 103//18
f 105//18 83//18 84//18
f 105//18 84//18 87//18
f 87//18 94//18 106//18
f 87//18 106//18 105//18
f 77//30 76//30 108//30
f 77//30 108//30 83//30
f 83//31 105//31 103//31
f 83//31 103//31 77//31
f 108//30 107//30 82//30
f 108//30 82//30 83//30
f 108//32 109//33 75//34
f 108//32 75//34 76//32
f 81//35 114//35 107//35
f 81//35 107//35 82//35
f 111//1 110//1 109//1
f 111//1 109//1 108//1
f 112//1 111//1 108//1
f 112//1 108//1 107//1
f 107//1 114//1 113//1
f 107//1 113//1 112//1
f 105//36 103//36 122//36
f 105//36 122//36 123//36
f 123//17 122//17 116//17
f 123//17 116//17 117//17
f 118//37 117//37 116//37
f 118//37 116//37 115//37
f 81//38 114//38 118//38
f 109//33 115//39 75//34
f 75//34 115//39 91//40
f 113//41 114//41 118//41
f 113//41 118//41 115//41
f 113//41 115//41 109//41
s 0
f 113//41 109//41 110//41
s 1
f 90//42 118//42 81//42
usemtl tank_mat2
f 124//19 125//19 126//19
f 127//19 124//19 128//19
f 127//19 128//19 129//19
f 129//19 130//19 127//19
f 129//19 131//19 130//19
f 132//19 133//19 134//19
f 135//19 132//19 136//19
f 135//19 136//19 137//19
f 137//19 138//19 135//19
f 132//19 134//19 136//19
f 137//19 139//19 138//19
f 140//43 141//43 142//43
f 140//43 142//43 143//43
f 144//44 145//44 143//44
f 144//44 143//44 142//44
f 129//18 128//18 124//18
f 129//18 124//18 127//18
f 128//18 126//18 124//18
f 137//18 136//18 132//18
f 137//18 132//18 135//18
f 146//18 147//18 140//18
f 146//18 140//18 143//18
f 142//19 141//19 148//19
f 142//19 148//19 149//19
f 141//45 140//45 147//45
f 141//45 147//45 148//45
f 149//19 144//19 142//19
f 143//18 145//18 146//18
